{
.appVersion = "121";
copyright = "Copyright 2024 Davide Piscitelli (https://github.com/Davide-dotzero/Tecnica-55)";
customParameters = (
{
name = license;
value = "SIL OpenFont License";
}
);
date = "2024-09-28 13:55:35 +0000";
designer = "Davide Piscitelli";
designerURL = "https://davidepiscitelli.framer.ai";
familyName = "Tecnica 55";
featurePrefixes = (
{
automatic = 1;
code = "languagesystem DFLT dflt;\012languagesystem latn dflt;\012languagesystem latn ROM;\012languagesystem latn MOL;\012languagesystem latn KAZ;\012languagesystem latn TAT;\012languagesystem latn TRK;\012languagesystem latn CRT;\012languagesystem latn AZE;\012";
name = Languagesystems;
}
);
features = (
{
automatic = 1;
code = "feature locl;\012feature frac;\012feature ordn;\012";
name = aalt;
},
{
automatic = 1;
code = "script latn;\012language ROM;\012sub Scedilla by Scommaaccent;\012sub scedilla by scommaaccent;\012sub Tcedilla by Tcommaaccent;\012sub tcedilla by tcommaaccent;\012language MOL;\012sub Scedilla by Scommaaccent;\012sub scedilla by scommaaccent;\012sub Tcedilla by Tcommaaccent;\012sub tcedilla by tcommaaccent;\012language KAZ;\012sub i by idotaccent;\012language TAT;\012sub i by idotaccent;\012language TRK;\012sub i by idotaccent;\012language CRT;\012sub i by idotaccent;\012language AZE;\012sub i by idotaccent;\012";
name = locl;
},
{
automatic = 1;

glyphs = (
{
glyphname = A;
lastChange = "2024-11-22 08:45:34 +0000";
layers = (
{
anchors = (
{
name = bottom;
position = "{300, 0}";
},
{
name = ogonek;
position = "{550, 0}";
},
{
name = top;
position = "{300, 700}";
}
);
layerId = "CAAE6B47-272D-418B-B8E9-730CC53AA9A0";
paths = (
{
closed = 1;
nodes = (
"128 0 OFFCURVE",
"150 22 OFFCURVE",
"150 50 CURVE SMOOTH",
"150 78 OFFCURVE",
"128 100 OFFCURVE",
"100 100 CURVE SMOOTH",
"72 100 OFFCURVE",
"50 78 OFFCURVE",
"50 50 CURVE SMOOTH",
"50 22 OFFCURVE",
"72 0 OFFCURVE",
"100 0 CURVE SMOOTH"
);
},
{
closed = 1;
nodes = (
"528 0 OFFCURVE",
"550 22 OFFCURVE",
"550 50 CURVE SMOOTH",
"550 78 OFFCURVE",
"528 100 OFFCURVE",
"500 100 CURVE SMOOTH",
"472 100 OFFCURVE",
"450 78 OFFCURVE",
"450 50 CURVE SMOOTH",
"450 22 OFFCURVE",
"472 0 OFFCURVE",
"500 0 CURVE SMOOTH"
);
},
{
closed = 1;
nodes = (
"128 150 OFFCURVE",
"150 172 OFFCURVE",
"150 200 CURVE SMOOTH",
"150 228 OFFCURVE",
"128 250 OFFCURVE",
"100 250 CURVE SMOOTH",
"72 250 OFFCURVE",
"50 228 OFFCURVE",
"50 200 CURVE SMOOTH",
"50 172 OFFCURVE",
"72 150 OFFCURVE",
"100 150 CURVE SMOOTH"
);
},
{
closed = 1;
nodes = (
"528 150 OFFCURVE",
"550 172 OFFCURVE",
"550 200 CURVE SMOOTH",
"550 228 OFFCURVE",
"528 250 OFFCURVE",
"500 250 CURVE SMOOTH",
"472 250 OFFCURVE",
"450 228 OFFCURVE",
"450 200 CURVE SMOOTH",
"450 172 OFFCURVE",
"472 150 OFFCURVE",
"500 150 CURVE SMOOTH"
);
},
{
closed = 1;
nodes = (
"128 300 OFFCURVE",
"150 322 OFFCURVE",
"150 350 CURVE SMOOTH",
"150 378 OFFCURVE",
"128 400 OFFCURVE",
"100 400 CURVE SMOOTH",
"72 400 OFFCURVE",
"50 378 OFFCURVE",
"50 350 CURVE SMOOTH",
"50 322 OFFCURVE",
"72 300 OFFCURVE",
"100 300 CURVE SMOOTH"
);
},
{
closed = 1;
nodes = (
"228 300 OFFCURVE",
"250 322 OFFCURVE",
"250 350 CURVE SMOOTH",
"250 378 OFFCURVE",
"228 400 OFFCURVE",
"200 400 CURVE SMOOTH",
"172 400 OFFCURVE",
"150 378 OFFCURVE",
"150 350 CURVE SMOOTH",
"150 322 OFFCURVE",
"172 300 OFFCURVE",
"200 300 CURVE SMOOTH"
);
},
{
closed = 1;
nodes = (
"328 300 OFFCURVE",
"350 322 OFFCURVE",
"350 350 CURVE SMOOTH",
"350 378 OFFCURVE",
"328 400 OFFCURVE",
"300 400 CURVE SMOOTH",
"272 400 OFFCURVE",
"250 378 OFFCURVE",
"250 350 CURVE SMOOTH",
"250 322 OFFCURVE",
"272 300 OFFCURVE",
"300 300 CURVE SMOOTH"
);
},
{
closed = 1;
nodes = (
"428 300 OFFCURVE",
"450 322 OFFCURVE",
"450 350 CURVE SMOOTH",
"450 378 OFFCURVE",
"428 400 OFFCURVE",
"400 400 CURVE SMOOTH",
"372 400 OFFCURVE",
"350 378 OFFCURVE",
"350 350 CURVE SMOOTH",
"350 322 OFFCURVE",
"372 300 OFFCURVE",
"400 300 CURVE SMOOTH"
);
},
{
closed = 1;
nodes = (
"528 300 OFFCURVE",
"550 322 OFFCURVE",
"550 350 CURVE SMOOTH",
"550 378 OFFCURVE",
"528 400 OFFCURVE",
"500 400 CURVE SMOOTH",
"472 400 OFFCURVE",
"450 378 OFFCURVE",
"450 350 CURVE SMOOTH",
"450 322 OFFCURVE",
"472 300 OFFCURVE",
"500 300 CURVE SMOOTH"
);
},
{
closed = 1;
nodes = (
"128 450 OFFCURVE",
"150 472 OFFCURVE",
"150 500 CURVE SMOOTH",
"150 528 OFFCURVE",
"128 550 OFFCURVE",
"100 550 CURVE SMOOTH",
"72 550 OFFCURVE",
"50 528 OFFCURVE",
"50 500 CURVE SMOOTH",
"50 472 OFFCURVE",
"72 450 OFFCURVE",
"100 450 CURVE SMOOTH"
);
},
{
closed = 1;
nodes = (
"528 450 OFFCURVE",
"550 472 OFFCURVE",
"550 500 CURVE SMOOTH",
"550 528 OFFCURVE",
"528 550 OFFCURVE",
"500 550 CURVE SMOOTH",
"472 550 OFFCURVE",
"450 528 OFFCURVE",
"450 500 CURVE SMOOTH",
"450 472 OFFCURVE",
"472 450 OFFCURVE",
"500 450 CURVE SMOOTH"
);
},
{
closed = 1;
nodes = (
"228 600 OFFCURVE",
"250 622 OFFCURVE",
"250 650 CURVE SMOOTH",
"250 678 OFFCURVE",
"228 700 OFFCURVE",
"200 700 CURVE SMOOTH",
"172 700 OFFCURVE",
"150 678 OFFCURVE",
"150 650 CURVE SMOOTH",
"150 622 OFFCURVE",
"172 600 OFFCURVE",
"200 600 CURVE SMOOTH"
);
},
{
closed = 1;
nodes = (
"328 600 OFFCURVE",
"350 622 OFFCURVE",
"350 650 CURVE SMOOTH",
"350 678 OFFCURVE",
"328 700 OFFCURVE",
"300 700 CURVE SMOOTH",
"272 700 OFFCURVE",
"250 678 OFFCURVE",
"250 650 CURVE SMOOTH",
"250 622 OFFCURVE",
"272 600 OFFCURVE",
"300 600 CURVE SMOOTH"
);
},
{
closed = 1;
nodes = (
"428 600 OFFCURVE",
"450 622 OFFCURVE",
"450 650 CURVE SMOOTH",
"450 678 OFFCURVE",
"428 700 OFFCURVE",
"400 700 CURVE SMOOTH",
"372 700 OFFCURVE",
"350 678 OFFCURVE",
"350 650 CURVE SMOOTH",
"350 622 OFFCURVE",
"372 600 OFFCURVE",
"400 600 CURVE SMOOTH"
);
}
);
width = 600;
}
);
unicode = 0041;
},
{
glyphname = AE;
lastChange = "2024-10-07 08:05:24 +0000";
layers = (
{
layerId = "CAAE6B47-272D-418B-B8E9-730CC53AA9A0";
paths = (
{
closed = 1;
nodes = (
"128 0 OFFCURVE",
"150 22 OFFCURVE",
"150 50 CURVE SMOOTH",
"150 78 OFFCURVE",
"128 100 OFFCURVE",
"100 100 CURVE SMOOTH",
"72 100 OFFCURVE",
"50 78 OFFCURVE",
"50 50 CURVE SMOOTH",
"50 22 OFFCURVE",
"72 0 OFFCURVE",
"100 0 CURVE SMOOTH"
);
},
{
closed = 1;
nodes = (
"328 0 OFFCURVE",
"350 22 OFFCURVE",
"350 50 CURVE SMOOTH",
"350 78 OFFCURVE",
"328 100 OFFCURVE",
"300 100 CURVE SMOOTH",
"272 100 OFFCURVE",
"250 78 OFFCURVE",
"250 50 CURVE SMOOTH",
"250 22 OFFCURVE",
"272 0 OFFCURVE",
"300 0 CURVE SMOOTH"
);
},
{
closed = 1;
nodes = (
"428 0 OFFCURVE",
"450 22 OFFCURVE",
"450 50 CURVE SMOOTH",
"450 78 OFFCURVE",
"428 100 OFFCURVE",
"400 100 CURVE SMOOTH",
"372 100 OFFCURVE",
"350 78 OFFCURVE",
"350 50 CURVE SMOOTH",
"350 22 OFFCURVE",
"372 0 OFFCURVE",
"400 0 CURVE SMOOTH"
);
},
{
closed = 1;
nodes = (
"528 0 OFFCURVE",
"550 22 OFFCURVE",
"550 50 CURVE SMOOTH",
"550 78 OFFCURVE",
"528 100 OFFCURVE",
"500 100 CURVE SMOOTH",
"472 100 OFFCURVE",
"450 78 OFFCURVE",
"450 50 CURVE SMOOTH",
"450 22 OFFCURVE",
"472 0 OFFCURVE",
"500 0 CURVE SMOOTH"
);
},
{
closed = 1;
nodes = (
"128 150 OFFCURVE",
"150 172 OFFCURVE",
"150 200 CURVE SMOOTH",
"150 228 OFFCURVE",
"128 250 OFFCURVE",
"100 250 CURVE SMOOTH",
"72 250 OFFCURVE",
"50 228 OFFCURVE",
"50 200 CURVE SMOOTH",
"50 172 OFFCURVE",
"72 150 OFFCURVE",
"100 150 CURVE SMOOTH"
);
},
{
closed = 1;
nodes = (
"328 150 OFFCURVE",
"350 172 OFFCURVE",
"350 200 CURVE SMOOTH",
"350 228 OFFCURVE",
"328 250 OFFCURVE",
"300 250 CURVE SMOOTH",
"272 250 OFFCURVE",
"250 228 OFFCURVE",
"250 200 CURVE SMOOTH",
"250 172 OFFCURVE",
"272 150 OFFCURVE",
"300 150 CURVE SMOOTH"
);
},
{
closed = 1;
nodes = (
"128 300 OFFCURVE",
"150 322 OFFCURVE",
"150 350 CURVE SMOOTH",
"150 378 OFFCURVE",
"128 400 OFFCURVE",
"100 400 CURVE SMOOTH",
"72 400 OFFCURVE",
"50 378 OFFCURVE",
"50 350 CURVE SMOOTH",
"50 322 OFFCURVE",
"72 300 OFFCURVE",
"100 300 CURVE SMOOTH"
);
},
{
closed = 1;
nodes = (
"328 300 OFFCURVE",
"350 322 OFFCURVE",
"350 350 CURVE SMOOTH",
"350 378 OFFCURVE",
"328 400 OFFCURVE",
"300 400 CURVE SMOOTH",
"272 400 OFFCURVE",
"250 378 OFFCURVE",
"250 350 CURVE SMOOTH",
"250 322 OFFCURVE",
"272 300 OFFCURVE",
"300 300 CURVE SMOOTH"
);
},
{
closed = 1;
nodes = (
"428 300 OFFCURVE",
"450 322 OFFCURVE",
"450 350 CURVE SMOOTH",
"450 378 OFFCURVE",
"428 400 OFFCURVE",
"400 400 CURVE SMOOTH",
"372 400 OFFCURVE",
"350 378 OFFCURVE",
"350 350 CURVE SMOOTH",
"350 322 OFFCURVE",
"372 300 OFFCURVE",
"400 300 CURVE SMOOTH"
);
},
{
closed = 1;
nodes = (
"128 450 OFFCURVE",
"150 472 OFFCURVE",
"150 500 CURVE SMOOTH",
"150 528 OFFCURVE",
"128 550 OFFCURVE",
"100 550 CURVE SMOOTH",
"72 550 OFFCURVE",
"50 528 OFFCURVE",
"50 500 CURVE SMOOTH",
"50 472 OFFCURVE",
"72 450 OFFCURVE",
"100 450 CURVE SMOOTH"
);
},
{
closed = 1;
nodes = (
"328 450 OFFCURVE",
"350 472 OFFCURVE",
"350 500 CURVE SMOOTH",
"350 528 OFFCURVE",
"328 550 OFFCURVE",
"300 550 CURVE SMOOTH",
"272 550 OFFCURVE",
"250 528 OFFCURVE",
"250 500 CURVE SMOOTH",
"250 472 OFFCURVE",
"272 450 OFFCURVE",
"300 450 CURVE SMOOTH"
);
},
{
closed = 1;
nodes = (
"228 600 OFFCURVE",
"250 622 OFFCURVE",
"250 650 CURVE SMOOTH",
"250 678 OFFCURVE",
"228 700 OFFCURVE",
"200 700 CURVE SMOOTH",
"172 700 OFFCURVE",
"150 678 OFFCURVE",
"150 650 CURVE SMOOTH",
"150 622 OFFCURVE",
"172 600 OFFCURVE",
"200 600 CURVE SMOOTH"
);
},
{
closed = 1;
nodes = (
"328 600 OFFCURVE",
"350 622 OFFCURVE",
"350 650 CURVE SMOOTH",
"350 678 OFFCURVE",
"328 700 OFFCURVE",
"300 700 CURVE SMOOTH",
"272 700 OFFCURVE",
"250 678 OFFCURVE",
"250 650 CURVE SMOOTH",
"250 622 OFFCURVE",
"272 600 OFFCURVE",
"300 600 CURVE SMOOTH"
);
},
{
closed = 1;
nodes = (
"428 600 OFFCURVE",
"450 622 OFFCURVE",
"450 650 CURVE SMOOTH",
"450 678 OFFCURVE",
"428 700 OFFCURVE",
"400 700 CURVE SMOOTH",
"372 700 OFFCURVE",
"350 678 OFFCURVE",
"350 650 CURVE SMOOTH",
"350 622 OFFCURVE",
"372 600 OFFCURVE",
"400 600 CURVE SMOOTH"
);
},
{
closed = 1;
nodes = (
"528 600 OFFCURVE",
"550 622 OFFCURVE",
"550 650 CURVE SMOOTH",
"550 678 OFFCURVE",
"528 700 OFFCURVE",
"500 700 CURVE SMOOTH",
"472 700 OFFCURVE",
"450 678 OFFCURVE",
"450 650 CURVE SMOOTH",
"450 622 OFFCURVE",
"472 600 OFFCURVE",
"500 600 CURVE SMOOTH"
);
},
{
closed = 1;
nodes = (
"228 300 OFFCURVE",
"250 322 OFFCURVE",
"250 350 CURVE SMOOTH",
"250 378 OFFCURVE",
"228 400 OFFCURVE",
"200 400 CURVE SMOOTH",
"172 400 OFFCURVE",
"150 378 OFFCURVE",
"150 350 CURVE SMOOTH",
"150 322 OFFCURVE",
"172 300 OFFCURVE",
"200 300 CURVE SMOOTH"
);
}
);
width = 600;
}
);
unicode = 00C6;
},
{
glyphname = B;
lastChange = "2024-11-22 08:45:31 +0000";
layers = (
{
layerId = "CAAE6B47-272D-418B-B8E9-730CC53AA9A0";
paths = (
{
closed = 1;
nodes = (
"128 0 OFFCURVE",
"150 22 OFFCURVE",
"150 50 CURVE SMOOTH",
"150 78 OFFCURVE",
"128 100 OFFCURVE",
"100 100 CURVE SMOOTH",
"72 100 OFFCURVE",
"50 78 OFFCURVE",
"50 50 CURVE SMOOTH",
"50 22 OFFCURVE",
"72 0 OFFCURVE",
"100 0 CURVE SMOOTH"
);
},
{
closed = 1;
nodes = (
"228 0 OFFCURVE",
"250 22 OFFCURVE",
"250 50 CURVE SMOOTH",
"250 78 OFFCURVE",
"228 100 OFFCURVE",
"200 100 CURVE SMOOTH",
"172 100 OFFCURVE",
"150 78 OFFCURVE",
"150 50 CURVE SMOOTH",
"150 22 OFFCURVE",
"172 0 OFFCURVE",
"200 0 CURVE SMOOTH"
);
},
{
closed = 1;
nodes = (
"328 0 OFFCURVE",
"350 22 OFFCURVE",
"350 50 CURVE SMOOTH",
"350 78 OFFCURVE",
"328 100 OFFCURVE",
"300 100 CURVE SMOOTH",
"272 100 OFFCURVE",
"250 78 OFFCURVE",
"250 50 CURVE SMOOTH",
"250 22 OFFCURVE",
"272 0 OFFCURVE",
"300 0 CURVE SMOOTH"
);
},
{
closed = 1;
nodes = (
"428 0 OFFCURVE",
"450 22 OFFCURVE",
"450 50 CURVE SMOOTH",
"450 78 OFFCURVE",
"428 100 OFFCURVE",
"400 100 CURVE SMOOTH",
"372 100 OFFCURVE",
"350 78 OFFCURVE",
"350 50 CURVE SMOOTH",
"350 22 OFFCURVE",
"372 0 OFFCURVE",
"400 0 CURVE SMOOTH"
);
},
{
closed = 1;
nodes = (
"128 150 OFFCURVE",
"150 172 OFFCURVE",
"150 200 CURVE SMOOTH",
"150 228 OFFCURVE",
"128 250 OFFCURVE",
"100 250 CURVE SMOOTH",
"72 250 OFFCURVE",
"50 228 OFFCURVE",
"50 200 CURVE SMOOTH",
"50 172 OFFCURVE",
"72 150 OFFCURVE",
"100 150 CURVE SMOOTH"
);
},
{
closed = 1;
nodes = (
"528 150 OFFCURVE",
"550 172 OFFCURVE",
"550 200 CURVE SMOOTH",
"550 228 OFFCURVE",
"528 250 OFFCURVE",
"500 250 CURVE SMOOTH",
"472 250 OFFCURVE",
"450 228 OFFCURVE",
"450 200 CURVE SMOOTH",
"450 172 OFFCURVE",
"472 150 OFFCURVE",
"500 150 CURVE SMOOTH"
);
},
{
closed = 1;
nodes = (
"228 300 OFFCURVE",
"250 322 OFFCURVE",
"250 350 CURVE SMOOTH",
"250 378 OFFCURVE",
"228 400 OFFCURVE",
"200 400 CURVE SMOOTH",
"172 400 OFFCURVE",
"150 378 OFFCURVE",
"150 350 CURVE SMOOTH",
"150 322 OFFCURVE",
"172 300 OFFCURVE",
"200 300 CURVE SMOOTH"
);
},
{
closed = 1;
nodes = (
"328 300 OFFCURVE",
"350 322 OFFCURVE",
"350 350 CURVE SMOOTH",
"350 378 OFFCURVE",
"328 400 OFFCURVE",
"300 400 CURVE SMOOTH",
"272 400 OFFCURVE",
"250 378 OFFCURVE",
"250 350 CURVE SMOOTH",
"250 322 OFFCURVE",
"272 300 OFFCURVE",
"300 300 CURVE SMOOTH"
);
},
{
closed = 1;
nodes = (
"428 300 OFFCURVE",
"450 322 OFFCURVE",
"450 350 CURVE SMOOTH",
"450 378 OFFCURVE",
"428 400 OFFCURVE",
"400 400 CURVE SMOOTH",
"372 400 OFFCURVE",
"350 378 OFFCURVE",
"350 350 CURVE SMOOTH",
"350 322 OFFCURVE",
"372 300 OFFCURVE",
"400 300 CURVE SMOOTH"
);
},
{
closed = 1;
nodes = (
"128 450 OFFCURVE",
"150 472 OFFCURVE",
"150 500 CURVE SMOOTH",
"150 528 OFFCURVE",
"128 550 OFFCURVE",
"100 550 CURVE SMOOTH",
"72 550 OFFCURVE",
"50 528 OFFCURVE",
"50 500 CURVE SMOOTH",
"50 472 OFFCURVE",
"72 450 OFFCURVE",
"100 450 CURVE SMOOTH"
);
},
{
closed = 1;
nodes = (
"528 450 OFFCURVE",
"550 472 OFFCURVE",
"550 500 CURVE SMOOTH",
"550 528 OFFCURVE",
"528 550 OFFCURVE",
"500 550 CURVE SMOOTH",
"472 550 OFFCURVE",
"450 528 OFFCURVE",
"450 500 CURVE SMOOTH",
"450 472 OFFCURVE",
"472 450 OFFCURVE",
"500 450 CURVE SMOOTH"
);
},
{
closed = 1;
nodes = (
"128 600 OFFCURVE",
"150 622 OFFCURVE",
"150 650 CURVE SMOOTH",
"150 678 OFFCURVE",
"128 700 OFFCURVE",
"100 700 CURVE SMOOTH",
"72 700 OFFCURVE",
"50 678 OFFCURVE",
"50 650 CURVE SMOOTH",
"50 622 OFFCURVE",
"72 600 OFFCURVE",
"100 600 CURVE SMOOTH"
);
},
{
closed = 1;
nodes = (
"228 600 OFFCURVE",
"250 622 OFFCURVE",
"250 650 CURVE SMOOTH",
"250 678 OFFCURVE",
"228 700 OFFCURVE",
"200 700 CURVE SMOOTH",
"172 700 OFFCURVE",
"150 678 OFFCURVE",
"150 650 CURVE SMOOTH",
"150 622 OFFCURVE",
"172 600 OFFCURVE",
"200 600 CURVE SMOOTH"
);
},
{
closed = 1;
nodes = (
"328 600 OFFCURVE",
"350 622 OFFCURVE",
"350 650 CURVE SMOOTH",
"350 678 OFFCURVE",
"328 700 OFFCURVE",
"300 700 CURVE SMOOTH",
"272 700 OFFCURVE",
"250 678 OFFCURVE",
"250 650 CURVE SMOOTH",
"250 622 OFFCURVE",
"272 600 OFFCURVE",
"300 600 CURVE SMOOTH"
);
},
{
closed = 1;
nodes = (
"428 600 OFFCURVE",
"450 622 OFFCURVE",
"450 650 CURVE SMOOTH",
"450 678 OFFCURVE",
"428 700 OFFCURVE",
"400 700 CURVE SMOOTH",
"372 700 OFFCURVE",
"350 678 OFFCURVE",
"350 650 CURVE SMOOTH",
"350 622 OFFCURVE",
"372 600 OFFCURVE",
"400 600 CURVE SMOOTH"
);
},
{
closed = 1;
nodes = (
"128 300 OFFCURVE",
"150 322 OFFCURVE",
"150 350 CURVE SMOOTH",
"150 378 OFFCURVE",
"128 400 OFFCURVE",
"100 400 CURVE SMOOTH",
"72 400 OFFCURVE",
"50 378 OFFCURVE",
"50 350 CURVE SMOOTH",
"50 322 OFFCURVE",
"72 300 OFFCURVE",
"100 300 CURVE SMOOTH"
);
}
);
width = 600;
}
);
unicode = 0042;
},
{
glyphname = C;
lastChange = "2024-11-22 08:45:31 +0000";
layers = (
{
anchors = (
{
name = bottom;
position = "{300, 0}";
},
{
name = top;
position = "{300, 700}";
}
);
hints = (
{
horizontal = 1;
place = "{-84, 100}";
type = Stem;
}
);
layerId = "CAAE6B47-272D-418B-B8E9-730CC53AA9A0";
paths = (
{
closed = 1;
nodes = (
"228 0 OFFCURVE",
"250 22 OFFCURVE",
"250 50 CURVE SMOOTH",
"250 78 OFFCURVE",
"228 100 OFFCURVE",
"200 100 CURVE SMOOTH",
"172 100 OFFCURVE",
"150 78 OFFCURVE",
"150 50 CURVE SMOOTH",
"150 22 OFFCURVE",
"172 0 OFFCURVE",
"200 0 CURVE SMOOTH"
);
},
{
closed = 1;
nodes = (
"328 0 OFFCURVE",
"350 22 OFFCURVE",
"350 50 CURVE SMOOTH",
"350 78 OFFCURVE",
"328 100 OFFCURVE",
"300 100 CURVE SMOOTH",
"272 100 OFFCURVE",
"250 78 OFFCURVE",
"250 50 CURVE SMOOTH",
"250 22 OFFCURVE",
"272 0 OFFCURVE",
"300 0 CURVE SMOOTH"
);
},
{
closed = 1;
nodes = (
"428 0 OFFCURVE",
"450 22 OFFCURVE",
"450 50 CURVE SMOOTH",
"450 78 OFFCURVE",
"428 100 OFFCURVE",
"400 100 CURVE SMOOTH",
"372 100 OFFCURVE",
"350 78 OFFCURVE",
"350 50 CURVE SMOOTH",
"350 22 OFFCURVE",
"372 0 OFFCURVE",
"400 0 CURVE SMOOTH"
);
},
{
closed = 1;
nodes = (
"128 150 OFFCURVE",
"150 172 OFFCURVE",
"150 200 CURVE SMOOTH",
"150 228 OFFCURVE",
"128 250 OFFCURVE",
"100 250 CURVE SMOOTH",
"72 250 OFFCURVE",
"50 228 OFFCURVE",
"50 200 CURVE SMOOTH",
"50 172 OFFCURVE",
"72 150 OFFCURVE",
"100 150 CURVE SMOOTH"
);
},
{
closed = 1;
nodes = (
"528 150 OFFCURVE",
"550 172 OFFCURVE",
"550 200 CURVE SMOOTH",
"550 228 OFFCURVE",
"528 250 OFFCURVE",
"500 250 CURVE SMOOTH",
"472 250 OFFCURVE",
"450 228 OFFCURVE",
"450 200 CURVE SMOOTH",
"450 172 OFFCURVE",
"472 150 OFFCURVE",
"500 150 CURVE SMOOTH"
);
},
{
closed = 1;
nodes = (
"128 300 OFFCURVE",
"150 322 OFFCURVE",
"150 350 CURVE SMOOTH",
"150 378 OFFCURVE",
"128 400 OFFCURVE",
"100 400 CURVE SMOOTH",
"72 400 OFFCURVE",
"50 378 OFFCURVE",
"50 350 CURVE SMOOTH",
"50 322 OFFCURVE",
"72 300 OFFCURVE",
"100 300 CURVE SMOOTH"
);
},
{
closed = 1;
nodes = (
"128 450 OFFCURVE",
"150 472 OFFCURVE",
"150 500 CURVE SMOOTH",
"150 528 OFFCURVE",
"128 550 OFFCURVE",
"100 550 CURVE SMOOTH",
"72 550 OFFCURVE",
"50 528 OFFCURVE",
"50 500 CURVE SMOOTH",
"50 472 OFFCURVE",
"72 450 OFFCURVE",
"100 450 CURVE SMOOTH"
);
},
{
closed = 1;
nodes = (
"528 450 OFFCURVE",
"550 472 OFFCURVE",
"550 500 CURVE SMOOTH",
"550 528 OFFCURVE",
"528 550 OFFCURVE",
"500 550 CURVE SMOOTH",
"472 550 OFFCURVE",
"450 528 OFFCURVE",
"450 500 CURVE SMOOTH",
"450 472 OFFCURVE",
"472 450 OFFCURVE",
"500 450 CURVE SMOOTH"
);
},
{
closed = 1;
nodes = (
"228 600 OFFCURVE",
"250 622 OFFCURVE",
"250 650 CURVE SMOOTH",
"250 678 OFFCURVE",
"228 700 OFFCURVE",
"200 700 CURVE SMOOTH",
"172 700 OFFCURVE",
"150 678 OFFCURVE",
"150 650 CURVE SMOOTH",
"150 622 OFFCURVE",
"172 600 OFFCURVE",
"200 600 CURVE SMOOTH"
);
},
{
closed = 1;
nodes = (
"328 600 OFFCURVE",
"350 622 OFFCURVE",
"350 650 CURVE SMOOTH",
"350 678 OFFCURVE",
"328 700 OFFCURVE",
"300 700 CURVE SMOOTH",
"272 700 OFFCURVE",
"250 678 OFFCURVE",
"250 650 CURVE SMOOTH",
"250 622 OFFCURVE",
"272 600 OFFCURVE",
"300 600 CURVE SMOOTH"
);
},
{
closed = 1;
nodes = (
"428 600 OFFCURVE",
"450 622 OFFCURVE",
"450 650 CURVE SMOOTH",
"450 678 OFFCURVE",
"428 700 OFFCURVE",
"400 700 CURVE SMOOTH",
"372 700 OFFCURVE",
"350 678 OFFCURVE",
"350 650 CURVE SMOOTH",
"350 622 OFFCURVE",
"372 600 OFFCURVE",
"400 600 CURVE SMOOTH"
);
}
);
width = 600;
}
);
unicode = 0043;
},
{
glyphname = D;
lastChange = "2024-11-22 08:45:29 +0000";
layers = (
{
anchors = (
{
name = bottom;
position = "{300, 0}";
},
{
name = center;
position = "{300, 350}";
},
{
name = top;
position = "{300, 700}";
}
);
layerId = "CAAE6B47-272D-418B-B8E9-730CC53AA9A0";
paths = (
{
closed = 1;
nodes = (
"128 0 OFFCURVE",
"150 22 OFFCURVE",
"150 50 CURVE SMOOTH",
"150 78 OFFCURVE",
"128 100 OFFCURVE",
"100 100 CURVE SMOOTH",
"72 100 OFFCURVE",
"50 78 OFFCURVE",
"50 50 CURVE SMOOTH",
"50 22 OFFCURVE",
"72 0 OFFCURVE",
"100 0 CURVE SMOOTH"
);
},
{
closed = 1;
nodes = (
"228 0 OFFCURVE",
"250 22 OFFCURVE",
"250 50 CURVE SMOOTH",
"250 78 OFFCURVE",
"228 100 OFFCURVE",
"200 100 CURVE SMOOTH",
"172 100 OFFCURVE",
"150 78 OFFCURVE",
"150 50 CURVE SMOOTH",
"150 22 OFFCURVE",
"172 0 OFFCURVE",
"200 0 CURVE SMOOTH"
);
},
{
closed = 1;
nodes = (
"328 0 OFFCURVE",
"350 22 OFFCURVE",
"350 50 CURVE SMOOTH",
"350 78 OFFCURVE",
"328 100 OFFCURVE",
"300 100 CURVE SMOOTH",
"272 100 OFFCURVE",
"250 78 OFFCURVE",
"250 50 CURVE SMOOTH",
"250 22 OFFCURVE",
"272 0 OFFCURVE",
"300 0 CURVE SMOOTH"
);
},
{
closed = 1;
nodes = (
"428 0 OFFCURVE",
"450 22 OFFCURVE",
"450 50 CURVE SMOOTH",
"450 78 OFFCURVE",
"428 100 OFFCURVE",
"400 100 CURVE SMOOTH",
"372 100 OFFCURVE",
"350 78 OFFCURVE",
"350 50 CURVE SMOOTH",
"350 22 OFFCURVE",
"372 0 OFFCURVE",
"400 0 CURVE SMOOTH"
);
},
{
closed = 1;
nodes = (
"128 150 OFFCURVE",
"150 172 OFFCURVE",
"150 200 CURVE SMOOTH",
"150 228 OFFCURVE",
"128 250 OFFCURVE",
"100 250 CURVE SMOOTH",
"72 250 OFFCURVE",
"50 228 OFFCURVE",
"50 200 CURVE SMOOTH",
"50 172 OFFCURVE",
"72 150 OFFCURVE",
"100 150 CURVE SMOOTH"
);
},
{
closed = 1;
nodes = (
"528 150 OFFCURVE",
"550 172 OFFCURVE",
"550 200 CURVE SMOOTH",
"550 228 OFFCURVE",
"528 250 OFFCURVE",
"500 250 CURVE SMOOTH",
"472 250 OFFCURVE",
"450 228 OFFCURVE",
"450 200 CURVE SMOOTH",
"450 172 OFFCURVE",
"472 150 OFFCURVE",
"500 150 CURVE SMOOTH"
);
},
{
closed = 1;
nodes = (
"128 300 OFFCURVE",
"150 322 OFFCURVE",
"150 350 CURVE SMOOTH",
"150 378 OFFCURVE",
"128 400 OFFCURVE",
"100 400 CURVE SMOOTH",
"72 400 OFFCURVE",
"50 378 OFFCURVE",
"50 350 CURVE SMOOTH",
"50 322 OFFCURVE",
"72 300 OFFCURVE",
"100 300 CURVE SMOOTH"
);
},
{
closed = 1;
nodes = (
"528 300 OFFCURVE",
"550 322 OFFCURVE",
"550 350 CURVE SMOOTH",
"550 378 OFFCURVE",
"528 400 OFFCURVE",
"500 400 CURVE SMOOTH",
"472 400 OFFCURVE",
"450 378 OFFCURVE",
"450 350 CURVE SMOOTH",
"450 322 OFFCURVE",
"472 300 OFFCURVE",
"500 300 CURVE SMOOTH"
);
},
{
closed = 1;
nodes = (
"128 450 OFFCURVE",
"150 472 OFFCURVE",
"150 500 CURVE SMOOTH",
"150 528 OFFCURVE",
"128 550 OFFCURVE",
"100 550 CURVE SMOOTH",
"72 550 OFFCURVE",
"50 528 OFFCURVE",
"50 500 CURVE SMOOTH",
"50 472 OFFCURVE",
"72 450 OFFCURVE",
"100 450 CURVE SMOOTH"
);
},
{
closed = 1;
nodes = (
"528 450 OFFCURVE",
"550 472 OFFCURVE",
"550 500 CURVE SMOOTH",
"550 528 OFFCURVE",
"528 550 OFFCURVE",
"500 550 CURVE SMOOTH",
"472 550 OFFCURVE",
"450 528 OFFCURVE",
"450 500 CURVE SMOOTH",
"450 472 OFFCURVE",
"472 450 OFFCURVE",
"500 450 CURVE SMOOTH"
);
},
{
closed = 1;
nodes = (
"128 600 OFFCURVE",
"150 622 OFFCURVE",
"150 650 CURVE SMOOTH",
"150 678 OFFCURVE",
"128 700 OFFCURVE",
"100 700 CURVE SMOOTH",
"72 700 OFFCURVE",
"50 678 OFFCURVE",
"50 650 CURVE SMOOTH",
"50 622 OFFCURVE",
"72 600 OFFCURVE",
"100 600 CURVE SMOOTH"
);
},
{
closed = 1;
nodes = (
"228 600 OFFCURVE",
"250 622 OFFCURVE",
"250 650 CURVE SMOOTH",
"250 678 OFFCURVE",
"228 700 OFFCURVE",
"200 700 CURVE SMOOTH",
"172 700 OFFCURVE",
"150 678 OFFCURVE",
"150 650 CURVE SMOOTH",
"150 622 OFFCURVE",
"172 600 OFFCURVE",
"200 600 CURVE SMOOTH"
);
},
{
closed = 1;
nodes = (
"328 600 OFFCURVE",
"350 622 OFFCURVE",
"350 650 CURVE SMOOTH",
"350 678 OFFCURVE",
"328 700 OFFCURVE",
"300 700 CURVE SMOOTH",
"272 700 OFFCURVE",
"250 678 OFFCURVE",
"250 650 CURVE SMOOTH",
"250 622 OFFCURVE",
"272 600 OFFCURVE",
"300 600 CURVE SMOOTH"
);
},
{
closed = 1;
nodes = (
"428 600 OFFCURVE",
"450 622 OFFCURVE",
"450 650 CURVE SMOOTH",
"450 678 OFFCURVE",
"428 700 OFFCURVE",
"400 700 CURVE SMOOTH",
"372 700 OFFCURVE",
"350 678 OFFCURVE",
"350 650 CURVE SMOOTH",
"350 622 OFFCURVE",
"372 600 OFFCURVE",
"400 600 CURVE SMOOTH"
);
}
);
width = 600;
}
);
unicode = 0044;
},
{
glyphname = Eth;
lastChange = "2024-10-07 15:11:11 +0000";
layers = (
{
anchors = (
{
name = bottom;
position = "{300, 0}";
},
{
name = center;
position = "{300, 350}";
},
{
name = top;
position = "{300, 700}";
}
);
components = (
{
alignment = -1;
name = strokeshortcomb;
}
);
layerId = "CAAE6B47-272D-418B-B8E9-730CC53AA9A0";
paths = (
{
closed = 1;
nodes = (
"228 0 OFFCURVE",
"250 22 OFFCURVE",
"250 50 CURVE SMOOTH",
"250 78 OFFCURVE",
"228 100 OFFCURVE",
"200 100 CURVE SMOOTH",
"172 100 OFFCURVE",
"150 78 OFFCURVE",
"150 50 CURVE SMOOTH",
"150 22 OFFCURVE",
"172 0 OFFCURVE",
"200 0 CURVE SMOOTH"
);
},
{
closed = 1;
nodes = (
"328 0 OFFCURVE",
"350 22 OFFCURVE",
"350 50 CURVE SMOOTH",
"350 78 OFFCURVE",
"328 100 OFFCURVE",
"300 100 CURVE SMOOTH",
"272 100 OFFCURVE",
"250 78 OFFCURVE",
"250 50 CURVE SMOOTH",
"250 22 OFFCURVE",
"272 0 OFFCURVE",
"300 0 CURVE SMOOTH"
);
},
{
closed = 1;
nodes = (
"428 0 OFFCURVE",
"450 22 OFFCURVE",
"450 50 CURVE SMOOTH",
"450 78 OFFCURVE",
"428 100 OFFCURVE",
"400 100 CURVE SMOOTH",
"372 100 OFFCURVE",
"350 78 OFFCURVE",
"350 50 CURVE SMOOTH",
"350 22 OFFCURVE",
"372 0 OFFCURVE",
"400 0 CURVE SMOOTH"
);
},
{
closed = 1;
nodes = (
"228 150 OFFCURVE",
"250 172 OFFCURVE",
"250 200 CURVE SMOOTH",
"250 228 OFFCURVE",
"228 250 OFFCURVE",
"200 250 CURVE SMOOTH",
"172 250 OFFCURVE",
"150 228 OFFCURVE",
"150 200 CURVE SMOOTH",
"150 172 OFFCURVE",
"172 150 OFFCURVE",
"200 150 CURVE SMOOTH"
);
},
{
closed = 1;
nodes = (
"528 150 OFFCURVE",
"550 172 OFFCURVE",
"550 200 CURVE SMOOTH",
"550 228 OFFCURVE",
"528 250 OFFCURVE",
"500 250 CURVE SMOOTH",
"472 250 OFFCURVE",
"450 228 OFFCURVE",
"450 200 CURVE SMOOTH",
"450 172 OFFCURVE",
"472 150 OFFCURVE",
"500 150 CURVE SMOOTH"
);
},
{
closed = 1;
nodes = (
"228 300 OFFCURVE",
"250 322 OFFCURVE",
"250 350 CURVE SMOOTH",
"250 378 OFFCURVE",
"228 400 OFFCURVE",
"200 400 CURVE SMOOTH",
"172 400 OFFCURVE",
"150 378 OFFCURVE",
"150 350 CURVE SMOOTH",
"150 322 OFFCURVE",
"172 300 OFFCURVE",
"200 300 CURVE SMOOTH"
);
},
{
closed = 1;
nodes = (
"528 300 OFFCURVE",
"550 322 OFFCURVE",
"550 350 CURVE SMOOTH",
"550 378 OFFCURVE",
"528 400 OFFCURVE",
"500 400 CURVE SMOOTH",
"472 400 OFFCURVE",
"450 378 OFFCURVE",
"450 350 CURVE SMOOTH",
"450 322 OFFCURVE",
"472 300 OFFCURVE",
"500 300 CURVE SMOOTH"
);
},
{
closed = 1;
nodes = (
"228 450 OFFCURVE",
"250 472 OFFCURVE",
"250 500 CURVE SMOOTH",
"250 528 OFFCURVE",
"228 550 OFFCURVE",
"200 550 CURVE SMOOTH",
"172 550 OFFCURVE",
"150 528 OFFCURVE",
"150 500 CURVE SMOOTH",
"150 472 OFFCURVE",
"172 450 OFFCURVE",
"200 450 CURVE SMOOTH"
);
},
{
closed = 1;
nodes = (
"528 450 OFFCURVE",
"550 472 OFFCURVE",
"550 500 CURVE SMOOTH",
"550 528 OFFCURVE",
"528 550 OFFCURVE",
"500 550 CURVE SMOOTH",
"472 550 OFFCURVE",
"450 528 OFFCURVE",
"450 500 CURVE SMOOTH",
"450 472 OFFCURVE",
"472 450 OFFCURVE",
"500 450 CURVE SMOOTH"
);
},
{
closed = 1;
nodes = (
"228 600 OFFCURVE",
"250 622 OFFCURVE",
"250 650 CURVE SMOOTH",
"250 678 OFFCURVE",
"228 700 OFFCURVE",
"200 700 CURVE SMOOTH",
"172 700 OFFCURVE",
"150 678 OFFCURVE",
"150 650 CURVE SMOOTH",
"150 622 OFFCURVE",
"172 600 OFFCURVE",
"200 600 CURVE SMOOTH"
);
},
{
closed = 1;
nodes = (
"328 600 OFFCURVE",
"350 622 OFFCURVE",
"350 650 CURVE SMOOTH",
"350 678 OFFCURVE",
"328 700 OFFCURVE",
"300 700 CURVE SMOOTH",
"272 700 OFFCURVE",
"250 678 OFFCURVE",
"250 650 CURVE SMOOTH",
"250 622 OFFCURVE",
"272 600 OFFCURVE",
"300 600 CURVE SMOOTH"
);
},
{
closed = 1;
nodes = (
"428 600 OFFCURVE",
"450 622 OFFCURVE",
"450 650 CURVE SMOOTH",
"450 678 OFFCURVE",
"428 700 OFFCURVE",
"400 700 CURVE SMOOTH",
"372 700 OFFCURVE",
"350 678 OFFCURVE",
"350 650 CURVE SMOOTH",
"350 622 OFFCURVE",
"372 600 OFFCURVE",
"400 600 CURVE SMOOTH"
);
}
);
width = 600;
}
);
unicode = 00D0;
},
{
glyphname = E;
lastChange = "2024-11-22 08:45:29 +0000";
layers = (
{
anchors = (
{
name = bottom;
position = "{300, 0}";
},
{
name = ogonek;
position = "{550, 0}";
},
{
name = top;
position = "{300, 700}";
},
{
name = topleft;
position = "{50, 700}";
}
);
layerId = "CAAE6B47-272D-418B-B8E9-730CC53AA9A0";
paths = (
{
closed = 1;
nodes = (
"128 0 OFFCURVE",
"150 22 OFFCURVE",
"150 50 CURVE SMOOTH",
"150 78 OFFCURVE",
"128 100 OFFCURVE",
"100 100 CURVE SMOOTH",
"72 100 OFFCURVE",
"50 78 OFFCURVE",
"50 50 CURVE SMOOTH",
"50 22 OFFCURVE",
"72 0 OFFCURVE",
"100 0 CURVE SMOOTH"
);
},
{
closed = 1;
nodes = (
"228 0 OFFCURVE",
"250 22 OFFCURVE",
"250 50 CURVE SMOOTH",
"250 78 OFFCURVE",
"228 100 OFFCURVE",
"200 100 CURVE SMOOTH",
"172 100 OFFCURVE",
"150 78 OFFCURVE",
"150 50 CURVE SMOOTH",
"150 22 OFFCURVE",
"172 0 OFFCURVE",
"200 0 CURVE SMOOTH"
);
},
{
closed = 1;
nodes = (
"328 0 OFFCURVE",
"350 22 OFFCURVE",
"350 50 CURVE SMOOTH",
"350 78 OFFCURVE",
"328 100 OFFCURVE",
"300 100 CURVE SMOOTH",
"272 100 OFFCURVE",
"250 78 OFFCURVE",
"250 50 CURVE SMOOTH",
"250 22 OFFCURVE",
"272 0 OFFCURVE",
"300 0 CURVE SMOOTH"
);
},
{
closed = 1;
nodes = (
"428 0 OFFCURVE",
"450 22 OFFCURVE",
"450 50 CURVE SMOOTH",
"450 78 OFFCURVE",
"428 100 OFFCURVE",
"400 100 CURVE SMOOTH",
"372 100 OFFCURVE",
"350 78 OFFCURVE",
"350 50 CURVE SMOOTH",
"350 22 OFFCURVE",
"372 0 OFFCURVE",
"400 0 CURVE SMOOTH"
);
},
{
closed = 1;
nodes = (
"528 0 OFFCURVE",
"550 22 OFFCURVE",
"550 50 CURVE SMOOTH",
"550 78 OFFCURVE",
"528 100 OFFCURVE",
"500 100 CURVE SMOOTH",
"472 100 OFFCURVE",
"450 78 OFFCURVE",
"450 50 CURVE SMOOTH",
"450 22 OFFCURVE",
"472 0 OFFCURVE",
"500 0 CURVE SMOOTH"
);
},
{
closed = 1;
nodes = (
"128 150 OFFCURVE",
"150 172 OFFCURVE",
"150 200 CURVE SMOOTH",
"150 228 OFFCURVE",
"128 250 OFFCURVE",
"100 250 CURVE SMOOTH",
"72 250 OFFCURVE",
"50 228 OFFCURVE",
"50 200 CURVE SMOOTH",
"50 172 OFFCURVE",
"72 150 OFFCURVE",
"100 150 CURVE SMOOTH"
);
},
{
closed = 1;
nodes = (
"128 300 OFFCURVE",
"150 322 OFFCURVE",
"150 350 CURVE SMOOTH",
"150 378 OFFCURVE",
"128 400 OFFCURVE",
"100 400 CURVE SMOOTH",
"72 400 OFFCURVE",
"50 378 OFFCURVE",
"50 350 CURVE SMOOTH",
"50 322 OFFCURVE",
"72 300 OFFCURVE",
"100 300 CURVE SMOOTH"
);
},
{
closed = 1;
nodes = (
"228 300 OFFCURVE",
"250 322 OFFCURVE",
"250 350 CURVE SMOOTH",
"250 378 OFFCURVE",
"228 400 OFFCURVE",
"200 400 CURVE SMOOTH",
"172 400 OFFCURVE",
"150 378 OFFCURVE",
"150 350 CURVE SMOOTH",
"150 322 OFFCURVE",
"172 300 OFFCURVE",
"200 300 CURVE SMOOTH"
);
},
{
closed = 1;
nodes = (
"328 300 OFFCURVE",
"350 322 OFFCURVE",
"350 350 CURVE SMOOTH",
"350 378 OFFCURVE",
"328 400 OFFCURVE",
"300 400 CURVE SMOOTH",
"272 400 OFFCURVE",
"250 378 OFFCURVE",
"250 350 CURVE SMOOTH",
"250 322 OFFCURVE",
"272 300 OFFCURVE",
"300 300 CURVE SMOOTH"
);
},
{
closed = 1;
nodes = (
"428 300 OFFCURVE",
"450 322 OFFCURVE",
"450 350 CURVE SMOOTH",
"450 378 OFFCURVE",
"428 400 OFFCURVE",
"400 400 CURVE SMOOTH",
"372 400 OFFCURVE",
"350 378 OFFCURVE",
"350 350 CURVE SMOOTH",
"350 322 OFFCURVE",
"372 300 OFFCURVE",
"400 300 CURVE SMOOTH"
);
},
{
closed = 1;
nodes = (
"128 450 OFFCURVE",
"150 472 OFFCURVE",
"150 500 CURVE SMOOTH",
"150 528 OFFCURVE",
"128 550 OFFCURVE",
"100 550 CURVE SMOOTH",
"72 550 OFFCURVE",
"50 528 OFFCURVE",
"50 500 CURVE SMOOTH",
"50 472 OFFCURVE",
"72 450 OFFCURVE",
"100 450 CURVE SMOOTH"
);
},
{
closed = 1;
nodes = (
"128 600 OFFCURVE",
"150 622 OFFCURVE",
"150 650 CURVE SMOOTH",
"150 678 OFFCURVE",
"128 700 OFFCURVE",
"100 700 CURVE SMOOTH",
"72 700 OFFCURVE",
"50 678 OFFCURVE",
"50 650 CURVE SMOOTH",
"50 622 OFFCURVE",
"72 600 OFFCURVE",
"100 600 CURVE SMOOTH"
);
},
{
closed = 1;
nodes = (
"228 600 OFFCURVE",
"250 622 OFFCURVE",
"250 650 CURVE SMOOTH",
"250 678 OFFCURVE",
"228 700 OFFCURVE",
"200 700 CURVE SMOOTH",
"172 700 OFFCURVE",
"150 678 OFFCURVE",
"150 650 CURVE SMOOTH",
"150 622 OFFCURVE",
"172 600 OFFCURVE",
"200 600 CURVE SMOOTH"
);
},
{
closed = 1;
nodes = (
"328 600 OFFCURVE",
"350 622 OFFCURVE",
"350 650 CURVE SMOOTH",
"350 678 OFFCURVE",
"328 700 OFFCURVE",
"300 700 CURVE SMOOTH",
"272 700 OFFCURVE",
"250 678 OFFCURVE",
"250 650 CURVE SMOOTH",
"250 622 OFFCURVE",
"272 600 OFFCURVE",
"300 600 CURVE SMOOTH"
);
},
{
closed = 1;
nodes = (
"428 600 OFFCURVE",
"450 622 OFFCURVE",
"450 650 CURVE SMOOTH",
"450 678 OFFCURVE",
"428 700 OFFCURVE",
"400 700 CURVE SMOOTH",
"372 700 OFFCURVE",
"350 678 OFFCURVE",
"350 650 CURVE SMOOTH",
"350 622 OFFCURVE",
"372 600 OFFCURVE",
"400 600 CURVE SMOOTH"
);
},
{
closed = 1;
nodes = (
"528 600 OFFCURVE",
"550 622 OFFCURVE",
"550 650 CURVE SMOOTH",
"550 678 OFFCURVE",
"528 700 OFFCURVE",
"500 700 CURVE SMOOTH",
"472 700 OFFCURVE",
"450 678 OFFCURVE",
"450 650 CURVE SMOOTH",
"450 622 OFFCURVE",
"472 600 OFFCURVE",
"500 600 CURVE SMOOTH"
);
}
);
width = 600;
}
);
unicode = 0045;
},
{
glyphname = F;
lastChange = "2024-11-22 08:45:31 +0000";
layers = (
{
layerId = "CAAE6B47-272D-418B-B8E9-730CC53AA9A0";
paths = (
{
closed = 1;
nodes = (
"128 0 OFFCURVE",
"150 22 OFFCURVE",
"150 50 CURVE SMOOTH",
"150 78 OFFCURVE",
"128 100 OFFCURVE",
"100 100 CURVE SMOOTH",
"72 100 OFFCURVE",
"50 78 OFFCURVE",
"50 50 CURVE SMOOTH",
"50 22 OFFCURVE",
"72 0 OFFCURVE",
"100 0 CURVE SMOOTH"
);
},
{
closed = 1;
nodes = (
"128 150 OFFCURVE",
"150 172 OFFCURVE",
"150 200 CURVE SMOOTH",
"150 228 OFFCURVE",
"128 250 OFFCURVE",
"100 250 CURVE SMOOTH",
"72 250 OFFCURVE",
"50 228 OFFCURVE",
"50 200 CURVE SMOOTH",
"50 172 OFFCURVE",
"72 150 OFFCURVE",
"100 150 CURVE SMOOTH"
);
},
{
closed = 1;
nodes = (
"128 300 OFFCURVE",
"150 322 OFFCURVE",
"150 350 CURVE SMOOTH",
"150 378 OFFCURVE",
"128 400 OFFCURVE",
"100 400 CURVE SMOOTH",
"72 400 OFFCURVE",
"50 378 OFFCURVE",
"50 350 CURVE SMOOTH",
"50 322 OFFCURVE",
"72 300 OFFCURVE",
"100 300 CURVE SMOOTH"
);
},
{
closed = 1;
nodes = (
"228 300 OFFCURVE",
"250 322 OFFCURVE",
"250 350 CURVE SMOOTH",
"250 378 OFFCURVE",
"228 400 OFFCURVE",
"200 400 CURVE SMOOTH",
"172 400 OFFCURVE",
"150 378 OFFCURVE",
"150 350 CURVE SMOOTH",
"150 322 OFFCURVE",
"172 300 OFFCURVE",
"200 300 CURVE SMOOTH"
);
},
{
closed = 1;
nodes = (
"328 300 OFFCURVE",
"350 322 OFFCURVE",
"350 350 CURVE SMOOTH",
"350 378 OFFCURVE",
"328 400 OFFCURVE",
"300 400 CURVE SMOOTH",
"272 400 OFFCURVE",
"250 378 OFFCURVE",
"250 350 CURVE SMOOTH",
"250 322 OFFCURVE",
"272 300 OFFCURVE",
"300 300 CURVE SMOOTH"
);
},
{
closed = 1;
nodes = (
"428 300 OFFCURVE",
"450 322 OFFCURVE",
"450 350 CURVE SMOOTH",
"450 378 OFFCURVE",
"428 400 OFFCURVE",
"400 400 CURVE SMOOTH",
"372 400 OFFCURVE",
"350 378 OFFCURVE",
"350 350 CURVE SMOOTH",
"350 322 OFFCURVE",
"372 300 OFFCURVE",
"400 300 CURVE SMOOTH"
);
},
{
closed = 1;
nodes = (
"128 450 OFFCURVE",
"150 472 OFFCURVE",
"150 500 CURVE SMOOTH",
"150 528 OFFCURVE",
"128 550 OFFCURVE",
"100 550 CURVE SMOOTH",
"72 550 OFFCURVE",
"50 528 OFFCURVE",
"50 500 CURVE SMOOTH",
"50 472 OFFCURVE",
"72 450 OFFCURVE",
"100 450 CURVE SMOOTH"
);
},
{
closed = 1;
nodes = (
"128 600 OFFCURVE",
"150 622 OFFCURVE",
"150 650 CURVE SMOOTH",
"150 678 OFFCURVE",
"128 700 OFFCURVE",
"100 700 CURVE SMOOTH",
"72 700 OFFCURVE",
"50 678 OFFCURVE",
"50 650 CURVE SMOOTH",
"50 622 OFFCURVE",
"72 600 OFFCURVE",
"100 600 CURVE SMOOTH"
);
},
{
closed = 1;
nodes = (
"228 600 OFFCURVE",
"250 622 OFFCURVE",
"250 650 CURVE SMOOTH",
"250 678 OFFCURVE",
"228 700 OFFCURVE",
"200 700 CURVE SMOOTH",
"172 700 OFFCURVE",
"150 678 OFFCURVE",
"150 650 CURVE SMOOTH",
"150 622 OFFCURVE",
"172 600 OFFCURVE",
"200 600 CURVE SMOOTH"
);
},
{
closed = 1;
nodes = (
"328 600 OFFCURVE",
"350 622 OFFCURVE",
"350 650 CURVE SMOOTH",
"350 678 OFFCURVE",
"328 700 OFFCURVE",
"300 700 CURVE SMOOTH",
"272 700 OFFCURVE",
"250 678 OFFCURVE",
"250 650 CURVE SMOOTH",
"250 622 OFFCURVE",
"272 600 OFFCURVE",
"300 600 CURVE SMOOTH"
);
},
{
closed = 1;
nodes = (
"428 600 OFFCURVE",
"450 622 OFFCURVE",
"450 650 CURVE SMOOTH",
"450 678 OFFCURVE",
"428 700 OFFCURVE",
"400 700 CURVE SMOOTH",
"372 700 OFFCURVE",
"350 678 OFFCURVE",
"350 650 CURVE SMOOTH",
"350 622 OFFCURVE",
"372 600 OFFCURVE",
"400 600 CURVE SMOOTH"
);
},
{
closed = 1;
nodes = (
"528 600 OFFCURVE",
"550 622 OFFCURVE",
"550 650 CURVE SMOOTH",
"550 678 OFFCURVE",
"528 700 OFFCURVE",
"500 700 CURVE SMOOTH",
"472 700 OFFCURVE",
"450 678 OFFCURVE",
"450 650 CURVE SMOOTH",
"450 622 OFFCURVE",
"472 600 OFFCURVE",
"500 600 CURVE SMOOTH"
);
}
);
width = 600;
}
);
unicode = 0046;
},
{
glyphname = G;
lastChange = "2024-11-22 08:45:29 +0000";
layers = (
{
anchors = (
{
name = bottom;
position = "{300, 0}";
},
{
name = top;
position = "{300, 700}";
}
);
layerId = "CAAE6B47-272D-418B-B8E9-730CC53AA9A0";
paths = (
{
closed = 1;
nodes = (
"228 0 OFFCURVE",
"250 22 OFFCURVE",
"250 50 CURVE SMOOTH",
"250 78 OFFCURVE",
"228 100 OFFCURVE",
"200 100 CURVE SMOOTH",
"172 100 OFFCURVE",
"150 78 OFFCURVE",
"150 50 CURVE SMOOTH",
"150 22 OFFCURVE",
"172 0 OFFCURVE",
"200 0 CURVE SMOOTH"
);
},
{
closed = 1;
nodes = (
"328 0 OFFCURVE",
"350 22 OFFCURVE",
"350 50 CURVE SMOOTH",
"350 78 OFFCURVE",
"328 100 OFFCURVE",
"300 100 CURVE SMOOTH",
"272 100 OFFCURVE",
"250 78 OFFCURVE",
"250 50 CURVE SMOOTH",
"250 22 OFFCURVE",
"272 0 OFFCURVE",
"300 0 CURVE SMOOTH"
);
},
{
closed = 1;
nodes = (
"428 0 OFFCURVE",
"450 22 OFFCURVE",
"450 50 CURVE SMOOTH",
"450 78 OFFCURVE",
"428 100 OFFCURVE",
"400 100 CURVE SMOOTH",
"372 100 OFFCURVE",
"350 78 OFFCURVE",
"350 50 CURVE SMOOTH",
"350 22 OFFCURVE",
"372 0 OFFCURVE",
"400 0 CURVE SMOOTH"
);
},
{
closed = 1;
nodes = (
"128 150 OFFCURVE",
"150 172 OFFCURVE",
"150 200 CURVE SMOOTH",
"150 228 OFFCURVE",
"128 250 OFFCURVE",
"100 250 CURVE SMOOTH",
"72 250 OFFCURVE",
"50 228 OFFCURVE",
"50 200 CURVE SMOOTH",
"50 172 OFFCURVE",
"72 150 OFFCURVE",
"100 150 CURVE SMOOTH"
);
},
{
closed = 1;
nodes = (
"528 150 OFFCURVE",
"550 172 OFFCURVE",
"550 200 CURVE SMOOTH",
"550 228 OFFCURVE",
"528 250 OFFCURVE",
"500 250 CURVE SMOOTH",
"472 250 OFFCURVE",
"450 228 OFFCURVE",
"450 200 CURVE SMOOTH",
"450 172 OFFCURVE",
"472 150 OFFCURVE",
"500 150 CURVE SMOOTH"
);
},
{
closed = 1;
nodes = (
"128 300 OFFCURVE",
"150 322 OFFCURVE",
"150 350 CURVE SMOOTH",
"150 378 OFFCURVE",
"128 400 OFFCURVE",
"100 400 CURVE SMOOTH",
"72 400 OFFCURVE",
"50 378 OFFCURVE",
"50 350 CURVE SMOOTH",
"50 322 OFFCURVE",
"72 300 OFFCURVE",
"100 300 CURVE SMOOTH"
);
},
{
closed = 1;
nodes = (
"328 300 OFFCURVE",
"350 322 OFFCURVE",
"350 350 CURVE SMOOTH",
"350 378 OFFCURVE",
"328 400 OFFCURVE",
"300 400 CURVE SMOOTH",
"272 400 OFFCURVE",
"250 378 OFFCURVE",
"250 350 CURVE SMOOTH",
"250 322 OFFCURVE",
"272 300 OFFCURVE",
"300 300 CURVE SMOOTH"
);
},
{
closed = 1;
nodes = (
"428 300 OFFCURVE",
"450 322 OFFCURVE",
"450 350 CURVE SMOOTH",
"450 378 OFFCURVE",
"428 400 OFFCURVE",
"400 400 CURVE SMOOTH",
"372 400 OFFCURVE",
"350 378 OFFCURVE",
"350 350 CURVE SMOOTH",
"350 322 OFFCURVE",
"372 300 OFFCURVE",
"400 300 CURVE SMOOTH"
);
},
{
closed = 1;
nodes = (
"528 300 OFFCURVE",
"550 322 OFFCURVE",
"550 350 CURVE SMOOTH",
"550 378 OFFCURVE",
"528 400 OFFCURVE",
"500 400 CURVE SMOOTH",
"472 400 OFFCURVE",
"450 378 OFFCURVE",
"450 350 CURVE SMOOTH",
"450 322 OFFCURVE",
"472 300 OFFCURVE",
"500 300 CURVE SMOOTH"
);
},
{
closed = 1;
nodes = (
"128 450 OFFCURVE",
"150 472 OFFCURVE",
"150 500 CURVE SMOOTH",
"150 528 OFFCURVE",
"128 550 OFFCURVE",
"100 550 CURVE SMOOTH",
"72 550 OFFCURVE",
"50 528 OFFCURVE",
"50 500 CURVE SMOOTH",
"50 472 OFFCURVE",
"72 450 OFFCURVE",
"100 450 CURVE SMOOTH"
);
},
{
closed = 1;
nodes = (
"228 600 OFFCURVE",
"250 622 OFFCURVE",
"250 650 CURVE SMOOTH",
"250 678 OFFCURVE",
"228 700 OFFCURVE",
"200 700 CURVE SMOOTH",
"172 700 OFFCURVE",
"150 678 OFFCURVE",
"150 650 CURVE SMOOTH",
"150 622 OFFCURVE",
"172 600 OFFCURVE",
"200 600 CURVE SMOOTH"
);
},
{
closed = 1;
nodes = (
"328 600 OFFCURVE",
"350 622 OFFCURVE",
"350 650 CURVE SMOOTH",
"350 678 OFFCURVE",
"328 700 OFFCURVE",
"300 700 CURVE SMOOTH",
"272 700 OFFCURVE",
"250 678 OFFCURVE",
"250 650 CURVE SMOOTH",
"250 622 OFFCURVE",
"272 600 OFFCURVE",
"300 600 CURVE SMOOTH"
);
},
{
closed = 1;
nodes = (
"428 600 OFFCURVE",
"450 622 OFFCURVE",
"450 650 CURVE SMOOTH",
"450 678 OFFCURVE",
"428 700 OFFCURVE",
"400 700 CURVE SMOOTH",
"372 700 OFFCURVE",
"350 678 OFFCURVE",
"350 650 CURVE SMOOTH",
"350 622 OFFCURVE",
"372 600 OFFCURVE",
"400 600 CURVE SMOOTH"
);
},
{
closed = 1;
nodes = (
"528 600 OFFCURVE",
"550 622 OFFCURVE",
"550 650 CURVE SMOOTH",
"550 678 OFFCURVE",
"528 700 OFFCURVE",
"500 700 CURVE SMOOTH",
"472 700 OFFCURVE",
"450 678 OFFCURVE",
"450 650 CURVE SMOOTH",
"450 622 OFFCURVE",
"472 600 OFFCURVE",
"500 600 CURVE SMOOTH"
);
}
);
width = 600;
}
);
unicode = 0047;
},
{
glyphname = H;
lastChange = "2024-11-22 08:45:29 +0000";
layers = (
{
anchors = (
{
name = bottom;
position = "{300, 0}";
},
{
name = center;
position = "{300, 500}";
},
{
name = top;
position = "{300, 700}";
},
{
name = topleft;
position = "{50, 700}";
}
);
layerId = "CAAE6B47-272D-418B-B8E9-730CC53AA9A0";
paths = (
{
closed = 1;
nodes = (
"128 0 OFFCURVE",
"150 22 OFFCURVE",
"150 50 CURVE SMOOTH",
"150 78 OFFCURVE",
"128 100 OFFCURVE",
"100 100 CURVE SMOOTH",
"72 100 OFFCURVE",
"50 78 OFFCURVE",
"50 50 CURVE SMOOTH",
"50 22 OFFCURVE",
"72 0 OFFCURVE",
"100 0 CURVE SMOOTH"
);
},
{
closed = 1;
nodes = (
"528 0 OFFCURVE",
"550 22 OFFCURVE",
"550 50 CURVE SMOOTH",
"550 78 OFFCURVE",
"528 100 OFFCURVE",
"500 100 CURVE SMOOTH",
"472 100 OFFCURVE",
"450 78 OFFCURVE",
"450 50 CURVE SMOOTH",
"450 22 OFFCURVE",
"472 0 OFFCURVE",
"500 0 CURVE SMOOTH"
);
},
{
closed = 1;
nodes = (
"128 150 OFFCURVE",
"150 172 OFFCURVE",
"150 200 CURVE SMOOTH",
"150 228 OFFCURVE",
"128 250 OFFCURVE",
"100 250 CURVE SMOOTH",
"72 250 OFFCURVE",
"50 228 OFFCURVE",
"50 200 CURVE SMOOTH",
"50 172 OFFCURVE",
"72 150 OFFCURVE",
"100 150 CURVE SMOOTH"
);
},
{
closed = 1;
nodes = (
"528 150 OFFCURVE",
"550 172 OFFCURVE",
"550 200 CURVE SMOOTH",
"550 228 OFFCURVE",
"528 250 OFFCURVE",
"500 250 CURVE SMOOTH",
"472 250 OFFCURVE",
"450 228 OFFCURVE",
"450 200 CURVE SMOOTH",
"450 172 OFFCURVE",
"472 150 OFFCURVE",
"500 150 CURVE SMOOTH"
);
},
{
closed = 1;
nodes = (
"128 300 OFFCURVE",
"150 322 OFFCURVE",
"150 350 CURVE SMOOTH",
"150 378 OFFCURVE",
"128 400 OFFCURVE",
"100 400 CURVE SMOOTH",
"72 400 OFFCURVE",
"50 378 OFFCURVE",
"50 350 CURVE SMOOTH",
"50 322 OFFCURVE",
"72 300 OFFCURVE",
"100 300 CURVE SMOOTH"
);
},
{
closed = 1;
nodes = (
"228 300 OFFCURVE",
"250 322 OFFCURVE",
"250 350 CURVE SMOOTH",
"250 378 OFFCURVE",
"228 400 OFFCURVE",
"200 400 CURVE SMOOTH",
"172 400 OFFCURVE",
"150 378 OFFCURVE",
"150 350 CURVE SMOOTH",
"150 322 OFFCURVE",
"172 300 OFFCURVE",
"200 300 CURVE SMOOTH"
);
},
{
closed = 1;
nodes = (
"328 300 OFFCURVE",
"350 322 OFFCURVE",
"350 350 CURVE SMOOTH",
"350 378 OFFCURVE",
"328 400 OFFCURVE",
"300 400 CURVE SMOOTH",
"272 400 OFFCURVE",
"250 378 OFFCURVE",
"250 350 CURVE SMOOTH",
"250 322 OFFCURVE",
"272 300 OFFCURVE",
"300 300 CURVE SMOOTH"
);
},
{
closed = 1;
nodes = (
"428 300 OFFCURVE",
"450 322 OFFCURVE",
"450 350 CURVE SMOOTH",
"450 378 OFFCURVE",
"428 400 OFFCURVE",
"400 400 CURVE SMOOTH",
"372 400 OFFCURVE",
"350 378 OFFCURVE",
"350 350 CURVE SMOOTH",
"350 322 OFFCURVE",
"372 300 OFFCURVE",
"400 300 CURVE SMOOTH"
);
},
{
closed = 1;
nodes = (
"528 300 OFFCURVE",
"550 322 OFFCURVE",
"550 350 CURVE SMOOTH",
"550 378 OFFCURVE",
"528 400 OFFCURVE",
"500 400 CURVE SMOOTH",
"472 400 OFFCURVE",
"450 378 OFFCURVE",
"450 350 CURVE SMOOTH",
"450 322 OFFCURVE",
"472 300 OFFCURVE",
"500 300 CURVE SMOOTH"
);
},
{
closed = 1;
nodes = (
"128 450 OFFCURVE",
"150 472 OFFCURVE",
"150 500 CURVE SMOOTH",
"150 528 OFFCURVE",
"128 550 OFFCURVE",
"100 550 CURVE SMOOTH",
"72 550 OFFCURVE",
"50 528 OFFCURVE",
"50 500 CURVE SMOOTH",
"50 472 OFFCURVE",
"72 450 OFFCURVE",
"100 450 CURVE SMOOTH"
);
},
{
closed = 1;
nodes = (
"528 450 OFFCURVE",
"550 472 OFFCURVE",
"550 500 CURVE SMOOTH",
"550 528 OFFCURVE",
"528 550 OFFCURVE",
"500 550 CURVE SMOOTH",
"472 550 OFFCURVE",
"450 528 OFFCURVE",
"450 500 CURVE SMOOTH",
"450 472 OFFCURVE",
"472 450 OFFCURVE",
"500 450 CURVE SMOOTH"
);
},
{
closed = 1;
nodes = (
"128 600 OFFCURVE",
"150 622 OFFCURVE",
"150 650 CURVE SMOOTH",
"150 678 OFFCURVE",
"128 700 OFFCURVE",
"100 700 CURVE SMOOTH",
"72 700 OFFCURVE",
"50 678 OFFCURVE",
"50 650 CURVE SMOOTH",
"50 622 OFFCURVE",
"72 600 OFFCURVE",
"100 600 CURVE SMOOTH"
);
},
{
closed = 1;
nodes = (
"528 600 OFFCURVE",
"550 622 OFFCURVE",
"550 650 CURVE SMOOTH",
"550 678 OFFCURVE",
"528 700 OFFCURVE",
"500 700 CURVE SMOOTH",
"472 700 OFFCURVE",
"450 678 OFFCURVE",
"450 650 CURVE SMOOTH",
"450 622 OFFCURVE",
"472 600 OFFCURVE",
"500 600 CURVE SMOOTH"
);
}
);
width = 600;
}
);
unicode = 0048;
},
{
glyphname = Hbar;
lastChange = "2024-10-07 08:10:13 +0000";
layers = (
{
anchors = (
{
name = bottom;
position = "{300, 0}";
},
{
name = center;
position = "{300, 500}";
},
{
name = top;
position = "{300, 700}";
},
{
name = topleft;
position = "{50, 700}";
}
);
components = (
{
alignment = -1;
name = strokelongcomb;
transform = "{1, 0, 0, 1, 0, 150}";
}
);
layerId = "CAAE6B47-272D-418B-B8E9-730CC53AA9A0";
paths = (
{
closed = 1;
nodes = (
"228 0 OFFCURVE",
"250 22 OFFCURVE",
"250 50 CURVE SMOOTH",
"250 78 OFFCURVE",
"228 100 OFFCURVE",
"200 100 CURVE SMOOTH",
"172 100 OFFCURVE",
"150 78 OFFCURVE",
"150 50 CURVE SMOOTH",
"150 22 OFFCURVE",
"172 0 OFFCURVE",
"200 0 CURVE SMOOTH"
);
},
{
closed = 1;
nodes = (
"428 0 OFFCURVE",
"450 22 OFFCURVE",
"450 50 CURVE SMOOTH",
"450 78 OFFCURVE",
"428 100 OFFCURVE",
"400 100 CURVE SMOOTH",
"372 100 OFFCURVE",
"350 78 OFFCURVE",
"350 50 CURVE SMOOTH",
"350 22 OFFCURVE",
"372 0 OFFCURVE",
"400 0 CURVE SMOOTH"
);
},
{
closed = 1;
nodes = (
"228 150 OFFCURVE",
"250 172 OFFCURVE",
"250 200 CURVE SMOOTH",
"250 228 OFFCURVE",
"228 250 OFFCURVE",
"200 250 CURVE SMOOTH",
"172 250 OFFCURVE",
"150 228 OFFCURVE",
"150 200 CURVE SMOOTH",
"150 172 OFFCURVE",
"172 150 OFFCURVE",
"200 150 CURVE SMOOTH"
);
},
{
closed = 1;
nodes = (
"428 150 OFFCURVE",
"450 172 OFFCURVE",
"450 200 CURVE SMOOTH",
"450 228 OFFCURVE",
"428 250 OFFCURVE",
"400 250 CURVE SMOOTH",
"372 250 OFFCURVE",
"350 228 OFFCURVE",
"350 200 CURVE SMOOTH",
"350 172 OFFCURVE",
"372 150 OFFCURVE",
"400 150 CURVE SMOOTH"
);
},
{
closed = 1;
nodes = (
"228 300 OFFCURVE",
"250 322 OFFCURVE",
"250 350 CURVE SMOOTH",
"250 378 OFFCURVE",
"228 400 OFFCURVE",
"200 400 CURVE SMOOTH",
"172 400 OFFCURVE",
"150 378 OFFCURVE",
"150 350 CURVE SMOOTH",
"150 322 OFFCURVE",
"172 300 OFFCURVE",
"200 300 CURVE SMOOTH"
);
},
{
closed = 1;
nodes = (
"328 300 OFFCURVE",
"350 322 OFFCURVE",
"350 350 CURVE SMOOTH",
"350 378 OFFCURVE",
"328 400 OFFCURVE",
"300 400 CURVE SMOOTH",
"272 400 OFFCURVE",
"250 378 OFFCURVE",
"250 350 CURVE SMOOTH",
"250 322 OFFCURVE",
"272 300 OFFCURVE",
"300 300 CURVE SMOOTH"
);
},
{
closed = 1;
nodes = (
"428 300 OFFCURVE",
"450 322 OFFCURVE",
"450 350 CURVE SMOOTH",
"450 378 OFFCURVE",
"428 400 OFFCURVE",
"400 400 CURVE SMOOTH",
"372 400 OFFCURVE",
"350 378 OFFCURVE",
"350 350 CURVE SMOOTH",
"350 322 OFFCURVE",
"372 300 OFFCURVE",
"400 300 CURVE SMOOTH"
);
},
{
closed = 1;
nodes = (
"228 450 OFFCURVE",
"250 472 OFFCURVE",
"250 500 CURVE SMOOTH",
"250 528 OFFCURVE",
"228 550 OFFCURVE",
"200 550 CURVE SMOOTH",
"172 550 OFFCURVE",
"150 528 OFFCURVE",
"150 500 CURVE SMOOTH",
"150 472 OFFCURVE",
"172 450 OFFCURVE",
"200 450 CURVE SMOOTH"
);
},
{
closed = 1;
nodes = (
"428 450 OFFCURVE",
"450 472 OFFCURVE",
"450 500 CURVE SMOOTH",
"450 528 OFFCURVE",
"428 550 OFFCURVE",
"400 550 CURVE SMOOTH",
"372 550 OFFCURVE",
"350 528 OFFCURVE",
"350 500 CURVE SMOOTH",
"350 472 OFFCURVE",
"372 450 OFFCURVE",
"400 450 CURVE SMOOTH"
);
},
{
closed = 1;
nodes = (
"228 600 OFFCURVE",
"250 622 OFFCURVE",
"250 650 CURVE SMOOTH",
"250 678 OFFCURVE",
"228 700 OFFCURVE",
"200 700 CURVE SMOOTH",
"172 700 OFFCURVE",
"150 678 OFFCURVE",
"150 650 CURVE SMOOTH",
"150 622 OFFCURVE",
"172 600 OFFCURVE",
"200 600 CURVE SMOOTH"
);
},
{
closed = 1;
nodes = (
"428 600 OFFCURVE",
"450 622 OFFCURVE",
"450 650 CURVE SMOOTH",
"450 678 OFFCURVE",
"428 700 OFFCURVE",
"400 700 CURVE SMOOTH",
"372 700 OFFCURVE",
"350 678 OFFCURVE",
"350 650 CURVE SMOOTH",
"350 622 OFFCURVE",
"372 600 OFFCURVE",
"400 600 CURVE SMOOTH"
);
}
);
width = 600;
}
);
unicode = 0126;
},
{
glyphname = I;
lastChange = "2024-11-22 08:45:30 +0000";
layers = (
{
anchors = (
{
name = bottom;
position = "{200, 0}";
},
{
name = ogonek;
position = "{350, 0}";
},
{
name = top;
position = "{200, 700}";
},
{
name = topleft;
position = "{50, 700}";
}
);
layerId = "CAAE6B47-272D-418B-B8E9-730CC53AA9A0";
paths = (
{
closed = 1;
nodes = (
"128 0 OFFCURVE",
"150 22 OFFCURVE",
"150 50 CURVE SMOOTH",
"150 78 OFFCURVE",
"128 100 OFFCURVE",
"100 100 CURVE SMOOTH",
"72 100 OFFCURVE",
"50 78 OFFCURVE",
"50 50 CURVE SMOOTH",
"50 22 OFFCURVE",
"72 0 OFFCURVE",
"100 0 CURVE SMOOTH"
);
},
{
closed = 1;
nodes = (
"228 0 OFFCURVE",
"250 22 OFFCURVE",
"250 50 CURVE SMOOTH",
"250 78 OFFCURVE",
"228 100 OFFCURVE",
"200 100 CURVE SMOOTH",
"172 100 OFFCURVE",
"150 78 OFFCURVE",
"150 50 CURVE SMOOTH",
"150 22 OFFCURVE",
"172 0 OFFCURVE",
"200 0 CURVE SMOOTH"
);
},
{
closed = 1;
nodes = (
"328 0 OFFCURVE",
"350 22 OFFCURVE",
"350 50 CURVE SMOOTH",
"350 78 OFFCURVE",
"328 100 OFFCURVE",
"300 100 CURVE SMOOTH",
"272 100 OFFCURVE",
"250 78 OFFCURVE",
"250 50 CURVE SMOOTH",
"250 22 OFFCURVE",
"272 0 OFFCURVE",
"300 0 CURVE SMOOTH"
);
},
{
closed = 1;
nodes = (
"228 150 OFFCURVE",
"250 172 OFFCURVE",
"250 200 CURVE SMOOTH",
"250 228 OFFCURVE",
"228 250 OFFCURVE",
"200 250 CURVE SMOOTH",
"172 250 OFFCURVE",
"150 228 OFFCURVE",
"150 200 CURVE SMOOTH",
"150 172 OFFCURVE",
"172 150 OFFCURVE",
"200 150 CURVE SMOOTH"
);
},
{
closed = 1;
nodes = (
"228 300 OFFCURVE",
"250 322 OFFCURVE",
"250 350 CURVE SMOOTH",
"250 378 OFFCURVE",
"228 400 OFFCURVE",
"200 400 CURVE SMOOTH",
"172 400 OFFCURVE",
"150 378 OFFCURVE",
"150 350 CURVE SMOOTH",
"150 322 OFFCURVE",
"172 300 OFFCURVE",
"200 300 CURVE SMOOTH"
);
},
{
closed = 1;
nodes = (
"228 450 OFFCURVE",
"250 472 OFFCURVE",
"250 500 CURVE SMOOTH",
"250 528 OFFCURVE",
"228 550 OFFCURVE",
"200 550 CURVE SMOOTH",
"172 550 OFFCURVE",
"150 528 OFFCURVE",
"150 500 CURVE SMOOTH",
"150 472 OFFCURVE",
"172 450 OFFCURVE",
"200 450 CURVE SMOOTH"
);
},
{
closed = 1;
nodes = (
"128 600 OFFCURVE",
"150 622 OFFCURVE",
"150 650 CURVE SMOOTH",
"150 678 OFFCURVE",
"128 700 OFFCURVE",
"100 700 CURVE SMOOTH",
"72 700 OFFCURVE",
"50 678 OFFCURVE",
"50 650 CURVE SMOOTH",
"50 622 OFFCURVE",
"72 600 OFFCURVE",
"100 600 CURVE SMOOTH"
);
},
{
closed = 1;
nodes = (
"228 600 OFFCURVE",
"250 622 OFFCURVE",
"250 650 CURVE SMOOTH",
"250 678 OFFCURVE",
"228 700 OFFCURVE",
"200 700 CURVE SMOOTH",
"172 700 OFFCURVE",
"150 678 OFFCURVE",
"150 650 CURVE SMOOTH",
"150 622 OFFCURVE",
"172 600 OFFCURVE",
"200 600 CURVE SMOOTH"
);
},
{
closed = 1;
nodes = (
"328 600 OFFCURVE",
"350 622 OFFCURVE",
"350 650 CURVE SMOOTH",
"350 678 OFFCURVE",
"328 700 OFFCURVE",
"300 700 CURVE SMOOTH",
"272 700 OFFCURVE",
"250 678 OFFCURVE",
"250 650 CURVE SMOOTH",
"250 622 OFFCURVE",
"272 600 OFFCURVE",
"300 600 CURVE SMOOTH"
);
}
);
width = 400;
}
);
unicode = 0049;
},
{
glyphname = J;
lastChange = "2024-11-22 08:45:31 +0000";
layers = (
{
layerId = "CAAE6B47-272D-418B-B8E9-730CC53AA9A0";
paths = (
{
closed = 1;
nodes = (
"228 0 OFFCURVE",
"250 22 OFFCURVE",
"250 50 CURVE SMOOTH",
"250 78 OFFCURVE",
"228 100 OFFCURVE",
"200 100 CURVE SMOOTH",
"172 100 OFFCURVE",
"150 78 OFFCURVE",
"150 50 CURVE SMOOTH",
"150 22 OFFCURVE",
"172 0 OFFCURVE",
"200 0 CURVE SMOOTH"
);
},
{
closed = 1;
nodes = (
"328 0 OFFCURVE",
"350 22 OFFCURVE",
"350 50 CURVE SMOOTH",
"350 78 OFFCURVE",
"328 100 OFFCURVE",
"300 100 CURVE SMOOTH",
"272 100 OFFCURVE",
"250 78 OFFCURVE",
"250 50 CURVE SMOOTH",
"250 22 OFFCURVE",
"272 0 OFFCURVE",
"300 0 CURVE SMOOTH"
);
},
{
closed = 1;
nodes = (
"428 0 OFFCURVE",
"450 22 OFFCURVE",
"450 50 CURVE SMOOTH",
"450 78 OFFCURVE",
"428 100 OFFCURVE",
"400 100 CURVE SMOOTH",
"372 100 OFFCURVE",
"350 78 OFFCURVE",
"350 50 CURVE SMOOTH",
"350 22 OFFCURVE",
"372 0 OFFCURVE",
"400 0 CURVE SMOOTH"
);
},
{
closed = 1;
nodes = (
"128 150 OFFCURVE",
"150 172 OFFCURVE",
"150 200 CURVE SMOOTH",
"150 228 OFFCURVE",
"128 250 OFFCURVE",
"100 250 CURVE SMOOTH",
"72 250 OFFCURVE",
"50 228 OFFCURVE",
"50 200 CURVE SMOOTH",
"50 172 OFFCURVE",
"72 150 OFFCURVE",
"100 150 CURVE SMOOTH"
);
},
{
closed = 1;
nodes = (
"528 150 OFFCURVE",
"550 172 OFFCURVE",
"550 200 CURVE SMOOTH",
"550 228 OFFCURVE",
"528 250 OFFCURVE",
"500 250 CURVE SMOOTH",
"472 250 OFFCURVE",
"450 228 OFFCURVE",
"450 200 CURVE SMOOTH",
"450 172 OFFCURVE",
"472 150 OFFCURVE",
"500 150 CURVE SMOOTH"
);
},
{
closed = 1;
nodes = (
"528 300 OFFCURVE",
"550 322 OFFCURVE",
"550 350 CURVE SMOOTH",
"550 378 OFFCURVE",
"528 400 OFFCURVE",
"500 400 CURVE SMOOTH",
"472 400 OFFCURVE",
"450 378 OFFCURVE",
"450 350 CURVE SMOOTH",
"450 322 OFFCURVE",
"472 300 OFFCURVE",
"500 300 CURVE SMOOTH"
);
},
{
closed = 1;
nodes = (
"528 450 OFFCURVE",
"550 472 OFFCURVE",
"550 500 CURVE SMOOTH",
"550 528 OFFCURVE",
"528 550 OFFCURVE",
"500 550 CURVE SMOOTH",
"472 550 OFFCURVE",
"450 528 OFFCURVE",
"450 500 CURVE SMOOTH",
"450 472 OFFCURVE",
"472 450 OFFCURVE",
"500 450 CURVE SMOOTH"
);
},
{
closed = 1;
nodes = (
"528 600 OFFCURVE",
"550 622 OFFCURVE",
"550 650 CURVE SMOOTH",
"550 678 OFFCURVE",
"528 700 OFFCURVE",
"500 700 CURVE SMOOTH",
"472 700 OFFCURVE",
"450 678 OFFCURVE",
"450 650 CURVE SMOOTH",
"450 622 OFFCURVE",
"472 600 OFFCURVE",
"500 600 CURVE SMOOTH"
);
}
);
width = 600;
}
);
unicode = 004A;
},
{
glyphname = K;
lastChange = "2024-11-22 08:45:30 +0000";
layers = (
{
anchors = (
{
name = bottom;
position = "{300, 0}";
},
{
name = top;
position = "{300, 700}";
}
);
layerId = "CAAE6B47-272D-418B-B8E9-730CC53AA9A0";
paths = (
{
closed = 1;
nodes = (
"128 0 OFFCURVE",
"150 22 OFFCURVE",
"150 50 CURVE SMOOTH",
"150 78 OFFCURVE",
"128 100 OFFCURVE",
"100 100 CURVE SMOOTH",
"72 100 OFFCURVE",
"50 78 OFFCURVE",
"50 50 CURVE SMOOTH",
"50 22 OFFCURVE",
"72 0 OFFCURVE",
"100 0 CURVE SMOOTH"
);
},
{
closed = 1;
nodes = (
"528 0 OFFCURVE",
"550 22 OFFCURVE",
"550 50 CURVE SMOOTH",
"550 78 OFFCURVE",
"528 100 OFFCURVE",
"500 100 CURVE SMOOTH",
"472 100 OFFCURVE",
"450 78 OFFCURVE",
"450 50 CURVE SMOOTH",
"450 22 OFFCURVE",
"472 0 OFFCURVE",
"500 0 CURVE SMOOTH"
);
},
{
closed = 1;
nodes = (
"128 150 OFFCURVE",
"150 172 OFFCURVE",
"150 200 CURVE SMOOTH",
"150 228 OFFCURVE",
"128 250 OFFCURVE",
"100 250 CURVE SMOOTH",
"72 250 OFFCURVE",
"50 228 OFFCURVE",
"50 200 CURVE SMOOTH",
"50 172 OFFCURVE",
"72 150 OFFCURVE",
"100 150 CURVE SMOOTH"
);
},
{
closed = 1;
nodes = (
"428 150 OFFCURVE",
"450 172 OFFCURVE",
"450 200 CURVE SMOOTH",
"450 228 OFFCURVE",
"428 250 OFFCURVE",
"400 250 CURVE SMOOTH",
"372 250 OFFCURVE",
"350 228 OFFCURVE",
"350 200 CURVE SMOOTH",
"350 172 OFFCURVE",
"372 150 OFFCURVE",
"400 150 CURVE SMOOTH"
);
},
{
closed = 1;
nodes = (
"128 300 OFFCURVE",
"150 322 OFFCURVE",
"150 350 CURVE SMOOTH",
"150 378 OFFCURVE",
"128 400 OFFCURVE",
"100 400 CURVE SMOOTH",
"72 400 OFFCURVE",
"50 378 OFFCURVE",
"50 350 CURVE SMOOTH",
"50 322 OFFCURVE",
"72 300 OFFCURVE",
"100 300 CURVE SMOOTH"
);
},
{
closed = 1;
nodes = (
"228 150 OFFCURVE",
"250 172 OFFCURVE",
"250 200 CURVE SMOOTH",
"250 228 OFFCURVE",
"228 250 OFFCURVE",
"200 250 CURVE SMOOTH",
"172 250 OFFCURVE",
"150 228 OFFCURVE",
"150 200 CURVE SMOOTH",
"150 172 OFFCURVE",
"172 150 OFFCURVE",
"200 150 CURVE SMOOTH"
);
},
{
closed = 1;
nodes = (
"328 300 OFFCURVE",
"350 322 OFFCURVE",
"350 350 CURVE SMOOTH",
"350 378 OFFCURVE",
"328 400 OFFCURVE",
"300 400 CURVE SMOOTH",
"272 400 OFFCURVE",
"250 378 OFFCURVE",
"250 350 CURVE SMOOTH",
"250 322 OFFCURVE",
"272 300 OFFCURVE",
"300 300 CURVE SMOOTH"
);
},
{
closed = 1;
nodes = (
"128 450 OFFCURVE",
"150 472 OFFCURVE",
"150 500 CURVE SMOOTH",
"150 528 OFFCURVE",
"128 550 OFFCURVE",
"100 550 CURVE SMOOTH",
"72 550 OFFCURVE",
"50 528 OFFCURVE",
"50 500 CURVE SMOOTH",
"50 472 OFFCURVE",
"72 450 OFFCURVE",
"100 450 CURVE SMOOTH"
);
},
{
closed = 1;
nodes = (
"428 450 OFFCURVE",
"450 472 OFFCURVE",
"450 500 CURVE SMOOTH",
"450 528 OFFCURVE",
"428 550 OFFCURVE",
"400 550 CURVE SMOOTH",
"372 550 OFFCURVE",
"350 528 OFFCURVE",
"350 500 CURVE SMOOTH",
"350 472 OFFCURVE",
"372 450 OFFCURVE",
"400 450 CURVE SMOOTH"
);
},
{
closed = 1;
nodes = (
"128 600 OFFCURVE",
"150 622 OFFCURVE",
"150 650 CURVE SMOOTH",
"150 678 OFFCURVE",
"128 700 OFFCURVE",
"100 700 CURVE SMOOTH",
"72 700 OFFCURVE",
"50 678 OFFCURVE",
"50 650 CURVE SMOOTH",
"50 622 OFFCURVE",
"72 600 OFFCURVE",
"100 600 CURVE SMOOTH"
);
},
{
closed = 1;
nodes = (
"528 600 OFFCURVE",
"550 622 OFFCURVE",
"550 650 CURVE SMOOTH",
"550 678 OFFCURVE",
"528 700 OFFCURVE",
"500 700 CURVE SMOOTH",
"472 700 OFFCURVE",
"450 678 OFFCURVE",
"450 650 CURVE SMOOTH",
"450 622 OFFCURVE",
"472 600 OFFCURVE",
"500 600 CURVE SMOOTH"
);
}
);
width = 600;
}
);
unicode = 004B;
},
{
glyphname = L;
lastChange = "2024-11-22 08:45:30 +0000";
layers = (
{
anchors = (
{
name = bottom;
position = "{300, 0}";
},
{
name = center;
position = "{300, 350}";
},
{
name = top;
position = "{300, 700}";
},
{
name = topright;
position = "{550, 700}";
}
);
layerId = "CAAE6B47-272D-418B-B8E9-730CC53AA9A0";
paths = (
{
closed = 1;
nodes = (
"128 0 OFFCURVE",
"150 22 OFFCURVE",
"150 50 CURVE SMOOTH",
"150 78 OFFCURVE",
"128 100 OFFCURVE",
"100 100 CURVE SMOOTH",
"72 100 OFFCURVE",
"50 78 OFFCURVE",
"50 50 CURVE SMOOTH",
"50 22 OFFCURVE",
"72 0 OFFCURVE",
"100 0 CURVE SMOOTH"
);
},
{
closed = 1;
nodes = (
"228 0 OFFCURVE",
"250 22 OFFCURVE",
"250 50 CURVE SMOOTH",
"250 78 OFFCURVE",
"228 100 OFFCURVE",
"200 100 CURVE SMOOTH",
"172 100 OFFCURVE",
"150 78 OFFCURVE",
"150 50 CURVE SMOOTH",
"150 22 OFFCURVE",
"172 0 OFFCURVE",
"200 0 CURVE SMOOTH"
);
},
{
closed = 1;
nodes = (
"328 0 OFFCURVE",
"350 22 OFFCURVE",
"350 50 CURVE SMOOTH",
"350 78 OFFCURVE",
"328 100 OFFCURVE",
"300 100 CURVE SMOOTH",
"272 100 OFFCURVE",
"250 78 OFFCURVE",
"250 50 CURVE SMOOTH",
"250 22 OFFCURVE",
"272 0 OFFCURVE",
"300 0 CURVE SMOOTH"
);
},
{
closed = 1;
nodes = (
"428 0 OFFCURVE",
"450 22 OFFCURVE",
"450 50 CURVE SMOOTH",
"450 78 OFFCURVE",
"428 100 OFFCURVE",
"400 100 CURVE SMOOTH",
"372 100 OFFCURVE",
"350 78 OFFCURVE",
"350 50 CURVE SMOOTH",
"350 22 OFFCURVE",
"372 0 OFFCURVE",
"400 0 CURVE SMOOTH"
);
},
{
closed = 1;
nodes = (
"528 0 OFFCURVE",
"550 22 OFFCURVE",
"550 50 CURVE SMOOTH",
"550 78 OFFCURVE",
"528 100 OFFCURVE",
"500 100 CURVE SMOOTH",
"472 100 OFFCURVE",
"450 78 OFFCURVE",
"450 50 CURVE SMOOTH",
"450 22 OFFCURVE",
"472 0 OFFCURVE",
"500 0 CURVE SMOOTH"
);
},
{
closed = 1;
nodes = (
"128 150 OFFCURVE",
"150 172 OFFCURVE",
"150 200 CURVE SMOOTH",
"150 228 OFFCURVE",
"128 250 OFFCURVE",
"100 250 CURVE SMOOTH",
"72 250 OFFCURVE",
"50 228 OFFCURVE",
"50 200 CURVE SMOOTH",
"50 172 OFFCURVE",
"72 150 OFFCURVE",
"100 150 CURVE SMOOTH"
);
},
{
closed = 1;
nodes = (
"128 300 OFFCURVE",
"150 322 OFFCURVE",
"150 350 CURVE SMOOTH",
"150 378 OFFCURVE",
"128 400 OFFCURVE",
"100 400 CURVE SMOOTH",
"72 400 OFFCURVE",
"50 378 OFFCURVE",
"50 350 CURVE SMOOTH",
"50 322 OFFCURVE",
"72 300 OFFCURVE",
"100 300 CURVE SMOOTH"
);
},
{
closed = 1;
nodes = (
"128 450 OFFCURVE",
"150 472 OFFCURVE",
"150 500 CURVE SMOOTH",
"150 528 OFFCURVE",
"128 550 OFFCURVE",
"100 550 CURVE SMOOTH",
"72 550 OFFCURVE",
"50 528 OFFCURVE",
"50 500 CURVE SMOOTH",
"50 472 OFFCURVE",
"72 450 OFFCURVE",
"100 450 CURVE SMOOTH"
);
},
{
closed = 1;
nodes = (
"128 600 OFFCURVE",
"150 622 OFFCURVE",
"150 650 CURVE SMOOTH",
"150 678 OFFCURVE",
"128 700 OFFCURVE",
"100 700 CURVE SMOOTH",
"72 700 OFFCURVE",
"50 678 OFFCURVE",
"50 650 CURVE SMOOTH",
"50 622 OFFCURVE",
"72 600 OFFCURVE",
"100 600 CURVE SMOOTH"
);
}
);
width = 600;
}
);
unicode = 004C;
},
{
glyphname = Lslash;
lastChange = "2024-10-07 08:08:16 +0000";
layers = (
{
anchors = (
{
name = _center;
position = "{100, 350}";
},
{
name = bottom;
position = "{300, 0}";
},
{
name = center;
position = "{300, 350}";
},
{
name = top;
position = "{300, 700}";
},
{
name = topright;
position = "{550, 700}";
}
);
layerId = "CAAE6B47-272D-418B-B8E9-730CC53AA9A0";
paths = (
{
closed = 1;
nodes = (
"128 150 OFFCURVE",
"150 172 OFFCURVE",
"150 200 CURVE SMOOTH",
"150 228 OFFCURVE",
"128 250 OFFCURVE",
"100 250 CURVE SMOOTH",
"72 250 OFFCURVE",
"50 228 OFFCURVE",
"50 200 CURVE SMOOTH",
"50 172 OFFCURVE",
"72 150 OFFCURVE",
"100 150 CURVE SMOOTH"
);
},
{
closed = 1;
nodes = (
"228 300 OFFCURVE",
"250 322 OFFCURVE",
"250 350 CURVE SMOOTH",
"250 378 OFFCURVE",
"228 400 OFFCURVE",
"200 400 CURVE SMOOTH",
"172 400 OFFCURVE",
"150 378 OFFCURVE",
"150 350 CURVE SMOOTH",
"150 322 OFFCURVE",
"172 300 OFFCURVE",
"200 300 CURVE SMOOTH"
);
},
{
closed = 1;
nodes = (
"328 450 OFFCURVE",
"350 472 OFFCURVE",
"350 500 CURVE SMOOTH",
"350 528 OFFCURVE",
"328 550 OFFCURVE",
"300 550 CURVE SMOOTH",
"272 550 OFFCURVE",
"250 528 OFFCURVE",
"250 500 CURVE SMOOTH",
"250 472 OFFCURVE",
"272 450 OFFCURVE",
"300 450 CURVE SMOOTH"
);
},
{
closed = 1;
nodes = (
"428 600 OFFCURVE",
"450 622 OFFCURVE",
"450 650 CURVE SMOOTH",
"450 678 OFFCURVE",
"428 700 OFFCURVE",
"400 700 CURVE SMOOTH",
"372 700 OFFCURVE",
"350 678 OFFCURVE",
"350 650 CURVE SMOOTH",
"350 622 OFFCURVE",
"372 600 OFFCURVE",
"400 600 CURVE SMOOTH"
);
},
{
closed = 1;
nodes = (
"228 0 OFFCURVE",
"250 22 OFFCURVE",
"250 50 CURVE SMOOTH",
"250 78 OFFCURVE",
"228 100 OFFCURVE",
"200 100 CURVE SMOOTH",
"172 100 OFFCURVE",
"150 78 OFFCURVE",
"150 50 CURVE SMOOTH",
"150 22 OFFCURVE",
"172 0 OFFCURVE",
"200 0 CURVE SMOOTH"
);
},
{
closed = 1;
nodes = (
"328 0 OFFCURVE",
"350 22 OFFCURVE",
"350 50 CURVE SMOOTH",
"350 78 OFFCURVE",
"328 100 OFFCURVE",
"300 100 CURVE SMOOTH",
"272 100 OFFCURVE",
"250 78 OFFCURVE",
"250 50 CURVE SMOOTH",
"250 22 OFFCURVE",
"272 0 OFFCURVE",
"300 0 CURVE SMOOTH"
);
},
{
closed = 1;
nodes = (
"428 0 OFFCURVE",
"450 22 OFFCURVE",
"450 50 CURVE SMOOTH",
"450 78 OFFCURVE",
"428 100 OFFCURVE",
"400 100 CURVE SMOOTH",
"372 100 OFFCURVE",
"350 78 OFFCURVE",
"350 50 CURVE SMOOTH",
"350 22 OFFCURVE",
"372 0 OFFCURVE",
"400 0 CURVE SMOOTH"
);
},
{
closed = 1;
nodes = (
"528 0 OFFCURVE",
"550 22 OFFCURVE",
"550 50 CURVE SMOOTH",
"550 78 OFFCURVE",
"528 100 OFFCURVE",
"500 100 CURVE SMOOTH",
"472 100 OFFCURVE",
"450 78 OFFCURVE",
"450 50 CURVE SMOOTH",
"450 22 OFFCURVE",
"472 0 OFFCURVE",
"500 0 CURVE SMOOTH"
);
},
{
closed = 1;
nodes = (
"228 150 OFFCURVE",
"250 172 OFFCURVE",
"250 200 CURVE SMOOTH",
"250 228 OFFCURVE",
"228 250 OFFCURVE",
"200 250 CURVE SMOOTH",
"172 250 OFFCURVE",
"150 228 OFFCURVE",
"150 200 CURVE SMOOTH",
"150 172 OFFCURVE",
"172 150 OFFCURVE",
"200 150 CURVE SMOOTH"
);
},
{
closed = 1;
nodes = (
"228 300 OFFCURVE",
"250 322 OFFCURVE",
"250 350 CURVE SMOOTH",
"250 378 OFFCURVE",
"228 400 OFFCURVE",
"200 400 CURVE SMOOTH",
"172 400 OFFCURVE",
"150 378 OFFCURVE",
"150 350 CURVE SMOOTH",
"150 322 OFFCURVE",
"172 300 OFFCURVE",
"200 300 CURVE SMOOTH"
);
},
{
closed = 1;
nodes = (
"228 450 OFFCURVE",
"250 472 OFFCURVE",
"250 500 CURVE SMOOTH",
"250 528 OFFCURVE",
"228 550 OFFCURVE",
"200 550 CURVE SMOOTH",
"172 550 OFFCURVE",
"150 528 OFFCURVE",
"150 500 CURVE SMOOTH",
"150 472 OFFCURVE",
"172 450 OFFCURVE",
"200 450 CURVE SMOOTH"
);
},
{
closed = 1;
nodes = (
"228 600 OFFCURVE",
"250 622 OFFCURVE",
"250 650 CURVE SMOOTH",
"250 678 OFFCURVE",
"228 700 OFFCURVE",
"200 700 CURVE SMOOTH",
"172 700 OFFCURVE",
"150 678 OFFCURVE",
"150 650 CURVE SMOOTH",
"150 622 OFFCURVE",
"172 600 OFFCURVE",
"200 600 CURVE SMOOTH"
);
}
);
width = 600;
}
);
unicode = 0141;
},
{
glyphname = M;
lastChange = "2024-11-22 08:45:31 +0000";
layers = (
{
layerId = "CAAE6B47-272D-418B-B8E9-730CC53AA9A0";
paths = (
{
closed = 1;
nodes = (
"128 0 OFFCURVE",
"150 22 OFFCURVE",
"150 50 CURVE SMOOTH",
"150 78 OFFCURVE",
"128 100 OFFCURVE",
"100 100 CURVE SMOOTH",
"72 100 OFFCURVE",
"50 78 OFFCURVE",
"50 50 CURVE SMOOTH",
"50 22 OFFCURVE",
"72 0 OFFCURVE",
"100 0 CURVE SMOOTH"
);
},
{
closed = 1;
nodes = (
"528 0 OFFCURVE",
"550 22 OFFCURVE",
"550 50 CURVE SMOOTH",
"550 78 OFFCURVE",
"528 100 OFFCURVE",
"500 100 CURVE SMOOTH",
"472 100 OFFCURVE",
"450 78 OFFCURVE",
"450 50 CURVE SMOOTH",
"450 22 OFFCURVE",
"472 0 OFFCURVE",
"500 0 CURVE SMOOTH"
);
},
{
closed = 1;
nodes = (
"128 150 OFFCURVE",
"150 172 OFFCURVE",
"150 200 CURVE SMOOTH",
"150 228 OFFCURVE",
"128 250 OFFCURVE",
"100 250 CURVE SMOOTH",
"72 250 OFFCURVE",
"50 228 OFFCURVE",
"50 200 CURVE SMOOTH",
"50 172 OFFCURVE",
"72 150 OFFCURVE",
"100 150 CURVE SMOOTH"
);
},
{
closed = 1;
nodes = (
"528 150 OFFCURVE",
"550 172 OFFCURVE",
"550 200 CURVE SMOOTH",
"550 228 OFFCURVE",
"528 250 OFFCURVE",
"500 250 CURVE SMOOTH",
"472 250 OFFCURVE",
"450 228 OFFCURVE",
"450 200 CURVE SMOOTH",
"450 172 OFFCURVE",
"472 150 OFFCURVE",
"500 150 CURVE SMOOTH"
);
},
{
closed = 1;
nodes = (
"128 300 OFFCURVE",
"150 322 OFFCURVE",
"150 350 CURVE SMOOTH",
"150 378 OFFCURVE",
"128 400 OFFCURVE",
"100 400 CURVE SMOOTH",
"72 400 OFFCURVE",
"50 378 OFFCURVE",
"50 350 CURVE SMOOTH",
"50 322 OFFCURVE",
"72 300 OFFCURVE",
"100 300 CURVE SMOOTH"
);
},
{
closed = 1;
nodes = (
"328 300 OFFCURVE",
"350 322 OFFCURVE",
"350 350 CURVE SMOOTH",
"350 378 OFFCURVE",
"328 400 OFFCURVE",
"300 400 CURVE SMOOTH",
"272 400 OFFCURVE",
"250 378 OFFCURVE",
"250 350 CURVE SMOOTH",
"250 322 OFFCURVE",
"272 300 OFFCURVE",
"300 300 CURVE SMOOTH"
);
},
{
closed = 1;
nodes = (
"528 300 OFFCURVE",
"550 322 OFFCURVE",
"550 350 CURVE SMOOTH",
"550 378 OFFCURVE",
"528 400 OFFCURVE",
"500 400 CURVE SMOOTH",
"472 400 OFFCURVE",
"450 378 OFFCURVE",
"450 350 CURVE SMOOTH",
"450 322 OFFCURVE",
"472 300 OFFCURVE",
"500 300 CURVE SMOOTH"
);
},
{
closed = 1;
nodes = (
"128 450 OFFCURVE",
"150 472 OFFCURVE",
"150 500 CURVE SMOOTH",
"150 528 OFFCURVE",
"128 550 OFFCURVE",
"100 550 CURVE SMOOTH",
"72 550 OFFCURVE",
"50 528 OFFCURVE",
"50 500 CURVE SMOOTH",
"50 472 OFFCURVE",
"72 450 OFFCURVE",
"100 450 CURVE SMOOTH"
);
},
{
closed = 1;
nodes = (
"228 450 OFFCURVE",
"250 472 OFFCURVE",
"250 500 CURVE SMOOTH",
"250 528 OFFCURVE",
"228 550 OFFCURVE",
"200 550 CURVE SMOOTH",
"172 550 OFFCURVE",
"150 528 OFFCURVE",
"150 500 CURVE SMOOTH",
"150 472 OFFCURVE",
"172 450 OFFCURVE",
"200 450 CURVE SMOOTH"
);
},
{
closed = 1;
nodes = (
"428 450 OFFCURVE",
"450 472 OFFCURVE",
"450 500 CURVE SMOOTH",
"450 528 OFFCURVE",
"428 550 OFFCURVE",
"400 550 CURVE SMOOTH",
"372 550 OFFCURVE",
"350 528 OFFCURVE",
"350 500 CURVE SMOOTH",
"350 472 OFFCURVE",
"372 450 OFFCURVE",
"400 450 CURVE SMOOTH"
);
},
{
closed = 1;
nodes = (
"528 450 OFFCURVE",
"550 472 OFFCURVE",
"550 500 CURVE SMOOTH",
"550 528 OFFCURVE",
"528 550 OFFCURVE",
"500 550 CURVE SMOOTH",
"472 550 OFFCURVE",
"450 528 OFFCURVE",
"450 500 CURVE SMOOTH",
"450 472 OFFCURVE",
"472 450 OFFCURVE",
"500 450 CURVE SMOOTH"
);
},
{
closed = 1;
nodes = (
"128 600 OFFCURVE",
"150 622 OFFCURVE",
"150 650 CURVE SMOOTH",
"150 678 OFFCURVE",
"128 700 OFFCURVE",
"100 700 CURVE SMOOTH",
"72 700 OFFCURVE",
"50 678 OFFCURVE",
"50 650 CURVE SMOOTH",
"50 622 OFFCURVE",
"72 600 OFFCURVE",
"100 600 CURVE SMOOTH"
);
},
{
closed = 1;
nodes = (
"528 600 OFFCURVE",
"550 622 OFFCURVE",
"550 650 CURVE SMOOTH",
"550 678 OFFCURVE",
"528 700 OFFCURVE",
"500 700 CURVE SMOOTH",
"472 700 OFFCURVE",
"450 678 OFFCURVE",
"450 650 CURVE SMOOTH",
"450 622 OFFCURVE",
"472 600 OFFCURVE",
"500 600 CURVE SMOOTH"
);
}
);
width = 600;
}
);
unicode = 004D;
},
{
glyphname = N;
lastChange = "2024-09-28 14:04:23 +0000";
layers = (
{
anchors = (
{
name = bottom;
position = "{300, 0}";
},
{
name = top;
position = "{300, 700}";
}
);
layerId = "CAAE6B47-272D-418B-B8E9-730CC53AA9A0";
paths = (
{
closed = 1;
nodes = (
"128 0 OFFCURVE",
"150 22 OFFCURVE",
"150 50 CURVE SMOOTH",
"150 78 OFFCURVE",
"128 100 OFFCURVE",
"100 100 CURVE SMOOTH",
"72 100 OFFCURVE",
"50 78 OFFCURVE",
"50 50 CURVE SMOOTH",
"50 22 OFFCURVE",
"72 0 OFFCURVE",
"100 0 CURVE SMOOTH"
);
},
{
closed = 1;
nodes = (
"528 0 OFFCURVE",
"550 22 OFFCURVE",
"550 50 CURVE SMOOTH",
"550 78 OFFCURVE",
"528 100 OFFCURVE",
"500 100 CURVE SMOOTH",
"472 100 OFFCURVE",
"450 78 OFFCURVE",
"450 50 CURVE SMOOTH",
"450 22 OFFCURVE",
"472 0 OFFCURVE",
"500 0 CURVE SMOOTH"
);
},
{
closed = 1;
nodes = (
"128 150 OFFCURVE",
"150 172 OFFCURVE",
"150 200 CURVE SMOOTH",
"150 228 OFFCURVE",
"128 250 OFFCURVE",
"100 250 CURVE SMOOTH",
"72 250 OFFCURVE",
"50 228 OFFCURVE",
"50 200 CURVE SMOOTH",
"50 172 OFFCURVE",
"72 150 OFFCURVE",
"100 150 CURVE SMOOTH"
);
},
{
closed = 1;
nodes = (
"428 150 OFFCURVE",
"450 172 OFFCURVE",
"450 200 CURVE SMOOTH",
"450 228 OFFCURVE",
"428 250 OFFCURVE",
"400 250 CURVE SMOOTH",
"372 250 OFFCURVE",
"350 228 OFFCURVE",
"350 200 CURVE SMOOTH",
"350 172 OFFCURVE",
"372 150 OFFCURVE",
"400 150 CURVE SMOOTH"
);
},
{
closed = 1;
nodes = (
"528 150 OFFCURVE",
"550 172 OFFCURVE",
"550 200 CURVE SMOOTH",
"550 228 OFFCURVE",
"528 250 OFFCURVE",
"500 250 CURVE SMOOTH",
"472 250 OFFCURVE",
"450 228 OFFCURVE",
"450 200 CURVE SMOOTH",
"450 172 OFFCURVE",
"472 150 OFFCURVE",
"500 150 CURVE SMOOTH"
);
},
{
closed = 1;
nodes = (
"128 300 OFFCURVE",
"150 322 OFFCURVE",
"150 350 CURVE SMOOTH",
"150 378 OFFCURVE",
"128 400 OFFCURVE",
"100 400 CURVE SMOOTH",
"72 400 OFFCURVE",
"50 378 OFFCURVE",
"50 350 CURVE SMOOTH",
"50 322 OFFCURVE",
"72 300 OFFCURVE",
"100 300 CURVE SMOOTH"
);
},
{
closed = 1;
nodes = (
"328 300 OFFCURVE",
"350 322 OFFCURVE",
"350 350 CURVE SMOOTH",
"350 378 OFFCURVE",
"328 400 OFFCURVE",
"300 400 CURVE SMOOTH",
"272 400 OFFCURVE",
"250 378 OFFCURVE",
"250 350 CURVE SMOOTH",
"250 322 OFFCURVE",
"272 300 OFFCURVE",
"300 300 CURVE SMOOTH"
);
},
{
closed = 1;
nodes = (
"528 300 OFFCURVE",
"550 322 OFFCURVE",
"550 350 CURVE SMOOTH",
"550 378 OFFCURVE",
"528 400 OFFCURVE",
"500 400 CURVE SMOOTH",
"472 400 OFFCURVE",
"450 378 OFFCURVE",
"450 350 CURVE SMOOTH",
"450 322 OFFCURVE",
"472 300 OFFCURVE",
"500 300 CURVE SMOOTH"
);
},
{
closed = 1;
nodes = (
"128 450 OFFCURVE",
"150 472 OFFCURVE",
"150 500 CURVE SMOOTH",
"150 528 OFFCURVE",
"128 550 OFFCURVE",
"100 550 CURVE SMOOTH",
"72 550 OFFCURVE",
"50 528 OFFCURVE",
"50 500 CURVE SMOOTH",
"50 472 OFFCURVE",
"72 450 OFFCURVE",
"100 450 CURVE SMOOTH"
);
},
{
closed = 1;
nodes = (
"228 450 OFFCURVE",
"250 472 OFFCURVE",
"250 500 CURVE SMOOTH",
"250 528 OFFCURVE",
"228 550 OFFCURVE",
"200 550 CURVE SMOOTH",
"172 550 OFFCURVE",
"150 528 OFFCURVE",
"150 500 CURVE SMOOTH",
"150 472 OFFCURVE",
"172 450 OFFCURVE",
"200 450 CURVE SMOOTH"
);
},
{
closed = 1;
nodes = (
"528 450 OFFCURVE",
"550 472 OFFCURVE",
"550 500 CURVE SMOOTH",
"550 528 OFFCURVE",
"528 550 OFFCURVE",
"500 550 CURVE SMOOTH",
"472 550 OFFCURVE",
"450 528 OFFCURVE",
"450 500 CURVE SMOOTH",
"450 472 OFFCURVE",
"472 450 OFFCURVE",
"500 450 CURVE SMOOTH"
);
},
{
closed = 1;
nodes = (
"128 600 OFFCURVE",
"150 622 OFFCURVE",
"150 650 CURVE SMOOTH",
"150 678 OFFCURVE",
"128 700 OFFCURVE",
"100 700 CURVE SMOOTH",
"72 700 OFFCURVE",
"50 678 OFFCURVE",
"50 650 CURVE SMOOTH",
"50 622 OFFCURVE",
"72 600 OFFCURVE",
"100 600 CURVE SMOOTH"
);
},
{
closed = 1;
nodes = (
"528 600 OFFCURVE",
"550 622 OFFCURVE",
"550 650 CURVE SMOOTH",
"550 678 OFFCURVE",
"528 700 OFFCURVE",
"500 700 CURVE SMOOTH",
"472 700 OFFCURVE",
"450 678 OFFCURVE",
"450 650 CURVE SMOOTH",
"450 622 OFFCURVE",
"472 600 OFFCURVE",
"500 600 CURVE SMOOTH"
);
}
);
width = 600;
}
);
unicode = 004E;
},
{
glyphname = Eng;
lastChange = "2024-09-28 14:52:43 +0000";
layers = (
{
layerId = "CAAE6B47-272D-418B-B8E9-730CC53AA9A0";
paths = (
{
closed = 1;
nodes = (
"128 0 OFFCURVE",
"150 22 OFFCURVE",
"150 50 CURVE SMOOTH",
"150 78 OFFCURVE",
"128 100 OFFCURVE",
"100 100 CURVE SMOOTH",
"72 100 OFFCURVE",
"50 78 OFFCURVE",
"50 50 CURVE SMOOTH",
"50 22 OFFCURVE",
"72 0 OFFCURVE",
"100 0 CURVE SMOOTH"
);
},
{
closed = 1;
nodes = (
"528 0 OFFCURVE",
"550 22 OFFCURVE",
"550 50 CURVE SMOOTH",
"550 78 OFFCURVE",
"528 100 OFFCURVE",
"500 100 CURVE SMOOTH",
"472 100 OFFCURVE",
"450 78 OFFCURVE",
"450 50 CURVE SMOOTH",
"450 22 OFFCURVE",
"472 0 OFFCURVE",
"500 0 CURVE SMOOTH"
);
},
{
closed = 1;
nodes = (
"128 150 OFFCURVE",
"150 172 OFFCURVE",
"150 200 CURVE SMOOTH",
"150 228 OFFCURVE",
"128 250 OFFCURVE",
"100 250 CURVE SMOOTH",
"72 250 OFFCURVE",
"50 228 OFFCURVE",
"50 200 CURVE SMOOTH",
"50 172 OFFCURVE",
"72 150 OFFCURVE",
"100 150 CURVE SMOOTH"
);
},
{
closed = 1;
nodes = (
"428 150 OFFCURVE",
"450 172 OFFCURVE",
"450 200 CURVE SMOOTH",
"450 228 OFFCURVE",
"428 250 OFFCURVE",
"400 250 CURVE SMOOTH",
"372 250 OFFCURVE",
"350 228 OFFCURVE",
"350 200 CURVE SMOOTH",
"350 172 OFFCURVE",
"372 150 OFFCURVE",
"400 150 CURVE SMOOTH"
);
},
{
closed = 1;
nodes = (
"528 150 OFFCURVE",
"550 172 OFFCURVE",
"550 200 CURVE SMOOTH",
"550 228 OFFCURVE",
"528 250 OFFCURVE",
"500 250 CURVE SMOOTH",
"472 250 OFFCURVE",
"450 228 OFFCURVE",
"450 200 CURVE SMOOTH",
"450 172 OFFCURVE",
"472 150 OFFCURVE",
"500 150 CURVE SMOOTH"
);
},
{
closed = 1;
nodes = (
"128 300 OFFCURVE",
"150 322 OFFCURVE",
"150 350 CURVE SMOOTH",
"150 378 OFFCURVE",
"128 400 OFFCURVE",
"100 400 CURVE SMOOTH",
"72 400 OFFCURVE",
"50 378 OFFCURVE",
"50 350 CURVE SMOOTH",
"50 322 OFFCURVE",
"72 300 OFFCURVE",
"100 300 CURVE SMOOTH"
);
},
{
closed = 1;
nodes = (
"328 300 OFFCURVE",
"350 322 OFFCURVE",
"350 350 CURVE SMOOTH",
"350 378 OFFCURVE",
"328 400 OFFCURVE",
"300 400 CURVE SMOOTH",
"272 400 OFFCURVE",
"250 378 OFFCURVE",
"250 350 CURVE SMOOTH",
"250 322 OFFCURVE",
"272 300 OFFCURVE",
"300 300 CURVE SMOOTH"
);
},
{
closed = 1;
nodes = (
"528 300 OFFCURVE",
"550 322 OFFCURVE",
"550 350 CURVE SMOOTH",
"550 378 OFFCURVE",
"528 400 OFFCURVE",
"500 400 CURVE SMOOTH",
"472 400 OFFCURVE",
"450 378 OFFCURVE",
"450 350 CURVE SMOOTH",
"450 322 OFFCURVE",
"472 300 OFFCURVE",
"500 300 CURVE SMOOTH"
);
},
{
closed = 1;
nodes = (
"128 450 OFFCURVE",
"150 472 OFFCURVE",
"150 500 CURVE SMOOTH",
"150 528 OFFCURVE",
"128 550 OFFCURVE",
"100 550 CURVE SMOOTH",
"72 550 OFFCURVE",
"50 528 OFFCURVE",
"50 500 CURVE SMOOTH",
"50 472 OFFCURVE",
"72 450 OFFCURVE",
"100 450 CURVE SMOOTH"
);
},
{
closed = 1;
nodes = (
"228 450 OFFCURVE",
"250 472 OFFCURVE",
"250 500 CURVE SMOOTH",
"250 528 OFFCURVE",
"228 550 OFFCURVE",
"200 550 CURVE SMOOTH",
"172 550 OFFCURVE",
"150 528 OFFCURVE",
"150 500 CURVE SMOOTH",
"150 472 OFFCURVE",
"172 450 OFFCURVE",
"200 450 CURVE SMOOTH"
);
},
{
closed = 1;
nodes = (
"528 450 OFFCURVE",
"550 472 OFFCURVE",
"550 500 CURVE SMOOTH",
"550 528 OFFCURVE",
"528 550 OFFCURVE",
"500 550 CURVE SMOOTH",
"472 550 OFFCURVE",
"450 528 OFFCURVE",
"450 500 CURVE SMOOTH",
"450 472 OFFCURVE",
"472 450 OFFCURVE",
"500 450 CURVE SMOOTH"
);
},
{
closed = 1;
nodes = (
"128 600 OFFCURVE",
"150 622 OFFCURVE",
"150 650 CURVE SMOOTH",
"150 678 OFFCURVE",
"128 700 OFFCURVE",
"100 700 CURVE SMOOTH",
"72 700 OFFCURVE",
"50 678 OFFCURVE",
"50 650 CURVE SMOOTH",
"50 622 OFFCURVE",
"72 600 OFFCURVE",
"100 600 CURVE SMOOTH"
);
},
{
closed = 1;
nodes = (
"528 600 OFFCURVE",
"550 622 OFFCURVE",
"550 650 CURVE SMOOTH",
"550 678 OFFCURVE",
"528 700 OFFCURVE",
"500 700 CURVE SMOOTH",
"472 700 OFFCURVE",
"450 678 OFFCURVE",
"450 650 CURVE SMOOTH",
"450 622 OFFCURVE",
"472 600 OFFCURVE",
"500 600 CURVE SMOOTH"
);
},
{
closed = 1;
nodes = (
"428 -300 OFFCURVE",
"450 -278 OFFCURVE",
"450 -250 CURVE SMOOTH",
"450 -222 OFFCURVE",
"428 -200 OFFCURVE",
"400 -200 CURVE SMOOTH",
"372 -200 OFFCURVE",
"350 -222 OFFCURVE",
"350 -250 CURVE SMOOTH",
"350 -278 OFFCURVE",
"372 -300 OFFCURVE",
"400 -300 CURVE SMOOTH"
);
},
{
closed = 1;
nodes = (
"528 -150 OFFCURVE",
"550 -128 OFFCURVE",
"550 -100 CURVE SMOOTH",
"550 -72 OFFCURVE",
"528 -50 OFFCURVE",
"500 -50 CURVE SMOOTH",
"472 -50 OFFCURVE",
"450 -72 OFFCURVE",
"450 -100 CURVE SMOOTH",
"450 -128 OFFCURVE",
"472 -150 OFFCURVE",
"500 -150 CURVE SMOOTH"
);
}
);
width = 600;
}
);
unicode = 014A;
},
{
glyphname = O;
lastChange = "2024-09-28 14:05:07 +0000";
layers = (
{
anchors = (
{
name = bottom;
position = "{300, 0}";
},
{
name = center;
position = "{300, 350}";
},
{
name = ogonek;
position = "{550, 0}";
},
{
name = top;
position = "{300, 700}";
},
{
name = topleft;
position = "{50, 700}";
},
{
name = topright;
position = "{550, 700}";
}
);
layerId = "CAAE6B47-272D-418B-B8E9-730CC53AA9A0";
paths = (
{
closed = 1;
nodes = (
"228 0 OFFCURVE",
"250 22 OFFCURVE",
"250 50 CURVE SMOOTH",
"250 78 OFFCURVE",
"228 100 OFFCURVE",
"200 100 CURVE SMOOTH",
"172 100 OFFCURVE",
"150 78 OFFCURVE",
"150 50 CURVE SMOOTH",
"150 22 OFFCURVE",
"172 0 OFFCURVE",
"200 0 CURVE SMOOTH"
);
},
{
closed = 1;
nodes = (
"328 0 OFFCURVE",
"350 22 OFFCURVE",
"350 50 CURVE SMOOTH",
"350 78 OFFCURVE",
"328 100 OFFCURVE",
"300 100 CURVE SMOOTH",
"272 100 OFFCURVE",
"250 78 OFFCURVE",
"250 50 CURVE SMOOTH",
"250 22 OFFCURVE",
"272 0 OFFCURVE",
"300 0 CURVE SMOOTH"
);
},
{
closed = 1;
nodes = (
"428 0 OFFCURVE",
"450 22 OFFCURVE",
"450 50 CURVE SMOOTH",
"450 78 OFFCURVE",
"428 100 OFFCURVE",
"400 100 CURVE SMOOTH",
"372 100 OFFCURVE",
"350 78 OFFCURVE",
"350 50 CURVE SMOOTH",
"350 22 OFFCURVE",
"372 0 OFFCURVE",
"400 0 CURVE SMOOTH"
);
},
{
closed = 1;
nodes = (
"128 150 OFFCURVE",
"150 172 OFFCURVE",
"150 200 CURVE SMOOTH",
"150 228 OFFCURVE",
"128 250 OFFCURVE",
"100 250 CURVE SMOOTH",
"72 250 OFFCURVE",
"50 228 OFFCURVE",
"50 200 CURVE SMOOTH",
"50 172 OFFCURVE",
"72 150 OFFCURVE",
"100 150 CURVE SMOOTH"
);
},
{
closed = 1;
nodes = (
"528 150 OFFCURVE",
"550 172 OFFCURVE",
"550 200 CURVE SMOOTH",
"550 228 OFFCURVE",
"528 250 OFFCURVE",
"500 250 CURVE SMOOTH",
"472 250 OFFCURVE",
"450 228 OFFCURVE",
"450 200 CURVE SMOOTH",
"450 172 OFFCURVE",
"472 150 OFFCURVE",
"500 150 CURVE SMOOTH"
);
},
{
closed = 1;
nodes = (
"128 300 OFFCURVE",
"150 322 OFFCURVE",
"150 350 CURVE SMOOTH",
"150 378 OFFCURVE",
"128 400 OFFCURVE",
"100 400 CURVE SMOOTH",
"72 400 OFFCURVE",
"50 378 OFFCURVE",
"50 350 CURVE SMOOTH",
"50 322 OFFCURVE",
"72 300 OFFCURVE",
"100 300 CURVE SMOOTH"
);
},
{
closed = 1;
nodes = (
"528 300 OFFCURVE",
"550 322 OFFCURVE",
"550 350 CURVE SMOOTH",
"550 378 OFFCURVE",
"528 400 OFFCURVE",
"500 400 CURVE SMOOTH",
"472 400 OFFCURVE",
"450 378 OFFCURVE",
"450 350 CURVE SMOOTH",
"450 322 OFFCURVE",
"472 300 OFFCURVE",
"500 300 CURVE SMOOTH"
);
},
{
closed = 1;
nodes = (
"128 450 OFFCURVE",
"150 472 OFFCURVE",
"150 500 CURVE SMOOTH",
"150 528 OFFCURVE",
"128 550 OFFCURVE",
"100 550 CURVE SMOOTH",
"72 550 OFFCURVE",
"50 528 OFFCURVE",
"50 500 CURVE SMOOTH",
"50 472 OFFCURVE",
"72 450 OFFCURVE",
"100 450 CURVE SMOOTH"
);
},
{
closed = 1;
nodes = (
"528 450 OFFCURVE",
"550 472 OFFCURVE",
"550 500 CURVE SMOOTH",
"550 528 OFFCURVE",
"528 550 OFFCURVE",
"500 550 CURVE SMOOTH",
"472 550 OFFCURVE",
"450 528 OFFCURVE",
"450 500 CURVE SMOOTH",
"450 472 OFFCURVE",
"472 450 OFFCURVE",
"500 450 CURVE SMOOTH"
);
},
{
closed = 1;
nodes = (
"228 600 OFFCURVE",
"250 622 OFFCURVE",
"250 650 CURVE SMOOTH",
"250 678 OFFCURVE",
"228 700 OFFCURVE",
"200 700 CURVE SMOOTH",
"172 700 OFFCURVE",
"150 678 OFFCURVE",
"150 650 CURVE SMOOTH",
"150 622 OFFCURVE",
"172 600 OFFCURVE",
"200 600 CURVE SMOOTH"
);
},
{
closed = 1;
nodes = (
"328 600 OFFCURVE",
"350 622 OFFCURVE",
"350 650 CURVE SMOOTH",
"350 678 OFFCURVE",
"328 700 OFFCURVE",
"300 700 CURVE SMOOTH",
"272 700 OFFCURVE",
"250 678 OFFCURVE",
"250 650 CURVE SMOOTH",
"250 622 OFFCURVE",
"272 600 OFFCURVE",
"300 600 CURVE SMOOTH"
);
},
{
closed = 1;
nodes = (
"428 600 OFFCURVE",
"450 622 OFFCURVE",
"450 650 CURVE SMOOTH",
"450 678 OFFCURVE",
"428 700 OFFCURVE",
"400 700 CURVE SMOOTH",
"372 700 OFFCURVE",
"350 678 OFFCURVE",
"350 650 CURVE SMOOTH",
"350 622 OFFCURVE",
"372 600 OFFCURVE",
"400 600 CURVE SMOOTH"
);
}
);
width = 600;
}
);
unicode = 004F;
},
{
glyphname = OE;
lastChange = "2024-10-07 08:05:40 +0000";
layers = (
{
layerId = "CAAE6B47-272D-418B-B8E9-730CC53AA9A0";
paths = (
{
closed = 1;
nodes = (
"328 0 OFFCURVE",
"350 22 OFFCURVE",
"350 50 CURVE SMOOTH",
"350 78 OFFCURVE",
"328 100 OFFCURVE",
"300 100 CURVE SMOOTH",
"272 100 OFFCURVE",
"250 78 OFFCURVE",
"250 50 CURVE SMOOTH",
"250 22 OFFCURVE",
"272 0 OFFCURVE",
"300 0 CURVE SMOOTH"
);
},
{
closed = 1;
nodes = (
"428 0 OFFCURVE",
"450 22 OFFCURVE",
"450 50 CURVE SMOOTH",
"450 78 OFFCURVE",
"428 100 OFFCURVE",
"400 100 CURVE SMOOTH",
"372 100 OFFCURVE",
"350 78 OFFCURVE",
"350 50 CURVE SMOOTH",
"350 22 OFFCURVE",
"372 0 OFFCURVE",
"400 0 CURVE SMOOTH"
);
},
{
closed = 1;
nodes = (
"528 0 OFFCURVE",
"550 22 OFFCURVE",
"550 50 CURVE SMOOTH",
"550 78 OFFCURVE",
"528 100 OFFCURVE",
"500 100 CURVE SMOOTH",
"472 100 OFFCURVE",
"450 78 OFFCURVE",
"450 50 CURVE SMOOTH",
"450 22 OFFCURVE",
"472 0 OFFCURVE",
"500 0 CURVE SMOOTH"
);
},
{
closed = 1;
nodes = (
"128 150 OFFCURVE",
"150 172 OFFCURVE",
"150 200 CURVE SMOOTH",
"150 228 OFFCURVE",
"128 250 OFFCURVE",
"100 250 CURVE SMOOTH",
"72 250 OFFCURVE",
"50 228 OFFCURVE",
"50 200 CURVE SMOOTH",
"50 172 OFFCURVE",
"72 150 OFFCURVE",
"100 150 CURVE SMOOTH"
);
},
{
closed = 1;
nodes = (
"328 150 OFFCURVE",
"350 172 OFFCURVE",
"350 200 CURVE SMOOTH",
"350 228 OFFCURVE",
"328 250 OFFCURVE",
"300 250 CURVE SMOOTH",
"272 250 OFFCURVE",
"250 228 OFFCURVE",
"250 200 CURVE SMOOTH",
"250 172 OFFCURVE",
"272 150 OFFCURVE",
"300 150 CURVE SMOOTH"
);
},
{
closed = 1;
nodes = (
"128 300 OFFCURVE",
"150 322 OFFCURVE",
"150 350 CURVE SMOOTH",
"150 378 OFFCURVE",
"128 400 OFFCURVE",
"100 400 CURVE SMOOTH",
"72 400 OFFCURVE",
"50 378 OFFCURVE",
"50 350 CURVE SMOOTH",
"50 322 OFFCURVE",
"72 300 OFFCURVE",
"100 300 CURVE SMOOTH"
);
},
{
closed = 1;
nodes = (
"328 300 OFFCURVE",
"350 322 OFFCURVE",
"350 350 CURVE SMOOTH",
"350 378 OFFCURVE",
"328 400 OFFCURVE",
"300 400 CURVE SMOOTH",
"272 400 OFFCURVE",
"250 378 OFFCURVE",
"250 350 CURVE SMOOTH",
"250 322 OFFCURVE",
"272 300 OFFCURVE",
"300 300 CURVE SMOOTH"
);
},
{
closed = 1;
nodes = (
"428 300 OFFCURVE",
"450 322 OFFCURVE",
"450 350 CURVE SMOOTH",
"450 378 OFFCURVE",
"428 400 OFFCURVE",
"400 400 CURVE SMOOTH",
"372 400 OFFCURVE",
"350 378 OFFCURVE",
"350 350 CURVE SMOOTH",
"350 322 OFFCURVE",
"372 300 OFFCURVE",
"400 300 CURVE SMOOTH"
);
},
{
closed = 1;
nodes = (
"128 450 OFFCURVE",
"150 472 OFFCURVE",
"150 500 CURVE SMOOTH",
"150 528 OFFCURVE",
"128 550 OFFCURVE",
"100 550 CURVE SMOOTH",
"72 550 OFFCURVE",
"50 528 OFFCURVE",
"50 500 CURVE SMOOTH",
"50 472 OFFCURVE",
"72 450 OFFCURVE",
"100 450 CURVE SMOOTH"
);
},
{
closed = 1;
nodes = (
"328 450 OFFCURVE",
"350 472 OFFCURVE",
"350 500 CURVE SMOOTH",
"350 528 OFFCURVE",
"328 550 OFFCURVE",
"300 550 CURVE SMOOTH",
"272 550 OFFCURVE",
"250 528 OFFCURVE",
"250 500 CURVE SMOOTH",
"250 472 OFFCURVE",
"272 450 OFFCURVE",
"300 450 CURVE SMOOTH"
);
},
{
closed = 1;
nodes = (
"328 600 OFFCURVE",
"350 622 OFFCURVE",
"350 650 CURVE SMOOTH",
"350 678 OFFCURVE",
"328 700 OFFCURVE",
"300 700 CURVE SMOOTH",
"272 700 OFFCURVE",
"250 678 OFFCURVE",
"250 650 CURVE SMOOTH",
"250 622 OFFCURVE",
"272 600 OFFCURVE",
"300 600 CURVE SMOOTH"
);
},
{
closed = 1;
nodes = (
"428 600 OFFCURVE",
"450 622 OFFCURVE",
"450 650 CURVE SMOOTH",
"450 678 OFFCURVE",
"428 700 OFFCURVE",
"400 700 CURVE SMOOTH",
"372 700 OFFCURVE",
"350 678 OFFCURVE",
"350 650 CURVE SMOOTH",
"350 622 OFFCURVE",
"372 600 OFFCURVE",
"400 600 CURVE SMOOTH"
);
},
{
closed = 1;
nodes = (
"528 600 OFFCURVE",
"550 622 OFFCURVE",
"550 650 CURVE SMOOTH",
"550 678 OFFCURVE",
"528 700 OFFCURVE",
"500 700 CURVE SMOOTH",
"472 700 OFFCURVE",
"450 678 OFFCURVE",
"450 650 CURVE SMOOTH",
"450 622 OFFCURVE",
"472 600 OFFCURVE",
"500 600 CURVE SMOOTH"
);
},
{
closed = 1;
nodes = (
"228 0 OFFCURVE",
"250 22 OFFCURVE",
"250 50 CURVE SMOOTH",
"250 78 OFFCURVE",
"228 100 OFFCURVE",
"200 100 CURVE SMOOTH",
"172 100 OFFCURVE",
"150 78 OFFCURVE",
"150 50 CURVE SMOOTH",
"150 22 OFFCURVE",
"172 0 OFFCURVE",
"200 0 CURVE SMOOTH"
);
},
{
closed = 1;
nodes = (
"228 600 OFFCURVE",
"250 622 OFFCURVE",
"250 650 CURVE SMOOTH",
"250 678 OFFCURVE",
"228 700 OFFCURVE",
"200 700 CURVE SMOOTH",
"172 700 OFFCURVE",
"150 678 OFFCURVE",
"150 650 CURVE SMOOTH",
"150 622 OFFCURVE",
"172 600 OFFCURVE",
"200 600 CURVE SMOOTH"
);
}
);
width = 600;
}
);
unicode = 0152;
},
{
glyphname = P;
lastChange = "2024-11-22 08:45:28 +0000";
layers = (
{
layerId = "CAAE6B47-272D-418B-B8E9-730CC53AA9A0";
paths = (
{
closed = 1;
nodes = (
"128 0 OFFCURVE",
"150 22 OFFCURVE",
"150 50 CURVE SMOOTH",
"150 78 OFFCURVE",
"128 100 OFFCURVE",
"100 100 CURVE SMOOTH",
"72 100 OFFCURVE",
"50 78 OFFCURVE",
"50 50 CURVE SMOOTH",
"50 22 OFFCURVE",
"72 0 OFFCURVE",
"100 0 CURVE SMOOTH"
);
},
{
closed = 1;
nodes = (
"128 150 OFFCURVE",
"150 172 OFFCURVE",
"150 200 CURVE SMOOTH",
"150 228 OFFCURVE",
"128 250 OFFCURVE",
"100 250 CURVE SMOOTH",
"72 250 OFFCURVE",
"50 228 OFFCURVE",
"50 200 CURVE SMOOTH",
"50 172 OFFCURVE",
"72 150 OFFCURVE",
"100 150 CURVE SMOOTH"
);
},
{
closed = 1;
nodes = (
"128 300 OFFCURVE",
"150 322 OFFCURVE",
"150 350 CURVE SMOOTH",
"150 378 OFFCURVE",
"128 400 OFFCURVE",
"100 400 CURVE SMOOTH",
"72 400 OFFCURVE",
"50 378 OFFCURVE",
"50 350 CURVE SMOOTH",
"50 322 OFFCURVE",
"72 300 OFFCURVE",
"100 300 CURVE SMOOTH"
);
},
{
closed = 1;
nodes = (
"228 300 OFFCURVE",
"250 322 OFFCURVE",
"250 350 CURVE SMOOTH",
"250 378 OFFCURVE",
"228 400 OFFCURVE",
"200 400 CURVE SMOOTH",
"172 400 OFFCURVE",
"150 378 OFFCURVE",
"150 350 CURVE SMOOTH",
"150 322 OFFCURVE",
"172 300 OFFCURVE",
"200 300 CURVE SMOOTH"
);
},
{
closed = 1;
nodes = (
"328 300 OFFCURVE",
"350 322 OFFCURVE",
"350 350 CURVE SMOOTH",
"350 378 OFFCURVE",
"328 400 OFFCURVE",
"300 400 CURVE SMOOTH",
"272 400 OFFCURVE",
"250 378 OFFCURVE",
"250 350 CURVE SMOOTH",
"250 322 OFFCURVE",
"272 300 OFFCURVE",
"300 300 CURVE SMOOTH"
);
},
{
closed = 1;
nodes = (
"428 300 OFFCURVE",
"450 322 OFFCURVE",
"450 350 CURVE SMOOTH",
"450 378 OFFCURVE",
"428 400 OFFCURVE",
"400 400 CURVE SMOOTH",
"372 400 OFFCURVE",
"350 378 OFFCURVE",
"350 350 CURVE SMOOTH",
"350 322 OFFCURVE",
"372 300 OFFCURVE",
"400 300 CURVE SMOOTH"
);
},
{
closed = 1;
nodes = (
"128 450 OFFCURVE",
"150 472 OFFCURVE",
"150 500 CURVE SMOOTH",
"150 528 OFFCURVE",
"128 550 OFFCURVE",
"100 550 CURVE SMOOTH",
"72 550 OFFCURVE",
"50 528 OFFCURVE",
"50 500 CURVE SMOOTH",
"50 472 OFFCURVE",
"72 450 OFFCURVE",
"100 450 CURVE SMOOTH"
);
},
{
closed = 1;
nodes = (
"528 450 OFFCURVE",
"550 472 OFFCURVE",
"550 500 CURVE SMOOTH",
"550 528 OFFCURVE",
"528 550 OFFCURVE",
"500 550 CURVE SMOOTH",
"472 550 OFFCURVE",
"450 528 OFFCURVE",
"450 500 CURVE SMOOTH",
"450 472 OFFCURVE",
"472 450 OFFCURVE",
"500 450 CURVE SMOOTH"
);
},
{
closed = 1;
nodes = (
"128 600 OFFCURVE",
"150 622 OFFCURVE",
"150 650 CURVE SMOOTH",
"150 678 OFFCURVE",
"128 700 OFFCURVE",
"100 700 CURVE SMOOTH",
"72 700 OFFCURVE",
"50 678 OFFCURVE",
"50 650 CURVE SMOOTH",
"50 622 OFFCURVE",
"72 600 OFFCURVE",
"100 600 CURVE SMOOTH"
);
},
{
closed = 1;
nodes = (
"228 600 OFFCURVE",
"250 622 OFFCURVE",
"250 650 CURVE SMOOTH",
"250 678 OFFCURVE",
"228 700 OFFCURVE",
"200 700 CURVE SMOOTH",
"172 700 OFFCURVE",
"150 678 OFFCURVE",
"150 650 CURVE SMOOTH",
"150 622 OFFCURVE",
"172 600 OFFCURVE",
"200 600 CURVE SMOOTH"
);
},
{
closed = 1;
nodes = (
"328 600 OFFCURVE",
"350 622 OFFCURVE",
"350 650 CURVE SMOOTH",
"350 678 OFFCURVE",
"328 700 OFFCURVE",
"300 700 CURVE SMOOTH",
"272 700 OFFCURVE",
"250 678 OFFCURVE",
"250 650 CURVE SMOOTH",
"250 622 OFFCURVE",
"272 600 OFFCURVE",
"300 600 CURVE SMOOTH"
);
},
{
closed = 1;
nodes = (
"428 600 OFFCURVE",
"450 622 OFFCURVE",
"450 650 CURVE SMOOTH",
"450 678 OFFCURVE",
"428 700 OFFCURVE",
"400 700 CURVE SMOOTH",
"372 700 OFFCURVE",
"350 678 OFFCURVE",
"350 650 CURVE SMOOTH",
"350 622 OFFCURVE",
"372 600 OFFCURVE",
"400 600 CURVE SMOOTH"
);
}
);
width = 600;
}
);
unicode = 0050;
},
{
glyphname = Thorn;
lastChange = "2024-09-28 14:43:08 +0000";
layers = (
{
layerId = "CAAE6B47-272D-418B-B8E9-730CC53AA9A0";
paths = (
{
closed = 1;
nodes = (
"128 0 OFFCURVE",
"150 22 OFFCURVE",
"150 50 CURVE SMOOTH",
"150 78 OFFCURVE",
"128 100 OFFCURVE",
"100 100 CURVE SMOOTH",
"72 100 OFFCURVE",
"50 78 OFFCURVE",
"50 50 CURVE SMOOTH",
"50 22 OFFCURVE",
"72 0 OFFCURVE",
"100 0 CURVE SMOOTH"
);
},
{
closed = 1;
nodes = (
"128 150 OFFCURVE",
"150 172 OFFCURVE",
"150 200 CURVE SMOOTH",
"150 228 OFFCURVE",
"128 250 OFFCURVE",
"100 250 CURVE SMOOTH",
"72 250 OFFCURVE",
"50 228 OFFCURVE",
"50 200 CURVE SMOOTH",
"50 172 OFFCURVE",
"72 150 OFFCURVE",
"100 150 CURVE SMOOTH"
);
},
{
closed = 1;
nodes = (
"228 150 OFFCURVE",
"250 172 OFFCURVE",
"250 200 CURVE SMOOTH",
"250 228 OFFCURVE",
"228 250 OFFCURVE",
"200 250 CURVE SMOOTH",
"172 250 OFFCURVE",
"150 228 OFFCURVE",
"150 200 CURVE SMOOTH",
"150 172 OFFCURVE",
"172 150 OFFCURVE",
"200 150 CURVE SMOOTH"
);
},
{
closed = 1;
nodes = (
"328 150 OFFCURVE",
"350 172 OFFCURVE",
"350 200 CURVE SMOOTH",
"350 228 OFFCURVE",
"328 250 OFFCURVE",
"300 250 CURVE SMOOTH",
"272 250 OFFCURVE",
"250 228 OFFCURVE",
"250 200 CURVE SMOOTH",
"250 172 OFFCURVE",
"272 150 OFFCURVE",
"300 150 CURVE SMOOTH"
);
},
{
closed = 1;
nodes = (
"428 150 OFFCURVE",
"450 172 OFFCURVE",
"450 200 CURVE SMOOTH",
"450 228 OFFCURVE",
"428 250 OFFCURVE",
"400 250 CURVE SMOOTH",
"372 250 OFFCURVE",
"350 228 OFFCURVE",
"350 200 CURVE SMOOTH",
"350 172 OFFCURVE",
"372 150 OFFCURVE",
"400 150 CURVE SMOOTH"
);
},
{
closed = 1;
nodes = (
"128 300 OFFCURVE",
"150 322 OFFCURVE",
"150 350 CURVE SMOOTH",
"150 378 OFFCURVE",
"128 400 OFFCURVE",
"100 400 CURVE SMOOTH",
"72 400 OFFCURVE",
"50 378 OFFCURVE",
"50 350 CURVE SMOOTH",
"50 322 OFFCURVE",
"72 300 OFFCURVE",
"100 300 CURVE SMOOTH"
);
},
{
closed = 1;
nodes = (
"528 300 OFFCURVE",
"550 322 OFFCURVE",
"550 350 CURVE SMOOTH",
"550 378 OFFCURVE",
"528 400 OFFCURVE",
"500 400 CURVE SMOOTH",
"472 400 OFFCURVE",
"450 378 OFFCURVE",
"450 350 CURVE SMOOTH",
"450 322 OFFCURVE",
"472 300 OFFCURVE",
"500 300 CURVE SMOOTH"
);
},
{
closed = 1;
nodes = (
"128 450 OFFCURVE",
"150 472 OFFCURVE",
"150 500 CURVE SMOOTH",
"150 528 OFFCURVE",
"128 550 OFFCURVE",
"100 550 CURVE SMOOTH",
"72 550 OFFCURVE",
"50 528 OFFCURVE",
"50 500 CURVE SMOOTH",
"50 472 OFFCURVE",
"72 450 OFFCURVE",
"100 450 CURVE SMOOTH"
);
},
{
closed = 1;
nodes = (
"228 450 OFFCURVE",
"250 472 OFFCURVE",
"250 500 CURVE SMOOTH",
"250 528 OFFCURVE",
"228 550 OFFCURVE",
"200 550 CURVE SMOOTH",
"172 550 OFFCURVE",
"150 528 OFFCURVE",
"150 500 CURVE SMOOTH",
"150 472 OFFCURVE",
"172 450 OFFCURVE",
"200 450 CURVE SMOOTH"
);
},
{
closed = 1;
nodes = (
"328 450 OFFCURVE",
"350 472 OFFCURVE",
"350 500 CURVE SMOOTH",
"350 528 OFFCURVE",
"328 550 OFFCURVE",
"300 550 CURVE SMOOTH",
"272 550 OFFCURVE",
"250 528 OFFCURVE",
"250 500 CURVE SMOOTH",
"250 472 OFFCURVE",
"272 450 OFFCURVE",
"300 450 CURVE SMOOTH"
);
},
{
closed = 1;
nodes = (
"428 450 OFFCURVE",
"450 472 OFFCURVE",
"450 500 CURVE SMOOTH",
"450 528 OFFCURVE",
"428 550 OFFCURVE",
"400 550 CURVE SMOOTH",
"372 550 OFFCURVE",
"350 528 OFFCURVE",
"350 500 CURVE SMOOTH",
"350 472 OFFCURVE",
"372 450 OFFCURVE",
"400 450 CURVE SMOOTH"
);
},
{
closed = 1;
nodes = (
"128 600 OFFCURVE",
"150 622 OFFCURVE",
"150 650 CURVE SMOOTH",
"150 678 OFFCURVE",
"128 700 OFFCURVE",
"100 700 CURVE SMOOTH",
"72 700 OFFCURVE",
"50 678 OFFCURVE",
"50 650 CURVE SMOOTH",
"50 622 OFFCURVE",
"72 600 OFFCURVE",
"100 600 CURVE SMOOTH"
);
}
);
width = 600;
}
);
unicode = 00DE;
},
{
glyphname = Q;
lastChange = "2024-11-22 08:45:28 +0000";
layers = (
{
layerId = "CAAE6B47-272D-418B-B8E9-730CC53AA9A0";
paths = (
{
closed = 1;
nodes = (
"228 0 OFFCURVE",
"250 22 OFFCURVE",
"250 50 CURVE SMOOTH",
"250 78 OFFCURVE",
"228 100 OFFCURVE",
"200 100 CURVE SMOOTH",
"172 100 OFFCURVE",
"150 78 OFFCURVE",
"150 50 CURVE SMOOTH",
"150 22 OFFCURVE",
"172 0 OFFCURVE",
"200 0 CURVE SMOOTH"
);
},
{
closed = 1;
nodes = (
"328 0 OFFCURVE",
"350 22 OFFCURVE",
"350 50 CURVE SMOOTH",
"350 78 OFFCURVE",
"328 100 OFFCURVE",
"300 100 CURVE SMOOTH",
"272 100 OFFCURVE",
"250 78 OFFCURVE",
"250 50 CURVE SMOOTH",
"250 22 OFFCURVE",
"272 0 OFFCURVE",
"300 0 CURVE SMOOTH"
);
},
{
closed = 1;
nodes = (
"528 0 OFFCURVE",
"550 22 OFFCURVE",
"550 50 CURVE SMOOTH",
"550 78 OFFCURVE",
"528 100 OFFCURVE",
"500 100 CURVE SMOOTH",
"472 100 OFFCURVE",
"450 78 OFFCURVE",
"450 50 CURVE SMOOTH",
"450 22 OFFCURVE",
"472 0 OFFCURVE",
"500 0 CURVE SMOOTH"
);
},
{
closed = 1;
nodes = (
"128 150 OFFCURVE",
"150 172 OFFCURVE",
"150 200 CURVE SMOOTH",
"150 228 OFFCURVE",
"128 250 OFFCURVE",
"100 250 CURVE SMOOTH",
"72 250 OFFCURVE",
"50 228 OFFCURVE",
"50 200 CURVE SMOOTH",
"50 172 OFFCURVE",
"72 150 OFFCURVE",
"100 150 CURVE SMOOTH"
);
},
{
closed = 1;
nodes = (
"428 150 OFFCURVE",
"450 172 OFFCURVE",
"450 200 CURVE SMOOTH",
"450 228 OFFCURVE",
"428 250 OFFCURVE",
"400 250 CURVE SMOOTH",
"372 250 OFFCURVE",
"350 228 OFFCURVE",
"350 200 CURVE SMOOTH",
"350 172 OFFCURVE",
"372 150 OFFCURVE",
"400 150 CURVE SMOOTH"
);
},
{
closed = 1;
nodes = (
"128 300 OFFCURVE",
"150 322 OFFCURVE",
"150 350 CURVE SMOOTH",
"150 378 OFFCURVE",
"128 400 OFFCURVE",
"100 400 CURVE SMOOTH",
"72 400 OFFCURVE",
"50 378 OFFCURVE",
"50 350 CURVE SMOOTH",
"50 322 OFFCURVE",
"72 300 OFFCURVE",
"100 300 CURVE SMOOTH"
);
},
{
closed = 1;
nodes = (
"528 300 OFFCURVE",
"550 322 OFFCURVE",
"550 350 CURVE SMOOTH",
"550 378 OFFCURVE",
"528 400 OFFCURVE",
"500 400 CURVE SMOOTH",
"472 400 OFFCURVE",
"450 378 OFFCURVE",
"450 350 CURVE SMOOTH",
"450 322 OFFCURVE",
"472 300 OFFCURVE",
"500 300 CURVE SMOOTH"
);
},
{
closed = 1;
nodes = (
"128 450 OFFCURVE",
"150 472 OFFCURVE",
"150 500 CURVE SMOOTH",
"150 528 OFFCURVE",
"128 550 OFFCURVE",
"100 550 CURVE SMOOTH",
"72 550 OFFCURVE",
"50 528 OFFCURVE",
"50 500 CURVE SMOOTH",
"50 472 OFFCURVE",
"72 450 OFFCURVE",
"100 450 CURVE SMOOTH"
);
},
{
closed = 1;
nodes = (
"528 450 OFFCURVE",
"550 472 OFFCURVE",
"550 500 CURVE SMOOTH",
"550 528 OFFCURVE",
"528 550 OFFCURVE",
"500 550 CURVE SMOOTH",
"472 550 OFFCURVE",
"450 528 OFFCURVE",
"450 500 CURVE SMOOTH",
"450 472 OFFCURVE",
"472 450 OFFCURVE",
"500 450 CURVE SMOOTH"
);
},
{
closed = 1;
nodes = (
"228 600 OFFCURVE",
"250 622 OFFCURVE",
"250 650 CURVE SMOOTH",
"250 678 OFFCURVE",
"228 700 OFFCURVE",
"200 700 CURVE SMOOTH",
"172 700 OFFCURVE",
"150 678 OFFCURVE",
"150 650 CURVE SMOOTH",
"150 622 OFFCURVE",
"172 600 OFFCURVE",
"200 600 CURVE SMOOTH"
);
},
{
closed = 1;
nodes = (
"328 600 OFFCURVE",
"350 622 OFFCURVE",
"350 650 CURVE SMOOTH",
"350 678 OFFCURVE",
"328 700 OFFCURVE",
"300 700 CURVE SMOOTH",
"272 700 OFFCURVE",
"250 678 OFFCURVE",
"250 650 CURVE SMOOTH",
"250 622 OFFCURVE",
"272 600 OFFCURVE",
"300 600 CURVE SMOOTH"
);
},
{
closed = 1;
nodes = (
"428 600 OFFCURVE",
"450 622 OFFCURVE",
"450 650 CURVE SMOOTH",
"450 678 OFFCURVE",
"428 700 OFFCURVE",
"400 700 CURVE SMOOTH",
"372 700 OFFCURVE",
"350 678 OFFCURVE",
"350 650 CURVE SMOOTH",
"350 622 OFFCURVE",
"372 600 OFFCURVE",
"400 600 CURVE SMOOTH"
);
}
);
width = 600;
}
);
unicode = 0051;
},
{
glyphname = R;
lastChange = "2024-09-28 14:05:53 +0000";
layers = (
{
anchors = (
{
name = bottom;
position = "{300, 0}";
},
{
name = top;
position = "{300, 700}";
}
);
layerId = "CAAE6B47-272D-418B-B8E9-730CC53AA9A0";
paths = (
{
closed = 1;
nodes = (
"128 0 OFFCURVE",
"150 22 OFFCURVE",
"150 50 CURVE SMOOTH",
"150 78 OFFCURVE",
"128 100 OFFCURVE",
"100 100 CURVE SMOOTH",
"72 100 OFFCURVE",
"50 78 OFFCURVE",
"50 50 CURVE SMOOTH",
"50 22 OFFCURVE",
"72 0 OFFCURVE",
"100 0 CURVE SMOOTH"
);
},
{
closed = 1;
nodes = (
"528 0 OFFCURVE",
"550 22 OFFCURVE",
"550 50 CURVE SMOOTH",
"550 78 OFFCURVE",
"528 100 OFFCURVE",
"500 100 CURVE SMOOTH",
"472 100 OFFCURVE",
"450 78 OFFCURVE",
"450 50 CURVE SMOOTH",
"450 22 OFFCURVE",
"472 0 OFFCURVE",
"500 0 CURVE SMOOTH"
);
},
{
closed = 1;
nodes = (
"128 150 OFFCURVE",
"150 172 OFFCURVE",
"150 200 CURVE SMOOTH",
"150 228 OFFCURVE",
"128 250 OFFCURVE",
"100 250 CURVE SMOOTH",
"72 250 OFFCURVE",
"50 228 OFFCURVE",
"50 200 CURVE SMOOTH",
"50 172 OFFCURVE",
"72 150 OFFCURVE",
"100 150 CURVE SMOOTH"
);
},
{
closed = 1;
nodes = (
"428 150 OFFCURVE",
"450 172 OFFCURVE",
"450 200 CURVE SMOOTH",
"450 228 OFFCURVE",
"428 250 OFFCURVE",
"400 250 CURVE SMOOTH",
"372 250 OFFCURVE",
"350 228 OFFCURVE",
"350 200 CURVE SMOOTH",
"350 172 OFFCURVE",
"372 150 OFFCURVE",
"400 150 CURVE SMOOTH"
);
},
{
closed = 1;
nodes = (
"128 300 OFFCURVE",
"150 322 OFFCURVE",
"150 350 CURVE SMOOTH",
"150 378 OFFCURVE",
"128 400 OFFCURVE",
"100 400 CURVE SMOOTH",
"72 400 OFFCURVE",
"50 378 OFFCURVE",
"50 350 CURVE SMOOTH",
"50 322 OFFCURVE",
"72 300 OFFCURVE",
"100 300 CURVE SMOOTH"
);
},
{
closed = 1;
nodes = (
"228 300 OFFCURVE",
"250 322 OFFCURVE",
"250 350 CURVE SMOOTH",
"250 378 OFFCURVE",
"228 400 OFFCURVE",
"200 400 CURVE SMOOTH",
"172 400 OFFCURVE",
"150 378 OFFCURVE",
"150 350 CURVE SMOOTH",
"150 322 OFFCURVE",
"172 300 OFFCURVE",
"200 300 CURVE SMOOTH"
);
},
{
closed = 1;
nodes = (
"328 300 OFFCURVE",
"350 322 OFFCURVE",
"350 350 CURVE SMOOTH",
"350 378 OFFCURVE",
"328 400 OFFCURVE",
"300 400 CURVE SMOOTH",
"272 400 OFFCURVE",
"250 378 OFFCURVE",
"250 350 CURVE SMOOTH",
"250 322 OFFCURVE",
"272 300 OFFCURVE",
"300 300 CURVE SMOOTH"
);
},
{
closed = 1;
nodes = (
"428 300 OFFCURVE",
"450 322 OFFCURVE",
"450 350 CURVE SMOOTH",
"450 378 OFFCURVE",
"428 400 OFFCURVE",
"400 400 CURVE SMOOTH",
"372 400 OFFCURVE",
"350 378 OFFCURVE",
"350 350 CURVE SMOOTH",
"350 322 OFFCURVE",
"372 300 OFFCURVE",
"400 300 CURVE SMOOTH"
);
},
{
closed = 1;
nodes = (
"128 450 OFFCURVE",
"150 472 OFFCURVE",
"150 500 CURVE SMOOTH",
"150 528 OFFCURVE",
"128 550 OFFCURVE",
"100 550 CURVE SMOOTH",
"72 550 OFFCURVE",
"50 528 OFFCURVE",
"50 500 CURVE SMOOTH",
"50 472 OFFCURVE",
"72 450 OFFCURVE",
"100 450 CURVE SMOOTH"
);
},
{
closed = 1;
nodes = (
"528 450 OFFCURVE",
"550 472 OFFCURVE",
"550 500 CURVE SMOOTH",
"550 528 OFFCURVE",
"528 550 OFFCURVE",
"500 550 CURVE SMOOTH",
"472 550 OFFCURVE",
"450 528 OFFCURVE",
"450 500 CURVE SMOOTH",
"450 472 OFFCURVE",
"472 450 OFFCURVE",
"500 450 CURVE SMOOTH"
);
},
{
closed = 1;
nodes = (
"128 600 OFFCURVE",
"150 622 OFFCURVE",
"150 650 CURVE SMOOTH",
"150 678 OFFCURVE",
"128 700 OFFCURVE",
"100 700 CURVE SMOOTH",
"72 700 OFFCURVE",
"50 678 OFFCURVE",
"50 650 CURVE SMOOTH",
"50 622 OFFCURVE",
"72 600 OFFCURVE",
"100 600 CURVE SMOOTH"
);
},
{
closed = 1;
nodes = (
"228 600 OFFCURVE",
"250 622 OFFCURVE",
"250 650 CURVE SMOOTH",
"250 678 OFFCURVE",
"228 700 OFFCURVE",
"200 700 CURVE SMOOTH",
"172 700 OFFCURVE",
"150 678 OFFCURVE",
"150 650 CURVE SMOOTH",
"150 622 OFFCURVE",
"172 600 OFFCURVE",
"200 600 CURVE SMOOTH"
);
},
{
closed = 1;
nodes = (
"328 600 OFFCURVE",
"350 622 OFFCURVE",
"350 650 CURVE SMOOTH",
"350 678 OFFCURVE",
"328 700 OFFCURVE",
"300 700 CURVE SMOOTH",
"272 700 OFFCURVE",
"250 678 OFFCURVE",
"250 650 CURVE SMOOTH",
"250 622 OFFCURVE",
"272 600 OFFCURVE",
"300 600 CURVE SMOOTH"
);
},
{
closed = 1;
nodes = (
"428 600 OFFCURVE",
"450 622 OFFCURVE",
"450 650 CURVE SMOOTH",
"450 678 OFFCURVE",
"428 700 OFFCURVE",
"400 700 CURVE SMOOTH",
"372 700 OFFCURVE",
"350 678 OFFCURVE",
"350 650 CURVE SMOOTH",
"350 622 OFFCURVE",
"372 600 OFFCURVE",
"400 600 CURVE SMOOTH"
);
}
);
width = 600;
}
);
unicode = 0052;
},
{
glyphname = S;
lastChange = "2024-09-28 14:06:12 +0000";
layers = (
{
anchors = (
{
name = bottom;
position = "{300, 0}";
},
{
name = top;
position = "{300, 700}";
}
);
layerId = "CAAE6B47-272D-418B-B8E9-730CC53AA9A0";
paths = (
{
closed = 1;
nodes = (
"128 0 OFFCURVE",
"150 22 OFFCURVE",
"150 50 CURVE SMOOTH",
"150 78 OFFCURVE",
"128 100 OFFCURVE",
"100 100 CURVE SMOOTH",
"72 100 OFFCURVE",
"50 78 OFFCURVE",
"50 50 CURVE SMOOTH",
"50 22 OFFCURVE",
"72 0 OFFCURVE",
"100 0 CURVE SMOOTH"
);
},
{
closed = 1;
nodes = (
"228 0 OFFCURVE",
"250 22 OFFCURVE",
"250 50 CURVE SMOOTH",
"250 78 OFFCURVE",
"228 100 OFFCURVE",
"200 100 CURVE SMOOTH",
"172 100 OFFCURVE",
"150 78 OFFCURVE",
"150 50 CURVE SMOOTH",
"150 22 OFFCURVE",
"172 0 OFFCURVE",
"200 0 CURVE SMOOTH"
);
},
{
closed = 1;
nodes = (
"328 0 OFFCURVE",
"350 22 OFFCURVE",
"350 50 CURVE SMOOTH",
"350 78 OFFCURVE",
"328 100 OFFCURVE",
"300 100 CURVE SMOOTH",
"272 100 OFFCURVE",
"250 78 OFFCURVE",
"250 50 CURVE SMOOTH",
"250 22 OFFCURVE",
"272 0 OFFCURVE",
"300 0 CURVE SMOOTH"
);
},
{
closed = 1;
nodes = (
"428 0 OFFCURVE",
"450 22 OFFCURVE",
"450 50 CURVE SMOOTH",
"450 78 OFFCURVE",
"428 100 OFFCURVE",
"400 100 CURVE SMOOTH",
"372 100 OFFCURVE",
"350 78 OFFCURVE",
"350 50 CURVE SMOOTH",
"350 22 OFFCURVE",
"372 0 OFFCURVE",
"400 0 CURVE SMOOTH"
);
},
{
closed = 1;
nodes = (
"528 150 OFFCURVE",
"550 172 OFFCURVE",
"550 200 CURVE SMOOTH",
"550 228 OFFCURVE",
"528 250 OFFCURVE",
"500 250 CURVE SMOOTH",
"472 250 OFFCURVE",
"450 228 OFFCURVE",
"450 200 CURVE SMOOTH",
"450 172 OFFCURVE",
"472 150 OFFCURVE",
"500 150 CURVE SMOOTH"
);
},
{
closed = 1;
nodes = (
"228 300 OFFCURVE",
"250 322 OFFCURVE",
"250 350 CURVE SMOOTH",
"250 378 OFFCURVE",
"228 400 OFFCURVE",
"200 400 CURVE SMOOTH",
"172 400 OFFCURVE",
"150 378 OFFCURVE",
"150 350 CURVE SMOOTH",
"150 322 OFFCURVE",
"172 300 OFFCURVE",
"200 300 CURVE SMOOTH"
);
},
{
closed = 1;
nodes = (
"328 300 OFFCURVE",
"350 322 OFFCURVE",
"350 350 CURVE SMOOTH",
"350 378 OFFCURVE",
"328 400 OFFCURVE",
"300 400 CURVE SMOOTH",
"272 400 OFFCURVE",
"250 378 OFFCURVE",
"250 350 CURVE SMOOTH",
"250 322 OFFCURVE",
"272 300 OFFCURVE",
"300 300 CURVE SMOOTH"
);
},
{
closed = 1;
nodes = (
"428 300 OFFCURVE",
"450 322 OFFCURVE",
"450 350 CURVE SMOOTH",
"450 378 OFFCURVE",
"428 400 OFFCURVE",
"400 400 CURVE SMOOTH",
"372 400 OFFCURVE",
"350 378 OFFCURVE",
"350 350 CURVE SMOOTH",
"350 322 OFFCURVE",
"372 300 OFFCURVE",
"400 300 CURVE SMOOTH"
);
},
{
closed = 1;
nodes = (
"128 450 OFFCURVE",
"150 472 OFFCURVE",
"150 500 CURVE SMOOTH",
"150 528 OFFCURVE",
"128 550 OFFCURVE",
"100 550 CURVE SMOOTH",
"72 550 OFFCURVE",
"50 528 OFFCURVE",
"50 500 CURVE SMOOTH",
"50 472 OFFCURVE",
"72 450 OFFCURVE",
"100 450 CURVE SMOOTH"
);
},
{
closed = 1;
nodes = (
"228 600 OFFCURVE",
"250 622 OFFCURVE",
"250 650 CURVE SMOOTH",
"250 678 OFFCURVE",
"228 700 OFFCURVE",
"200 700 CURVE SMOOTH",
"172 700 OFFCURVE",
"150 678 OFFCURVE",
"150 650 CURVE SMOOTH",
"150 622 OFFCURVE",
"172 600 OFFCURVE",
"200 600 CURVE SMOOTH"
);
},
{
closed = 1;
nodes = (
"328 600 OFFCURVE",
"350 622 OFFCURVE",
"350 650 CURVE SMOOTH",
"350 678 OFFCURVE",
"328 700 OFFCURVE",
"300 700 CURVE SMOOTH",
"272 700 OFFCURVE",
"250 678 OFFCURVE",
"250 650 CURVE SMOOTH",
"250 622 OFFCURVE",
"272 600 OFFCURVE",
"300 600 CURVE SMOOTH"
);
},
{
closed = 1;
nodes = (
"428 600 OFFCURVE",
"450 622 OFFCURVE",
"450 650 CURVE SMOOTH",
"450 678 OFFCURVE",
"428 700 OFFCURVE",
"400 700 CURVE SMOOTH",
"372 700 OFFCURVE",
"350 678 OFFCURVE",
"350 650 CURVE SMOOTH",
"350 622 OFFCURVE",
"372 600 OFFCURVE",
"400 600 CURVE SMOOTH"
);
},
{
closed = 1;
nodes = (
"528 600 OFFCURVE",
"550 622 OFFCURVE",
"550 650 CURVE SMOOTH",
"550 678 OFFCURVE",
"528 700 OFFCURVE",
"500 700 CURVE SMOOTH",
"472 700 OFFCURVE",
"450 678 OFFCURVE",
"450 650 CURVE SMOOTH",
"450 622 OFFCURVE",
"472 600 OFFCURVE",
"500 600 CURVE SMOOTH"
);
}
);
width = 600;
}
);
unicode = 0053;
},
{
glyphname = Germandbls;
lastChange = "2024-11-07 09:01:02 +0000";
layers = (
{
layerId = "CAAE6B47-272D-418B-B8E9-730CC53AA9A0";
paths = (
{
closed = 1;
nodes = (
"128 0 OFFCURVE",
"150 22 OFFCURVE",
"150 50 CURVE SMOOTH",
"150 78 OFFCURVE",
"128 100 OFFCURVE",
"100 100 CURVE SMOOTH",
"72 100 OFFCURVE",
"50 78 OFFCURVE",
"50 50 CURVE SMOOTH",
"50 22 OFFCURVE",
"72 0 OFFCURVE",
"100 0 CURVE SMOOTH"
);
},
{
closed = 1;
nodes = (
"428 0 OFFCURVE",
"450 22 OFFCURVE",
"450 50 CURVE SMOOTH",
"450 78 OFFCURVE",
"428 100 OFFCURVE",
"400 100 CURVE SMOOTH",
"372 100 OFFCURVE",
"350 78 OFFCURVE",
"350 50 CURVE SMOOTH",
"350 22 OFFCURVE",
"372 0 OFFCURVE",
"400 0 CURVE SMOOTH"
);
},
{
closed = 1;
nodes = (
"128 150 OFFCURVE",
"150 172 OFFCURVE",
"150 200 CURVE SMOOTH",
"150 228 OFFCURVE",
"128 250 OFFCURVE",
"100 250 CURVE SMOOTH",
"72 250 OFFCURVE",
"50 228 OFFCURVE",
"50 200 CURVE SMOOTH",
"50 172 OFFCURVE",
"72 150 OFFCURVE",
"100 150 CURVE SMOOTH"
);
},
{
closed = 1;
nodes = (
"528 150 OFFCURVE",
"550 172 OFFCURVE",
"550 200 CURVE SMOOTH",
"550 228 OFFCURVE",
"528 250 OFFCURVE",
"500 250 CURVE SMOOTH",
"472 250 OFFCURVE",
"450 228 OFFCURVE",
"450 200 CURVE SMOOTH",
"450 172 OFFCURVE",
"472 150 OFFCURVE",
"500 150 CURVE SMOOTH"
);
},
{
closed = 1;
nodes = (
"128 300 OFFCURVE",
"150 322 OFFCURVE",
"150 350 CURVE SMOOTH",
"150 378 OFFCURVE",
"128 400 OFFCURVE",
"100 400 CURVE SMOOTH",
"72 400 OFFCURVE",
"50 378 OFFCURVE",
"50 350 CURVE SMOOTH",
"50 322 OFFCURVE",
"72 300 OFFCURVE",
"100 300 CURVE SMOOTH"
);
},
{
closed = 1;
nodes = (
"428 300 OFFCURVE",
"450 322 OFFCURVE",
"450 350 CURVE SMOOTH",
"450 378 OFFCURVE",
"428 400 OFFCURVE",
"400 400 CURVE SMOOTH",
"372 400 OFFCURVE",
"350 378 OFFCURVE",
"350 350 CURVE SMOOTH",
"350 322 OFFCURVE",
"372 300 OFFCURVE",
"400 300 CURVE SMOOTH"
);
},
{
closed = 1;
nodes = (
"128 450 OFFCURVE",
"150 472 OFFCURVE",
"150 500 CURVE SMOOTH",
"150 528 OFFCURVE",
"128 550 OFFCURVE",
"100 550 CURVE SMOOTH",
"72 550 OFFCURVE",
"50 528 OFFCURVE",
"50 500 CURVE SMOOTH",
"50 472 OFFCURVE",
"72 450 OFFCURVE",
"100 450 CURVE SMOOTH"
);
},
{
closed = 1;
nodes = (
"528 450 OFFCURVE",
"550 472 OFFCURVE",
"550 500 CURVE SMOOTH",
"550 528 OFFCURVE",
"528 550 OFFCURVE",
"500 550 CURVE SMOOTH",
"472 550 OFFCURVE",
"450 528 OFFCURVE",
"450 500 CURVE SMOOTH",
"450 472 OFFCURVE",
"472 450 OFFCURVE",
"500 450 CURVE SMOOTH"
);
},
{
closed = 1;
nodes = (
"228 600 OFFCURVE",
"250 622 OFFCURVE",
"250 650 CURVE SMOOTH",
"250 678 OFFCURVE",
"228 700 OFFCURVE",
"200 700 CURVE SMOOTH",
"172 700 OFFCURVE",
"150 678 OFFCURVE",
"150 650 CURVE SMOOTH",
"150 622 OFFCURVE",
"172 600 OFFCURVE",
"200 600 CURVE SMOOTH"
);
},
{
closed = 1;
nodes = (
"328 600 OFFCURVE",
"350 622 OFFCURVE",
"350 650 CURVE SMOOTH",
"350 678 OFFCURVE",
"328 700 OFFCURVE",
"300 700 CURVE SMOOTH",
"272 700 OFFCURVE",
"250 678 OFFCURVE",
"250 650 CURVE SMOOTH",
"250 622 OFFCURVE",
"272 600 OFFCURVE",
"300 600 CURVE SMOOTH"
);
},
{
closed = 1;
nodes = (
"428 600 OFFCURVE",
"450 622 OFFCURVE",
"450 650 CURVE SMOOTH",
"450 678 OFFCURVE",
"428 700 OFFCURVE",
"400 700 CURVE SMOOTH",
"372 700 OFFCURVE",
"350 678 OFFCURVE",
"350 650 CURVE SMOOTH",
"350 622 OFFCURVE",
"372 600 OFFCURVE",
"400 600 CURVE SMOOTH"
);
},
{
closed = 1;
nodes = (
"328 0 OFFCURVE",
"350 22 OFFCURVE",
"350 50 CURVE SMOOTH",
"350 78 OFFCURVE",
"328 100 OFFCURVE",
"300 100 CURVE SMOOTH",
"272 100 OFFCURVE",
"250 78 OFFCURVE",
"250 50 CURVE SMOOTH",
"250 22 OFFCURVE",
"272 0 OFFCURVE",
"300 0 CURVE SMOOTH"
);
},
{
closed = 1;
nodes = (
"328 300 OFFCURVE",
"350 322 OFFCURVE",
"350 350 CURVE SMOOTH",
"350 378 OFFCURVE",
"328 400 OFFCURVE",
"300 400 CURVE SMOOTH",
"272 400 OFFCURVE",
"250 378 OFFCURVE",
"250 350 CURVE SMOOTH",
"250 322 OFFCURVE",
"272 300 OFFCURVE",
"300 300 CURVE SMOOTH"
);
}
);
width = 600;
}
);
unicode = 1E9E;
},
{
glyphname = T;
lastChange = "2024-09-28 14:06:27 +0000";
layers = (
{
anchors = (
{
name = bottom;
position = "{300, 0}";
},
{
name = center;
position = "{300, 350}";
},
{
name = top;
position = "{300, 700}";
}
);
layerId = "CAAE6B47-272D-418B-B8E9-730CC53AA9A0";
paths = (
{
closed = 1;
nodes = (
"328 0 OFFCURVE",
"350 22 OFFCURVE",
"350 50 CURVE SMOOTH",
"350 78 OFFCURVE",
"328 100 OFFCURVE",
"300 100 CURVE SMOOTH",
"272 100 OFFCURVE",
"250 78 OFFCURVE",
"250 50 CURVE SMOOTH",
"250 22 OFFCURVE",
"272 0 OFFCURVE",
"300 0 CURVE SMOOTH"
);
},
{
closed = 1;
nodes = (
"328 150 OFFCURVE",
"350 172 OFFCURVE",
"350 200 CURVE SMOOTH",
"350 228 OFFCURVE",
"328 250 OFFCURVE",
"300 250 CURVE SMOOTH",
"272 250 OFFCURVE",
"250 228 OFFCURVE",
"250 200 CURVE SMOOTH",
"250 172 OFFCURVE",
"272 150 OFFCURVE",
"300 150 CURVE SMOOTH"
);
},
{
closed = 1;
nodes = (
"328 300 OFFCURVE",
"350 322 OFFCURVE",
"350 350 CURVE SMOOTH",
"350 378 OFFCURVE",
"328 400 OFFCURVE",
"300 400 CURVE SMOOTH",
"272 400 OFFCURVE",
"250 378 OFFCURVE",
"250 350 CURVE SMOOTH",
"250 322 OFFCURVE",
"272 300 OFFCURVE",
"300 300 CURVE SMOOTH"
);
},
{
closed = 1;
nodes = (
"328 450 OFFCURVE",
"350 472 OFFCURVE",
"350 500 CURVE SMOOTH",
"350 528 OFFCURVE",
"328 550 OFFCURVE",
"300 550 CURVE SMOOTH",
"272 550 OFFCURVE",
"250 528 OFFCURVE",
"250 500 CURVE SMOOTH",
"250 472 OFFCURVE",
"272 450 OFFCURVE",
"300 450 CURVE SMOOTH"
);
},
{
closed = 1;
nodes = (
"128 600 OFFCURVE",
"150 622 OFFCURVE",
"150 650 CURVE SMOOTH",
"150 678 OFFCURVE",
"128 700 OFFCURVE",
"100 700 CURVE SMOOTH",
"72 700 OFFCURVE",
"50 678 OFFCURVE",
"50 650 CURVE SMOOTH",
"50 622 OFFCURVE",
"72 600 OFFCURVE",
"100 600 CURVE SMOOTH"
);
},
{
closed = 1;
nodes = (
"228 600 OFFCURVE",
"250 622 OFFCURVE",
"250 650 CURVE SMOOTH",
"250 678 OFFCURVE",
"228 700 OFFCURVE",
"200 700 CURVE SMOOTH",
"172 700 OFFCURVE",
"150 678 OFFCURVE",
"150 650 CURVE SMOOTH",
"150 622 OFFCURVE",
"172 600 OFFCURVE",
"200 600 CURVE SMOOTH"
);
},
{
closed = 1;
nodes = (
"328 600 OFFCURVE",
"350 622 OFFCURVE",
"350 650 CURVE SMOOTH",
"350 678 OFFCURVE",
"328 700 OFFCURVE",
"300 700 CURVE SMOOTH",
"272 700 OFFCURVE",
"250 678 OFFCURVE",
"250 650 CURVE SMOOTH",
"250 622 OFFCURVE",
"272 600 OFFCURVE",
"300 600 CURVE SMOOTH"
);
},
{
closed = 1;
nodes = (
"428 600 OFFCURVE",
"450 622 OFFCURVE",
"450 650 CURVE SMOOTH",
"450 678 OFFCURVE",
"428 700 OFFCURVE",
"400 700 CURVE SMOOTH",
"372 700 OFFCURVE",
"350 678 OFFCURVE",
"350 650 CURVE SMOOTH",
"350 622 OFFCURVE",
"372 600 OFFCURVE",
"400 600 CURVE SMOOTH"
);
},
{
closed = 1;
nodes = (
"528 600 OFFCURVE",
"550 622 OFFCURVE",
"550 650 CURVE SMOOTH",
"550 678 OFFCURVE",
"528 700 OFFCURVE",
"500 700 CURVE SMOOTH",
"472 700 OFFCURVE",
"450 678 OFFCURVE",
"450 650 CURVE SMOOTH",
"450 622 OFFCURVE",
"472 600 OFFCURVE",
"500 600 CURVE SMOOTH"
);
}
);
width = 600;
}
);
unicode = 0054;
},
{
glyphname = U;
lastChange = "2024-09-28 14:06:50 +0000";
layers = (
{
anchors = (
{
name = bottom;
position = "{300, 0}";
},
{
name = ogonek;
position = "{550, 0}";
},
{
name = top;
position = "{300, 700}";
},
{
name = topright;
position = "{550, 700}";
}
);
layerId = "CAAE6B47-272D-418B-B8E9-730CC53AA9A0";
paths = (
{
closed = 1;
nodes = (
"228 0 OFFCURVE",
"250 22 OFFCURVE",
"250 50 CURVE SMOOTH",
"250 78 OFFCURVE",
"228 100 OFFCURVE",
"200 100 CURVE SMOOTH",
"172 100 OFFCURVE",
"150 78 OFFCURVE",
"150 50 CURVE SMOOTH",
"150 22 OFFCURVE",
"172 0 OFFCURVE",
"200 0 CURVE SMOOTH"
);
},
{
closed = 1;
nodes = (
"328 0 OFFCURVE",
"350 22 OFFCURVE",
"350 50 CURVE SMOOTH",
"350 78 OFFCURVE",
"328 100 OFFCURVE",
"300 100 CURVE SMOOTH",
"272 100 OFFCURVE",
"250 78 OFFCURVE",
"250 50 CURVE SMOOTH",
"250 22 OFFCURVE",
"272 0 OFFCURVE",
"300 0 CURVE SMOOTH"
);
},
{
closed = 1;
nodes = (
"428 0 OFFCURVE",
"450 22 OFFCURVE",
"450 50 CURVE SMOOTH",
"450 78 OFFCURVE",
"428 100 OFFCURVE",
"400 100 CURVE SMOOTH",
"372 100 OFFCURVE",
"350 78 OFFCURVE",
"350 50 CURVE SMOOTH",
"350 22 OFFCURVE",
"372 0 OFFCURVE",
"400 0 CURVE SMOOTH"
);
},
{
closed = 1;
nodes = (
"128 150 OFFCURVE",
"150 172 OFFCURVE",
"150 200 CURVE SMOOTH",
"150 228 OFFCURVE",
"128 250 OFFCURVE",
"100 250 CURVE SMOOTH",
"72 250 OFFCURVE",
"50 228 OFFCURVE",
"50 200 CURVE SMOOTH",
"50 172 OFFCURVE",
"72 150 OFFCURVE",
"100 150 CURVE SMOOTH"
);
},
{
closed = 1;
nodes = (
"528 150 OFFCURVE",
"550 172 OFFCURVE",
"550 200 CURVE SMOOTH",
"550 228 OFFCURVE",
"528 250 OFFCURVE",
"500 250 CURVE SMOOTH",
"472 250 OFFCURVE",
"450 228 OFFCURVE",
"450 200 CURVE SMOOTH",
"450 172 OFFCURVE",
"472 150 OFFCURVE",
"500 150 CURVE SMOOTH"
);
},
{
closed = 1;
nodes = (
"128 300 OFFCURVE",
"150 322 OFFCURVE",
"150 350 CURVE SMOOTH",
"150 378 OFFCURVE",
"128 400 OFFCURVE",
"100 400 CURVE SMOOTH",
"72 400 OFFCURVE",
"50 378 OFFCURVE",
"50 350 CURVE SMOOTH",
"50 322 OFFCURVE",
"72 300 OFFCURVE",
"100 300 CURVE SMOOTH"
);
},
{
closed = 1;
nodes = (
"528 300 OFFCURVE",
"550 322 OFFCURVE",
"550 350 CURVE SMOOTH",
"550 378 OFFCURVE",
"528 400 OFFCURVE",
"500 400 CURVE SMOOTH",
"472 400 OFFCURVE",
"450 378 OFFCURVE",
"450 350 CURVE SMOOTH",
"450 322 OFFCURVE",
"472 300 OFFCURVE",
"500 300 CURVE SMOOTH"
);
},
{
closed = 1;
nodes = (
"128 450 OFFCURVE",
"150 472 OFFCURVE",
"150 500 CURVE SMOOTH",
"150 528 OFFCURVE",
"128 550 OFFCURVE",
"100 550 CURVE SMOOTH",
"72 550 OFFCURVE",
"50 528 OFFCURVE",
"50 500 CURVE SMOOTH",
"50 472 OFFCURVE",
"72 450 OFFCURVE",
"100 450 CURVE SMOOTH"
);
},
{
closed = 1;
nodes = (
"528 450 OFFCURVE",
"550 472 OFFCURVE",
"550 500 CURVE SMOOTH",
"550 528 OFFCURVE",
"528 550 OFFCURVE",
"500 550 CURVE SMOOTH",
"472 550 OFFCURVE",
"450 528 OFFCURVE",
"450 500 CURVE SMOOTH",
"450 472 OFFCURVE",
"472 450 OFFCURVE",
"500 450 CURVE SMOOTH"
);
},
{
closed = 1;
nodes = (
"128 600 OFFCURVE",
"150 622 OFFCURVE",
"150 650 CURVE SMOOTH",
"150 678 OFFCURVE",
"128 700 OFFCURVE",
"100 700 CURVE SMOOTH",
"72 700 OFFCURVE",
"50 678 OFFCURVE",
"50 650 CURVE SMOOTH",
"50 622 OFFCURVE",
"72 600 OFFCURVE",
"100 600 CURVE SMOOTH"
);
},
{
closed = 1;
nodes = (
"528 600 OFFCURVE",
"550 622 OFFCURVE",
"550 650 CURVE SMOOTH",
"550 678 OFFCURVE",
"528 700 OFFCURVE",
"500 700 CURVE SMOOTH",
"472 700 OFFCURVE",
"450 678 OFFCURVE",
"450 650 CURVE SMOOTH",
"450 622 OFFCURVE",
"472 600 OFFCURVE",
"500 600 CURVE SMOOTH"
);
}
);
width = 600;
}
);
unicode = 0055;
},
{
glyphname = V;
lastChange = "2024-11-22 08:45:28 +0000";
layers = (
{
layerId = "CAAE6B47-272D-418B-B8E9-730CC53AA9A0";
paths = (
{
closed = 1;
nodes = (
"328 0 OFFCURVE",
"350 22 OFFCURVE",
"350 50 CURVE SMOOTH",
"350 78 OFFCURVE",
"328 100 OFFCURVE",
"300 100 CURVE SMOOTH",
"272 100 OFFCURVE",
"250 78 OFFCURVE",
"250 50 CURVE SMOOTH",
"250 22 OFFCURVE",
"272 0 OFFCURVE",
"300 0 CURVE SMOOTH"
);
},
{
closed = 1;
nodes = (
"228 150 OFFCURVE",
"250 172 OFFCURVE",
"250 200 CURVE SMOOTH",
"250 228 OFFCURVE",
"228 250 OFFCURVE",
"200 250 CURVE SMOOTH",
"172 250 OFFCURVE",
"150 228 OFFCURVE",
"150 200 CURVE SMOOTH",
"150 172 OFFCURVE",
"172 150 OFFCURVE",
"200 150 CURVE SMOOTH"
);
},
{
closed = 1;
nodes = (
"428 150 OFFCURVE",
"450 172 OFFCURVE",
"450 200 CURVE SMOOTH",
"450 228 OFFCURVE",
"428 250 OFFCURVE",
"400 250 CURVE SMOOTH",
"372 250 OFFCURVE",
"350 228 OFFCURVE",
"350 200 CURVE SMOOTH",
"350 172 OFFCURVE",
"372 150 OFFCURVE",
"400 150 CURVE SMOOTH"
);
},
{
closed = 1;
nodes = (
"128 300 OFFCURVE",
"150 322 OFFCURVE",
"150 350 CURVE SMOOTH",
"150 378 OFFCURVE",
"128 400 OFFCURVE",
"100 400 CURVE SMOOTH",
"72 400 OFFCURVE",
"50 378 OFFCURVE",
"50 350 CURVE SMOOTH",
"50 322 OFFCURVE",
"72 300 OFFCURVE",
"100 300 CURVE SMOOTH"
);
},
{
closed = 1;
nodes = (
"528 300 OFFCURVE",
"550 322 OFFCURVE",
"550 350 CURVE SMOOTH",
"550 378 OFFCURVE",
"528 400 OFFCURVE",
"500 400 CURVE SMOOTH",
"472 400 OFFCURVE",
"450 378 OFFCURVE",
"450 350 CURVE SMOOTH",
"450 322 OFFCURVE",
"472 300 OFFCURVE",
"500 300 CURVE SMOOTH"
);
},
{
closed = 1;
nodes = (
"128 450 OFFCURVE",
"150 472 OFFCURVE",
"150 500 CURVE SMOOTH",
"150 528 OFFCURVE",
"128 550 OFFCURVE",
"100 550 CURVE SMOOTH",
"72 550 OFFCURVE",
"50 528 OFFCURVE",
"50 500 CURVE SMOOTH",
"50 472 OFFCURVE",
"72 450 OFFCURVE",
"100 450 CURVE SMOOTH"
);
},
{
closed = 1;
nodes = (
"528 450 OFFCURVE",
"550 472 OFFCURVE",
"550 500 CURVE SMOOTH",
"550 528 OFFCURVE",
"528 550 OFFCURVE",
"500 550 CURVE SMOOTH",
"472 550 OFFCURVE",
"450 528 OFFCURVE",
"450 500 CURVE SMOOTH",
"450 472 OFFCURVE",
"472 450 OFFCURVE",
"500 450 CURVE SMOOTH"
);
},
{
closed = 1;
nodes = (
"128 600 OFFCURVE",
"150 622 OFFCURVE",
"150 650 CURVE SMOOTH",
"150 678 OFFCURVE",
"128 700 OFFCURVE",
"100 700 CURVE SMOOTH",
"72 700 OFFCURVE",
"50 678 OFFCURVE",
"50 650 CURVE SMOOTH",
"50 622 OFFCURVE",
"72 600 OFFCURVE",
"100 600 CURVE SMOOTH"
);
},
{
closed = 1;
nodes = (
"528 600 OFFCURVE",
"550 622 OFFCURVE",
"550 650 CURVE SMOOTH",
"550 678 OFFCURVE",
"528 700 OFFCURVE",
"500 700 CURVE SMOOTH",
"472 700 OFFCURVE",
"450 678 OFFCURVE",
"450 650 CURVE SMOOTH",
"450 622 OFFCURVE",
"472 600 OFFCURVE",
"500 600 CURVE SMOOTH"
);
}
);
width = 600;
}
);
unicode = 0056;
},
{
glyphname = W;
lastChange = "2024-09-28 14:07:41 +0000";
layers = (
{
anchors = (
{
name = bottom;
position = "{300, 0}";
},
{
name = top;
position = "{300, 700}";
}
);
layerId = "CAAE6B47-272D-418B-B8E9-730CC53AA9A0";
paths = (
{
closed = 1;
nodes = (
"228 0 OFFCURVE",
"250 22 OFFCURVE",
"250 50 CURVE SMOOTH",
"250 78 OFFCURVE",
"228 100 OFFCURVE",
"200 100 CURVE SMOOTH",
"172 100 OFFCURVE",
"150 78 OFFCURVE",
"150 50 CURVE SMOOTH",
"150 22 OFFCURVE",
"172 0 OFFCURVE",
"200 0 CURVE SMOOTH"
);
},
{
closed = 1;
nodes = (
"428 0 OFFCURVE",
"450 22 OFFCURVE",
"450 50 CURVE SMOOTH",
"450 78 OFFCURVE",
"428 100 OFFCURVE",
"400 100 CURVE SMOOTH",
"372 100 OFFCURVE",
"350 78 OFFCURVE",
"350 50 CURVE SMOOTH",
"350 22 OFFCURVE",
"372 0 OFFCURVE",
"400 0 CURVE SMOOTH"
);
},
{
closed = 1;
nodes = (
"128 150 OFFCURVE",
"150 172 OFFCURVE",
"150 200 CURVE SMOOTH",
"150 228 OFFCURVE",
"128 250 OFFCURVE",
"100 250 CURVE SMOOTH",
"72 250 OFFCURVE",
"50 228 OFFCURVE",
"50 200 CURVE SMOOTH",
"50 172 OFFCURVE",
"72 150 OFFCURVE",
"100 150 CURVE SMOOTH"
);
},
{
closed = 1;
nodes = (
"328 150 OFFCURVE",
"350 172 OFFCURVE",
"350 200 CURVE SMOOTH",
"350 228 OFFCURVE",
"328 250 OFFCURVE",
"300 250 CURVE SMOOTH",
"272 250 OFFCURVE",
"250 228 OFFCURVE",
"250 200 CURVE SMOOTH",
"250 172 OFFCURVE",
"272 150 OFFCURVE",
"300 150 CURVE SMOOTH"
);
},
{
closed = 1;
nodes = (
"528 150 OFFCURVE",
"550 172 OFFCURVE",
"550 200 CURVE SMOOTH",
"550 228 OFFCURVE",
"528 250 OFFCURVE",
"500 250 CURVE SMOOTH",
"472 250 OFFCURVE",
"450 228 OFFCURVE",
"450 200 CURVE SMOOTH",
"450 172 OFFCURVE",
"472 150 OFFCURVE",
"500 150 CURVE SMOOTH"
);
},
{
closed = 1;
nodes = (
"128 300 OFFCURVE",
"150 322 OFFCURVE",
"150 350 CURVE SMOOTH",
"150 378 OFFCURVE",
"128 400 OFFCURVE",
"100 400 CURVE SMOOTH",
"72 400 OFFCURVE",
"50 378 OFFCURVE",
"50 350 CURVE SMOOTH",
"50 322 OFFCURVE",
"72 300 OFFCURVE",
"100 300 CURVE SMOOTH"
);
},
{
closed = 1;
nodes = (
"328 300 OFFCURVE",
"350 322 OFFCURVE",
"350 350 CURVE SMOOTH",
"350 378 OFFCURVE",
"328 400 OFFCURVE",
"300 400 CURVE SMOOTH",
"272 400 OFFCURVE",
"250 378 OFFCURVE",
"250 350 CURVE SMOOTH",
"250 322 OFFCURVE",
"272 300 OFFCURVE",
"300 300 CURVE SMOOTH"
);
},
{
closed = 1;
nodes = (
"528 300 OFFCURVE",
"550 322 OFFCURVE",
"550 350 CURVE SMOOTH",
"550 378 OFFCURVE",
"528 400 OFFCURVE",
"500 400 CURVE SMOOTH",
"472 400 OFFCURVE",
"450 378 OFFCURVE",
"450 350 CURVE SMOOTH",
"450 322 OFFCURVE",
"472 300 OFFCURVE",
"500 300 CURVE SMOOTH"
);
},
{
closed = 1;
nodes = (
"128 450 OFFCURVE",
"150 472 OFFCURVE",
"150 500 CURVE SMOOTH",
"150 528 OFFCURVE",
"128 550 OFFCURVE",
"100 550 CURVE SMOOTH",
"72 550 OFFCURVE",
"50 528 OFFCURVE",
"50 500 CURVE SMOOTH",
"50 472 OFFCURVE",
"72 450 OFFCURVE",
"100 450 CURVE SMOOTH"
);
},
{
closed = 1;
nodes = (
"528 450 OFFCURVE",
"550 472 OFFCURVE",
"550 500 CURVE SMOOTH",
"550 528 OFFCURVE",
"528 550 OFFCURVE",
"500 550 CURVE SMOOTH",
"472 550 OFFCURVE",
"450 528 OFFCURVE",
"450 500 CURVE SMOOTH",
"450 472 OFFCURVE",
"472 450 OFFCURVE",
"500 450 CURVE SMOOTH"
);
},
{
closed = 1;
nodes = (
"128 600 OFFCURVE",
"150 622 OFFCURVE",
"150 650 CURVE SMOOTH",
"150 678 OFFCURVE",
"128 700 OFFCURVE",
"100 700 CURVE SMOOTH",
"72 700 OFFCURVE",
"50 678 OFFCURVE",
"50 650 CURVE SMOOTH",
"50 622 OFFCURVE",
"72 600 OFFCURVE",
"100 600 CURVE SMOOTH"
);
},
{
closed = 1;
nodes = (
"528 600 OFFCURVE",
"550 622 OFFCURVE",
"550 650 CURVE SMOOTH",
"550 678 OFFCURVE",
"528 700 OFFCURVE",
"500 700 CURVE SMOOTH",
"472 700 OFFCURVE",
"450 678 OFFCURVE",
"450 650 CURVE SMOOTH",
"450 622 OFFCURVE",
"472 600 OFFCURVE",
"500 600 CURVE SMOOTH"
);
}
);
width = 600;
}
);
unicode = 0057;
},
{
glyphname = X;
lastChange = "2024-11-22 08:45:28 +0000";
layers = (
{
layerId = "CAAE6B47-272D-418B-B8E9-730CC53AA9A0";
paths = (
{
closed = 1;
nodes = (
"128 0 OFFCURVE",
"150 22 OFFCURVE",
"150 50 CURVE SMOOTH",
"150 78 OFFCURVE",
"128 100 OFFCURVE",
"100 100 CURVE SMOOTH",
"72 100 OFFCURVE",
"50 78 OFFCURVE",
"50 50 CURVE SMOOTH",
"50 22 OFFCURVE",
"72 0 OFFCURVE",
"100 0 CURVE SMOOTH"
);
},
{
closed = 1;
nodes = (
"128 600 OFFCURVE",
"150 622 OFFCURVE",
"150 650 CURVE SMOOTH",
"150 678 OFFCURVE",
"128 700 OFFCURVE",
"100 700 CURVE SMOOTH",
"72 700 OFFCURVE",
"50 678 OFFCURVE",
"50 650 CURVE SMOOTH",
"50 622 OFFCURVE",
"72 600 OFFCURVE",
"100 600 CURVE SMOOTH"
);
},
{
closed = 1;
nodes = (
"228 150 OFFCURVE",
"250 172 OFFCURVE",
"250 200 CURVE SMOOTH",
"250 228 OFFCURVE",
"228 250 OFFCURVE",
"200 250 CURVE SMOOTH",
"172 250 OFFCURVE",
"150 228 OFFCURVE",
"150 200 CURVE SMOOTH",
"150 172 OFFCURVE",
"172 150 OFFCURVE",
"200 150 CURVE SMOOTH"
);
},
{
closed = 1;
nodes = (
"228 450 OFFCURVE",
"250 472 OFFCURVE",
"250 500 CURVE SMOOTH",
"250 528 OFFCURVE",
"228 550 OFFCURVE",
"200 550 CURVE SMOOTH",
"172 550 OFFCURVE",
"150 528 OFFCURVE",
"150 500 CURVE SMOOTH",
"150 472 OFFCURVE",
"172 450 OFFCURVE",
"200 450 CURVE SMOOTH"
);
},
{
closed = 1;
nodes = (
"328 300 OFFCURVE",
"350 322 OFFCURVE",
"350 350 CURVE SMOOTH",
"350 378 OFFCURVE",
"328 400 OFFCURVE",
"300 400 CURVE SMOOTH",
"272 400 OFFCURVE",
"250 378 OFFCURVE",
"250 350 CURVE SMOOTH",
"250 322 OFFCURVE",
"272 300 OFFCURVE",
"300 300 CURVE SMOOTH"
);
},
{
closed = 1;
nodes = (
"428 150 OFFCURVE",
"450 172 OFFCURVE",
"450 200 CURVE SMOOTH",
"450 228 OFFCURVE",
"428 250 OFFCURVE",
"400 250 CURVE SMOOTH",
"372 250 OFFCURVE",
"350 228 OFFCURVE",
"350 200 CURVE SMOOTH",
"350 172 OFFCURVE",
"372 150 OFFCURVE",
"400 150 CURVE SMOOTH"
);
},
{
closed = 1;
nodes = (
"428 450 OFFCURVE",
"450 472 OFFCURVE",
"450 500 CURVE SMOOTH",
"450 528 OFFCURVE",
"428 550 OFFCURVE",
"400 550 CURVE SMOOTH",
"372 550 OFFCURVE",
"350 528 OFFCURVE",
"350 500 CURVE SMOOTH",
"350 472 OFFCURVE",
"372 450 OFFCURVE",
"400 450 CURVE SMOOTH"
);
},
{
closed = 1;
nodes = (
"528 0 OFFCURVE",
"550 22 OFFCURVE",
"550 50 CURVE SMOOTH",
"550 78 OFFCURVE",
"528 100 OFFCURVE",
"500 100 CURVE SMOOTH",
"472 100 OFFCURVE",
"450 78 OFFCURVE",
"450 50 CURVE SMOOTH",
"450 22 OFFCURVE",
"472 0 OFFCURVE",
"500 0 CURVE SMOOTH"
);
},
{
closed = 1;
nodes = (
"528 600 OFFCURVE",
"550 622 OFFCURVE",
"550 650 CURVE SMOOTH",
"550 678 OFFCURVE",
"528 700 OFFCURVE",
"500 700 CURVE SMOOTH",
"472 700 OFFCURVE",
"450 678 OFFCURVE",
"450 650 CURVE SMOOTH",
"450 622 OFFCURVE",
"472 600 OFFCURVE",
"500 600 CURVE SMOOTH"
);
}
);
width = 600;
}
);
unicode = 0058;
},
{
glyphname = Y;
lastChange = "2024-10-04 14:21:04 +0000";
layers = (
{
anchors = (
{
name = bottom;
position = "{300, 0}";
},
{
name = top;
position = "{300, 700}";
},
{
name = topleft;
position = "{50, 700}";
}
);
layerId = "CAAE6B47-272D-418B-B8E9-730CC53AA9A0";
paths = (
{
closed = 1;
nodes = (
"128 600 OFFCURVE",
"150 622 OFFCURVE",
"150 650 CURVE SMOOTH",
"150 678 OFFCURVE",
"128 700 OFFCURVE",
"100 700 CURVE SMOOTH",
"72 700 OFFCURVE",
"50 678 OFFCURVE",
"50 650 CURVE SMOOTH",
"50 622 OFFCURVE",
"72 600 OFFCURVE",
"100 600 CURVE SMOOTH"
);
},
{
closed = 1;
nodes = (
"228 450 OFFCURVE",
"250 472 OFFCURVE",
"250 500 CURVE SMOOTH",
"250 528 OFFCURVE",
"228 550 OFFCURVE",
"200 550 CURVE SMOOTH",
"172 550 OFFCURVE",
"150 528 OFFCURVE",
"150 500 CURVE SMOOTH",
"150 472 OFFCURVE",
"172 450 OFFCURVE",
"200 450 CURVE SMOOTH"
);
},
{
closed = 1;
nodes = (
"328 0 OFFCURVE",
"350 22 OFFCURVE",
"350 50 CURVE SMOOTH",
"350 78 OFFCURVE",
"328 100 OFFCURVE",
"300 100 CURVE SMOOTH",
"272 100 OFFCURVE",
"250 78 OFFCURVE",
"250 50 CURVE SMOOTH",
"250 22 OFFCURVE",
"272 0 OFFCURVE",
"300 0 CURVE SMOOTH"
);
},
{
closed = 1;
nodes = (
"328 150 OFFCURVE",
"350 172 OFFCURVE",
"350 200 CURVE SMOOTH",
"350 228 OFFCURVE",
"328 250 OFFCURVE",
"300 250 CURVE SMOOTH",
"272 250 OFFCURVE",
"250 228 OFFCURVE",
"250 200 CURVE SMOOTH",
"250 172 OFFCURVE",
"272 150 OFFCURVE",
"300 150 CURVE SMOOTH"
);
},
{
closed = 1;
nodes = (
"328 300 OFFCURVE",
"350 322 OFFCURVE",
"350 350 CURVE SMOOTH",
"350 378 OFFCURVE",
"328 400 OFFCURVE",
"300 400 CURVE SMOOTH",
"272 400 OFFCURVE",
"250 378 OFFCURVE",
"250 350 CURVE SMOOTH",
"250 322 OFFCURVE",
"272 300 OFFCURVE",
"300 300 CURVE SMOOTH"
);
},
{
closed = 1;
nodes = (
"428 450 OFFCURVE",
"450 472 OFFCURVE",
"450 500 CURVE SMOOTH",
"450 528 OFFCURVE",
"428 550 OFFCURVE",
"400 550 CURVE SMOOTH",
"372 550 OFFCURVE",
"350 528 OFFCURVE",
"350 500 CURVE SMOOTH",
"350 472 OFFCURVE",
"372 450 OFFCURVE",
"400 450 CURVE SMOOTH"
);
},
{
closed = 1;
nodes = (
"528 600 OFFCURVE",
"550 622 OFFCURVE",
"550 650 CURVE SMOOTH",
"550 678 OFFCURVE",
"528 700 OFFCURVE",
"500 700 CURVE SMOOTH",
"472 700 OFFCURVE",
"450 678 OFFCURVE",
"450 650 CURVE SMOOTH",
"450 622 OFFCURVE",
"472 600 OFFCURVE",
"500 600 CURVE SMOOTH"
);
}
);
width = 600;
}
);
unicode = 0059;
},
{
glyphname = Z;
lastChange = "2024-09-28 14:08:47 +0000";
layers = (
{
anchors = (
{
name = bottom;
position = "{300, 0}";
},
{
name = center;
position = "{300, 350}";
},
{
name = top;
position = "{300, 700}";
}
);
layerId = "CAAE6B47-272D-418B-B8E9-730CC53AA9A0";
paths = (
{
closed = 1;
nodes = (
"128 0 OFFCURVE",
"150 22 OFFCURVE",
"150 50 CURVE SMOOTH",
"150 78 OFFCURVE",
"128 100 OFFCURVE",
"100 100 CURVE SMOOTH",
"72 100 OFFCURVE",
"50 78 OFFCURVE",
"50 50 CURVE SMOOTH",
"50 22 OFFCURVE",
"72 0 OFFCURVE",
"100 0 CURVE SMOOTH"
);
},
{
closed = 1;
nodes = (
"228 0 OFFCURVE",
"250 22 OFFCURVE",
"250 50 CURVE SMOOTH",
"250 78 OFFCURVE",
"228 100 OFFCURVE",
"200 100 CURVE SMOOTH",
"172 100 OFFCURVE",
"150 78 OFFCURVE",
"150 50 CURVE SMOOTH",
"150 22 OFFCURVE",
"172 0 OFFCURVE",
"200 0 CURVE SMOOTH"
);
},
{
closed = 1;
nodes = (
"328 0 OFFCURVE",
"350 22 OFFCURVE",
"350 50 CURVE SMOOTH",
"350 78 OFFCURVE",
"328 100 OFFCURVE",
"300 100 CURVE SMOOTH",
"272 100 OFFCURVE",
"250 78 OFFCURVE",
"250 50 CURVE SMOOTH",
"250 22 OFFCURVE",
"272 0 OFFCURVE",
"300 0 CURVE SMOOTH"
);
},
{
closed = 1;
nodes = (
"428 0 OFFCURVE",
"450 22 OFFCURVE",
"450 50 CURVE SMOOTH",
"450 78 OFFCURVE",
"428 100 OFFCURVE",
"400 100 CURVE SMOOTH",
"372 100 OFFCURVE",
"350 78 OFFCURVE",
"350 50 CURVE SMOOTH",
"350 22 OFFCURVE",
"372 0 OFFCURVE",
"400 0 CURVE SMOOTH"
);
},
{
closed = 1;
nodes = (
"528 0 OFFCURVE",
"550 22 OFFCURVE",
"550 50 CURVE SMOOTH",
"550 78 OFFCURVE",
"528 100 OFFCURVE",
"500 100 CURVE SMOOTH",
"472 100 OFFCURVE",
"450 78 OFFCURVE",
"450 50 CURVE SMOOTH",
"450 22 OFFCURVE",
"472 0 OFFCURVE",
"500 0 CURVE SMOOTH"
);
},
{
closed = 1;
nodes = (
"228 150 OFFCURVE",
"250 172 OFFCURVE",
"250 200 CURVE SMOOTH",
"250 228 OFFCURVE",
"228 250 OFFCURVE",
"200 250 CURVE SMOOTH",
"172 250 OFFCURVE",
"150 228 OFFCURVE",
"150 200 CURVE SMOOTH",
"150 172 OFFCURVE",
"172 150 OFFCURVE",
"200 150 CURVE SMOOTH"
);
},
{
closed = 1;
nodes = (
"328 300 OFFCURVE",
"350 322 OFFCURVE",
"350 350 CURVE SMOOTH",
"350 378 OFFCURVE",
"328 400 OFFCURVE",
"300 400 CURVE SMOOTH",
"272 400 OFFCURVE",
"250 378 OFFCURVE",
"250 350 CURVE SMOOTH",
"250 322 OFFCURVE",
"272 300 OFFCURVE",
"300 300 CURVE SMOOTH"
);
},
{
closed = 1;
nodes = (
"428 450 OFFCURVE",
"450 472 OFFCURVE",
"450 500 CURVE SMOOTH",
"450 528 OFFCURVE",
"428 550 OFFCURVE",
"400 550 CURVE SMOOTH",
"372 550 OFFCURVE",
"350 528 OFFCURVE",
"350 500 CURVE SMOOTH",
"350 472 OFFCURVE",
"372 450 OFFCURVE",
"400 450 CURVE SMOOTH"
);
},
{
closed = 1;
nodes = (
"128 600 OFFCURVE",
"150 622 OFFCURVE",
"150 650 CURVE SMOOTH",
"150 678 OFFCURVE",
"128 700 OFFCURVE",
"100 700 CURVE SMOOTH",
"72 700 OFFCURVE",
"50 678 OFFCURVE",
"50 650 CURVE SMOOTH",
"50 622 OFFCURVE",
"72 600 OFFCURVE",
"100 600 CURVE SMOOTH"
);
},
{
closed = 1;
nodes = (
"228 600 OFFCURVE",
"250 622 OFFCURVE",
"250 650 CURVE SMOOTH",
"250 678 OFFCURVE",
"228 700 OFFCURVE",
"200 700 CURVE SMOOTH",
"172 700 OFFCURVE",
"150 678 OFFCURVE",
"150 650 CURVE SMOOTH",
"150 622 OFFCURVE",
"172 600 OFFCURVE",
"200 600 CURVE SMOOTH"
);
},
{
closed = 1;
nodes = (
"328 600 OFFCURVE",
"350 622 OFFCURVE",
"350 650 CURVE SMOOTH",
"350 678 OFFCURVE",
"328 700 OFFCURVE",
"300 700 CURVE SMOOTH",
"272 700 OFFCURVE",
"250 678 OFFCURVE",
"250 650 CURVE SMOOTH",
"250 622 OFFCURVE",
"272 600 OFFCURVE",
"300 600 CURVE SMOOTH"
);
},
{
closed = 1;
nodes = (
"428 600 OFFCURVE",
"450 622 OFFCURVE",
"450 650 CURVE SMOOTH",
"450 678 OFFCURVE",
"428 700 OFFCURVE",
"400 700 CURVE SMOOTH",
"372 700 OFFCURVE",
"350 678 OFFCURVE",
"350 650 CURVE SMOOTH",
"350 622 OFFCURVE",
"372 600 OFFCURVE",
"400 600 CURVE SMOOTH"
);
},
{
closed = 1;
nodes = (
"528 600 OFFCURVE",
"550 622 OFFCURVE",
"550 650 CURVE SMOOTH",
"550 678 OFFCURVE",
"528 700 OFFCURVE",
"500 700 CURVE SMOOTH",
"472 700 OFFCURVE",
"450 678 OFFCURVE",
"450 650 CURVE SMOOTH",
"450 622 OFFCURVE",
"472 600 OFFCURVE",
"500 600 CURVE SMOOTH"
);
}
);
width = 600;
}
);
unicode = 005A;
},
{
glyphname = a;
lastChange = "2024-10-07 14:41:25 +0000";
layers = (
{
anchors = (
{
name = bottom;
position = "{300, 0}";
},
{
name = ogonek;
position = "{450, 0}";
},
{
name = top;
position = "{300, 550}";
}
);
layerId = "CAAE6B47-272D-418B-B8E9-730CC53AA9A0";
paths = (
{
closed = 1;
nodes = (
"228 0 OFFCURVE",
"250 22 OFFCURVE",
"250 50 CURVE SMOOTH",
"250 78 OFFCURVE",
"228 100 OFFCURVE",
"200 100 CURVE SMOOTH",
"172 100 OFFCURVE",
"150 78 OFFCURVE",
"150 50 CURVE SMOOTH",
"150 22 OFFCURVE",
"172 0 OFFCURVE",
"200 0 CURVE SMOOTH"
);
},
{
closed = 1;
nodes = (
"328 0 OFFCURVE",
"350 22 OFFCURVE",
"350 50 CURVE SMOOTH",
"350 78 OFFCURVE",
"328 100 OFFCURVE",
"300 100 CURVE SMOOTH",
"272 100 OFFCURVE",
"250 78 OFFCURVE",
"250 50 CURVE SMOOTH",
"250 22 OFFCURVE",
"272 0 OFFCURVE",
"300 0 CURVE SMOOTH"
);
},
{
closed = 1;
nodes = (
"428 0 OFFCURVE",
"450 22 OFFCURVE",
"450 50 CURVE SMOOTH",
"450 78 OFFCURVE",
"428 100 OFFCURVE",
"400 100 CURVE SMOOTH",
"372 100 OFFCURVE",
"350 78 OFFCURVE",
"350 50 CURVE SMOOTH",
"350 22 OFFCURVE",
"372 0 OFFCURVE",
"400 0 CURVE SMOOTH"
);
},
{
closed = 1;
nodes = (
"128 150 OFFCURVE",
"150 172 OFFCURVE",
"150 200 CURVE SMOOTH",
"150 228 OFFCURVE",
"128 250 OFFCURVE",
"100 250 CURVE SMOOTH",
"72 250 OFFCURVE",
"50 228 OFFCURVE",
"50 200 CURVE SMOOTH",
"50 172 OFFCURVE",
"72 150 OFFCURVE",
"100 150 CURVE SMOOTH"
);
},
{
closed = 1;
nodes = (
"428 150 OFFCURVE",
"450 172 OFFCURVE",
"450 200 CURVE SMOOTH",
"450 228 OFFCURVE",
"428 250 OFFCURVE",
"400 250 CURVE SMOOTH",
"372 250 OFFCURVE",
"350 228 OFFCURVE",
"350 200 CURVE SMOOTH",
"350 172 OFFCURVE",
"372 150 OFFCURVE",
"400 150 CURVE SMOOTH"
);
},
{
closed = 1;
nodes = (
"128 300 OFFCURVE",
"150 322 OFFCURVE",
"150 350 CURVE SMOOTH",
"150 378 OFFCURVE",
"128 400 OFFCURVE",
"100 400 CURVE SMOOTH",
"72 400 OFFCURVE",
"50 378 OFFCURVE",
"50 350 CURVE SMOOTH",
"50 322 OFFCURVE",
"72 300 OFFCURVE",
"100 300 CURVE SMOOTH"
);
},
{
closed = 1;
nodes = (
"428 300 OFFCURVE",
"450 322 OFFCURVE",
"450 350 CURVE SMOOTH",
"450 378 OFFCURVE",
"428 400 OFFCURVE",
"400 400 CURVE SMOOTH",
"372 400 OFFCURVE",
"350 378 OFFCURVE",
"350 350 CURVE SMOOTH",
"350 322 OFFCURVE",
"372 300 OFFCURVE",
"400 300 CURVE SMOOTH"
);
},
{
closed = 1;
nodes = (
"228 450 OFFCURVE",
"250 472 OFFCURVE",
"250 500 CURVE SMOOTH",
"250 528 OFFCURVE",
"228 550 OFFCURVE",
"200 550 CURVE SMOOTH",
"172 550 OFFCURVE",
"150 528 OFFCURVE",
"150 500 CURVE SMOOTH",
"150 472 OFFCURVE",
"172 450 OFFCURVE",
"200 450 CURVE SMOOTH"
);
},
{
closed = 1;
nodes = (
"328 450 OFFCURVE",
"350 472 OFFCURVE",
"350 500 CURVE SMOOTH",
"350 528 OFFCURVE",
"328 550 OFFCURVE",
"300 550 CURVE SMOOTH",
"272 550 OFFCURVE",
"250 528 OFFCURVE",
"250 500 CURVE SMOOTH",
"250 472 OFFCURVE",
"272 450 OFFCURVE",
"300 450 CURVE SMOOTH"
);
},
{
closed = 1;
nodes = (
"428 450 OFFCURVE",
"450 472 OFFCURVE",
"450 500 CURVE SMOOTH",
"450 528 OFFCURVE",
"428 550 OFFCURVE",
"400 550 CURVE SMOOTH",
"372 550 OFFCURVE",
"350 528 OFFCURVE",
"350 500 CURVE SMOOTH",
"350 472 OFFCURVE",
"372 450 OFFCURVE",
"400 450 CURVE SMOOTH"
);
}
);
width = 500;
}
);
unicode = 0061;
},
{
glyphname = ae;
lastChange = "2024-10-07 15:15:16 +0000";
layers = (
{
layerId = "CAAE6B47-272D-418B-B8E9-730CC53AA9A0";
paths = (
{
closed = 1;
nodes = (
"428 0 OFFCURVE",
"450 22 OFFCURVE",
"450 50 CURVE SMOOTH",
"450 78 OFFCURVE",
"428 100 OFFCURVE",
"400 100 CURVE SMOOTH",
"372 100 OFFCURVE",
"350 78 OFFCURVE",
"350 50 CURVE SMOOTH",
"350 22 OFFCURVE",
"372 0 OFFCURVE",
"400 0 CURVE SMOOTH"
);
},
{
closed = 1;
nodes = (
"528 0 OFFCURVE",
"550 22 OFFCURVE",
"550 50 CURVE SMOOTH",
"550 78 OFFCURVE",
"528 100 OFFCURVE",
"500 100 CURVE SMOOTH",
"472 100 OFFCURVE",
"450 78 OFFCURVE",
"450 50 CURVE SMOOTH",
"450 22 OFFCURVE",
"472 0 OFFCURVE",
"500 0 CURVE SMOOTH"
);
},
{
closed = 1;
nodes = (
"128 150 OFFCURVE",
"150 172 OFFCURVE",
"150 200 CURVE SMOOTH",
"150 228 OFFCURVE",
"128 250 OFFCURVE",
"100 250 CURVE SMOOTH",
"72 250 OFFCURVE",
"50 228 OFFCURVE",
"50 200 CURVE SMOOTH",
"50 172 OFFCURVE",
"72 150 OFFCURVE",
"100 150 CURVE SMOOTH"
);
},
{
closed = 1;
nodes = (
"328 150 OFFCURVE",
"350 172 OFFCURVE",
"350 200 CURVE SMOOTH",
"350 228 OFFCURVE",
"328 250 OFFCURVE",
"300 250 CURVE SMOOTH",
"272 250 OFFCURVE",
"250 228 OFFCURVE",
"250 200 CURVE SMOOTH",
"250 172 OFFCURVE",
"272 150 OFFCURVE",
"300 150 CURVE SMOOTH"
);
},
{
closed = 1;
nodes = (
"428 300 OFFCURVE",
"450 322 OFFCURVE",
"450 350 CURVE SMOOTH",
"450 378 OFFCURVE",
"428 400 OFFCURVE",
"400 400 CURVE SMOOTH",
"372 400 OFFCURVE",
"350 378 OFFCURVE",
"350 350 CURVE SMOOTH",
"350 322 OFFCURVE",
"372 300 OFFCURVE",
"400 300 CURVE SMOOTH"
);
},
{
closed = 1;
nodes = (
"128 300 OFFCURVE",
"150 322 OFFCURVE",
"150 350 CURVE SMOOTH",
"150 378 OFFCURVE",
"128 400 OFFCURVE",
"100 400 CURVE SMOOTH",
"72 400 OFFCURVE",
"50 378 OFFCURVE",
"50 350 CURVE SMOOTH",
"50 322 OFFCURVE",
"72 300 OFFCURVE",
"100 300 CURVE SMOOTH"
);
},
{
closed = 1;
nodes = (
"328 300 OFFCURVE",
"350 322 OFFCURVE",
"350 350 CURVE SMOOTH",
"350 378 OFFCURVE",
"328 400 OFFCURVE",
"300 400 CURVE SMOOTH",
"272 400 OFFCURVE",
"250 378 OFFCURVE",
"250 350 CURVE SMOOTH",
"250 322 OFFCURVE",
"272 300 OFFCURVE",
"300 300 CURVE SMOOTH"
);
},
{
closed = 1;
nodes = (
"328 450 OFFCURVE",
"350 472 OFFCURVE",
"350 500 CURVE SMOOTH",
"350 528 OFFCURVE",
"328 550 OFFCURVE",
"300 550 CURVE SMOOTH",
"272 550 OFFCURVE",
"250 528 OFFCURVE",
"250 500 CURVE SMOOTH",
"250 472 OFFCURVE",
"272 450 OFFCURVE",
"300 450 CURVE SMOOTH"
);
},
{
closed = 1;
nodes = (
"428 450 OFFCURVE",
"450 472 OFFCURVE",
"450 500 CURVE SMOOTH",
"450 528 OFFCURVE",
"428 550 OFFCURVE",
"400 550 CURVE SMOOTH",
"372 550 OFFCURVE",
"350 528 OFFCURVE",
"350 500 CURVE SMOOTH",
"350 472 OFFCURVE",
"372 450 OFFCURVE",
"400 450 CURVE SMOOTH"
);
},
{
closed = 1;
nodes = (
"228 0 OFFCURVE",
"250 22 OFFCURVE",
"250 50 CURVE SMOOTH",
"250 78 OFFCURVE",
"228 100 OFFCURVE",
"200 100 CURVE SMOOTH",
"172 100 OFFCURVE",
"150 78 OFFCURVE",
"150 50 CURVE SMOOTH",
"150 22 OFFCURVE",
"172 0 OFFCURVE",
"200 0 CURVE SMOOTH"
);
},
{
closed = 1;
nodes = (
"228 450 OFFCURVE",
"250 472 OFFCURVE",
"250 500 CURVE SMOOTH",
"250 528 OFFCURVE",
"228 550 OFFCURVE",
"200 550 CURVE SMOOTH",
"172 550 OFFCURVE",
"150 528 OFFCURVE",
"150 500 CURVE SMOOTH",
"150 472 OFFCURVE",
"172 450 OFFCURVE",
"200 450 CURVE SMOOTH"
);
},
{
closed = 1;
nodes = (
"528 300 OFFCURVE",
"550 322 OFFCURVE",
"550 350 CURVE SMOOTH",
"550 378 OFFCURVE",
"528 400 OFFCURVE",
"500 400 CURVE SMOOTH",
"472 400 OFFCURVE",
"450 378 OFFCURVE",
"450 350 CURVE SMOOTH",
"450 322 OFFCURVE",
"472 300 OFFCURVE",
"500 300 CURVE SMOOTH"
);
},
{
closed = 1;
nodes = (
"328 0 OFFCURVE",
"350 22 OFFCURVE",
"350 50 CURVE SMOOTH",
"350 78 OFFCURVE",
"328 100 OFFCURVE",
"300 100 CURVE SMOOTH",
"272 100 OFFCURVE",
"250 78 OFFCURVE",
"250 50 CURVE SMOOTH",
"250 22 OFFCURVE",
"272 0 OFFCURVE",
"300 0 CURVE SMOOTH"
);
}
);
width = 600;
}
);
unicode = 00E6;
},
{
glyphname = b;
lastChange = "2024-09-28 14:10:20 +0000";
layers = (
{
layerId = "CAAE6B47-272D-418B-B8E9-730CC53AA9A0";
paths = (
{
closed = 1;
nodes = (
"128 0 OFFCURVE",
"150 22 OFFCURVE",
"150 50 CURVE SMOOTH",
"150 78 OFFCURVE",
"128 100 OFFCURVE",
"100 100 CURVE SMOOTH",
"72 100 OFFCURVE",
"50 78 OFFCURVE",
"50 50 CURVE SMOOTH",
"50 22 OFFCURVE",
"72 0 OFFCURVE",
"100 0 CURVE SMOOTH"
);
},
{
closed = 1;
nodes = (
"228 0 OFFCURVE",
"250 22 OFFCURVE",
"250 50 CURVE SMOOTH",
"250 78 OFFCURVE",
"228 100 OFFCURVE",
"200 100 CURVE SMOOTH",
"172 100 OFFCURVE",
"150 78 OFFCURVE",
"150 50 CURVE SMOOTH",
"150 22 OFFCURVE",
"172 0 OFFCURVE",
"200 0 CURVE SMOOTH"
);
},
{
closed = 1;
nodes = (
"328 0 OFFCURVE",
"350 22 OFFCURVE",
"350 50 CURVE SMOOTH",
"350 78 OFFCURVE",
"328 100 OFFCURVE",
"300 100 CURVE SMOOTH",
"272 100 OFFCURVE",
"250 78 OFFCURVE",
"250 50 CURVE SMOOTH",
"250 22 OFFCURVE",
"272 0 OFFCURVE",
"300 0 CURVE SMOOTH"
);
},
{
closed = 1;
nodes = (
"128 150 OFFCURVE",
"150 172 OFFCURVE",
"150 200 CURVE SMOOTH",
"150 228 OFFCURVE",
"128 250 OFFCURVE",
"100 250 CURVE SMOOTH",
"72 250 OFFCURVE",
"50 228 OFFCURVE",
"50 200 CURVE SMOOTH",
"50 172 OFFCURVE",
"72 150 OFFCURVE",
"100 150 CURVE SMOOTH"
);
},
{
closed = 1;
nodes = (
"428 150 OFFCURVE",
"450 172 OFFCURVE",
"450 200 CURVE SMOOTH",
"450 228 OFFCURVE",
"428 250 OFFCURVE",
"400 250 CURVE SMOOTH",
"372 250 OFFCURVE",
"350 228 OFFCURVE",
"350 200 CURVE SMOOTH",
"350 172 OFFCURVE",
"372 150 OFFCURVE",
"400 150 CURVE SMOOTH"
);
},
{
closed = 1;
nodes = (
"128 300 OFFCURVE",
"150 322 OFFCURVE",
"150 350 CURVE SMOOTH",
"150 378 OFFCURVE",
"128 400 OFFCURVE",
"100 400 CURVE SMOOTH",
"72 400 OFFCURVE",
"50 378 OFFCURVE",
"50 350 CURVE SMOOTH",
"50 322 OFFCURVE",
"72 300 OFFCURVE",
"100 300 CURVE SMOOTH"
);
},
{
closed = 1;
nodes = (
"428 300 OFFCURVE",
"450 322 OFFCURVE",
"450 350 CURVE SMOOTH",
"450 378 OFFCURVE",
"428 400 OFFCURVE",
"400 400 CURVE SMOOTH",
"372 400 OFFCURVE",
"350 378 OFFCURVE",
"350 350 CURVE SMOOTH",
"350 322 OFFCURVE",
"372 300 OFFCURVE",
"400 300 CURVE SMOOTH"
);
},
{
closed = 1;
nodes = (
"128 450 OFFCURVE",
"150 472 OFFCURVE",
"150 500 CURVE SMOOTH",
"150 528 OFFCURVE",
"128 550 OFFCURVE",
"100 550 CURVE SMOOTH",
"72 550 OFFCURVE",
"50 528 OFFCURVE",
"50 500 CURVE SMOOTH",
"50 472 OFFCURVE",
"72 450 OFFCURVE",
"100 450 CURVE SMOOTH"
);
},
{
closed = 1;
nodes = (
"228 450 OFFCURVE",
"250 472 OFFCURVE",
"250 500 CURVE SMOOTH",
"250 528 OFFCURVE",
"228 550 OFFCURVE",
"200 550 CURVE SMOOTH",
"172 550 OFFCURVE",
"150 528 OFFCURVE",
"150 500 CURVE SMOOTH",
"150 472 OFFCURVE",
"172 450 OFFCURVE",
"200 450 CURVE SMOOTH"
);
},
{
closed = 1;
nodes = (
"328 450 OFFCURVE",
"350 472 OFFCURVE",
"350 500 CURVE SMOOTH",
"350 528 OFFCURVE",
"328 550 OFFCURVE",
"300 550 CURVE SMOOTH",
"272 550 OFFCURVE",
"250 528 OFFCURVE",
"250 500 CURVE SMOOTH",
"250 472 OFFCURVE",
"272 450 OFFCURVE",
"300 450 CURVE SMOOTH"
);
},
{
closed = 1;
nodes = (
"128 600 OFFCURVE",
"150 622 OFFCURVE",
"150 650 CURVE SMOOTH",
"150 678 OFFCURVE",
"128 700 OFFCURVE",
"100 700 CURVE SMOOTH",
"72 700 OFFCURVE",
"50 678 OFFCURVE",
"50 650 CURVE SMOOTH",
"50 622 OFFCURVE",
"72 600 OFFCURVE",
"100 600 CURVE SMOOTH"
);
}
);
width = 500;
}
);
unicode = 0062;
},
{
glyphname = c;
lastChange = "2024-09-28 14:11:14 +0000";
layers = (
{
anchors = (
{
name = bottom;
position = "{300, 0}";
},
{
name = top;
position = "{300, 550}";
}
);
layerId = "CAAE6B47-272D-418B-B8E9-730CC53AA9A0";
paths = (
{
closed = 1;
nodes = (
"228 0 OFFCURVE",
"250 22 OFFCURVE",
"250 50 CURVE SMOOTH",
"250 78 OFFCURVE",
"228 100 OFFCURVE",
"200 100 CURVE SMOOTH",
"172 100 OFFCURVE",
"150 78 OFFCURVE",
"150 50 CURVE SMOOTH",
"150 22 OFFCURVE",
"172 0 OFFCURVE",
"200 0 CURVE SMOOTH"
);
},
{
closed = 1;
nodes = (
"328 0 OFFCURVE",
"350 22 OFFCURVE",
"350 50 CURVE SMOOTH",
"350 78 OFFCURVE",
"328 100 OFFCURVE",
"300 100 CURVE SMOOTH",
"272 100 OFFCURVE",
"250 78 OFFCURVE",
"250 50 CURVE SMOOTH",
"250 22 OFFCURVE",
"272 0 OFFCURVE",
"300 0 CURVE SMOOTH"
);
},
{
closed = 1;
nodes = (
"428 0 OFFCURVE",
"450 22 OFFCURVE",
"450 50 CURVE SMOOTH",
"450 78 OFFCURVE",
"428 100 OFFCURVE",
"400 100 CURVE SMOOTH",
"372 100 OFFCURVE",
"350 78 OFFCURVE",
"350 50 CURVE SMOOTH",
"350 22 OFFCURVE",
"372 0 OFFCURVE",
"400 0 CURVE SMOOTH"
);
},
{
closed = 1;
nodes = (
"128 150 OFFCURVE",
"150 172 OFFCURVE",
"150 200 CURVE SMOOTH",
"150 228 OFFCURVE",
"128 250 OFFCURVE",
"100 250 CURVE SMOOTH",
"72 250 OFFCURVE",
"50 228 OFFCURVE",
"50 200 CURVE SMOOTH",
"50 172 OFFCURVE",
"72 150 OFFCURVE",
"100 150 CURVE SMOOTH"
);
},
{
closed = 1;
nodes = (
"128 300 OFFCURVE",
"150 322 OFFCURVE",
"150 350 CURVE SMOOTH",
"150 378 OFFCURVE",
"128 400 OFFCURVE",
"100 400 CURVE SMOOTH",
"72 400 OFFCURVE",
"50 378 OFFCURVE",
"50 350 CURVE SMOOTH",
"50 322 OFFCURVE",
"72 300 OFFCURVE",
"100 300 CURVE SMOOTH"
);
},
{
closed = 1;
nodes = (
"428 300 OFFCURVE",
"450 322 OFFCURVE",
"450 350 CURVE SMOOTH",
"450 378 OFFCURVE",
"428 400 OFFCURVE",
"400 400 CURVE SMOOTH",
"372 400 OFFCURVE",
"350 378 OFFCURVE",
"350 350 CURVE SMOOTH",
"350 322 OFFCURVE",
"372 300 OFFCURVE",
"400 300 CURVE SMOOTH"
);
},
{
closed = 1;
nodes = (
"228 450 OFFCURVE",
"250 472 OFFCURVE",
"250 500 CURVE SMOOTH",
"250 528 OFFCURVE",
"228 550 OFFCURVE",
"200 550 CURVE SMOOTH",
"172 550 OFFCURVE",
"150 528 OFFCURVE",
"150 500 CURVE SMOOTH",
"150 472 OFFCURVE",
"172 450 OFFCURVE",
"200 450 CURVE SMOOTH"
);
},
{
closed = 1;
nodes = (
"328 450 OFFCURVE",
"350 472 OFFCURVE",
"350 500 CURVE SMOOTH",
"350 528 OFFCURVE",
"328 550 OFFCURVE",
"300 550 CURVE SMOOTH",
"272 550 OFFCURVE",
"250 528 OFFCURVE",
"250 500 CURVE SMOOTH",
"250 472 OFFCURVE",
"272 450 OFFCURVE",
"300 450 CURVE SMOOTH"
);
}
);
width = 500;
}
);
unicode = 0063;
},
{
glyphname = d;
lastChange = "2024-09-28 14:56:24 +0000";
layers = (
{
anchors = (
{
name = bottom;
position = "{300, 0}";
},
{
name = center;
position = "{300, 350}";
},
{
name = top;
position = "{300, 550}";
},
{
name = topright;
position = "{450, 700}";
}
);
layerId = "CAAE6B47-272D-418B-B8E9-730CC53AA9A0";
paths = (
{
closed = 1;
nodes = (
"228 0 OFFCURVE",
"250 22 OFFCURVE",
"250 50 CURVE SMOOTH",
"250 78 OFFCURVE",
"228 100 OFFCURVE",
"200 100 CURVE SMOOTH",
"172 100 OFFCURVE",
"150 78 OFFCURVE",
"150 50 CURVE SMOOTH",
"150 22 OFFCURVE",
"172 0 OFFCURVE",
"200 0 CURVE SMOOTH"
);
},
{
closed = 1;
nodes = (
"328 0 OFFCURVE",
"350 22 OFFCURVE",
"350 50 CURVE SMOOTH",
"350 78 OFFCURVE",
"328 100 OFFCURVE",
"300 100 CURVE SMOOTH",
"272 100 OFFCURVE",
"250 78 OFFCURVE",
"250 50 CURVE SMOOTH",
"250 22 OFFCURVE",
"272 0 OFFCURVE",
"300 0 CURVE SMOOTH"
);
},
{
closed = 1;
nodes = (
"428 0 OFFCURVE",
"450 22 OFFCURVE",
"450 50 CURVE SMOOTH",
"450 78 OFFCURVE",
"428 100 OFFCURVE",
"400 100 CURVE SMOOTH",
"372 100 OFFCURVE",
"350 78 OFFCURVE",
"350 50 CURVE SMOOTH",
"350 22 OFFCURVE",
"372 0 OFFCURVE",
"400 0 CURVE SMOOTH"
);
},
{
closed = 1;
nodes = (
"128 150 OFFCURVE",
"150 172 OFFCURVE",
"150 200 CURVE SMOOTH",
"150 228 OFFCURVE",
"128 250 OFFCURVE",
"100 250 CURVE SMOOTH",
"72 250 OFFCURVE",
"50 228 OFFCURVE",
"50 200 CURVE SMOOTH",
"50 172 OFFCURVE",
"72 150 OFFCURVE",
"100 150 CURVE SMOOTH"
);
},
{
closed = 1;
nodes = (
"428 150 OFFCURVE",
"450 172 OFFCURVE",
"450 200 CURVE SMOOTH",
"450 228 OFFCURVE",
"428 250 OFFCURVE",
"400 250 CURVE SMOOTH",
"372 250 OFFCURVE",
"350 228 OFFCURVE",
"350 200 CURVE SMOOTH",
"350 172 OFFCURVE",
"372 150 OFFCURVE",
"400 150 CURVE SMOOTH"
);
},
{
closed = 1;
nodes = (
"128 300 OFFCURVE",
"150 322 OFFCURVE",
"150 350 CURVE SMOOTH",
"150 378 OFFCURVE",
"128 400 OFFCURVE",
"100 400 CURVE SMOOTH",
"72 400 OFFCURVE",
"50 378 OFFCURVE",
"50 350 CURVE SMOOTH",
"50 322 OFFCURVE",
"72 300 OFFCURVE",
"100 300 CURVE SMOOTH"
);
},
{
closed = 1;
nodes = (
"428 300 OFFCURVE",
"450 322 OFFCURVE",
"450 350 CURVE SMOOTH",
"450 378 OFFCURVE",
"428 400 OFFCURVE",
"400 400 CURVE SMOOTH",
"372 400 OFFCURVE",
"350 378 OFFCURVE",
"350 350 CURVE SMOOTH",
"350 322 OFFCURVE",
"372 300 OFFCURVE",
"400 300 CURVE SMOOTH"
);
},
{
closed = 1;
nodes = (
"228 450 OFFCURVE",
"250 472 OFFCURVE",
"250 500 CURVE SMOOTH",
"250 528 OFFCURVE",
"228 550 OFFCURVE",
"200 550 CURVE SMOOTH",
"172 550 OFFCURVE",
"150 528 OFFCURVE",
"150 500 CURVE SMOOTH",
"150 472 OFFCURVE",
"172 450 OFFCURVE",
"200 450 CURVE SMOOTH"
);
},
{
closed = 1;
nodes = (
"328 450 OFFCURVE",
"350 472 OFFCURVE",
"350 500 CURVE SMOOTH",
"350 528 OFFCURVE",
"328 550 OFFCURVE",
"300 550 CURVE SMOOTH",
"272 550 OFFCURVE",
"250 528 OFFCURVE",
"250 500 CURVE SMOOTH",
"250 472 OFFCURVE",
"272 450 OFFCURVE",
"300 450 CURVE SMOOTH"
);
},
{
closed = 1;
nodes = (
"428 450 OFFCURVE",
"450 472 OFFCURVE",
"450 500 CURVE SMOOTH",
"450 528 OFFCURVE",
"428 550 OFFCURVE",
"400 550 CURVE SMOOTH",
"372 550 OFFCURVE",
"350 528 OFFCURVE",
"350 500 CURVE SMOOTH",
"350 472 OFFCURVE",
"372 450 OFFCURVE",
"400 450 CURVE SMOOTH"
);
},
{
closed = 1;
nodes = (
"428 600 OFFCURVE",
"450 622 OFFCURVE",
"450 650 CURVE SMOOTH",
"450 678 OFFCURVE",
"428 700 OFFCURVE",
"400 700 CURVE SMOOTH",
"372 700 OFFCURVE",
"350 678 OFFCURVE",
"350 650 CURVE SMOOTH",
"350 622 OFFCURVE",
"372 600 OFFCURVE",
"400 600 CURVE SMOOTH"
);
}
);
width = 500;
}
);
unicode = 0064;
},
{
glyphname = eth;
lastChange = "2024-09-28 14:45:07 +0000";
layers = (
{
layerId = "CAAE6B47-272D-418B-B8E9-730CC53AA9A0";
paths = (
{
closed = 1;
nodes = (
"228 0 OFFCURVE",
"250 22 OFFCURVE",
"250 50 CURVE SMOOTH",
"250 78 OFFCURVE",
"228 100 OFFCURVE",
"200 100 CURVE SMOOTH",
"172 100 OFFCURVE",
"150 78 OFFCURVE",
"150 50 CURVE SMOOTH",
"150 22 OFFCURVE",
"172 0 OFFCURVE",
"200 0 CURVE SMOOTH"
);
},
{
closed = 1;
nodes = (
"328 0 OFFCURVE",
"350 22 OFFCURVE",
"350 50 CURVE SMOOTH",
"350 78 OFFCURVE",
"328 100 OFFCURVE",
"300 100 CURVE SMOOTH",
"272 100 OFFCURVE",
"250 78 OFFCURVE",
"250 50 CURVE SMOOTH",
"250 22 OFFCURVE",
"272 0 OFFCURVE",
"300 0 CURVE SMOOTH"
);
},
{
closed = 1;
nodes = (
"128 150 OFFCURVE",
"150 172 OFFCURVE",
"150 200 CURVE SMOOTH",
"150 228 OFFCURVE",
"128 250 OFFCURVE",
"100 250 CURVE SMOOTH",
"72 250 OFFCURVE",
"50 228 OFFCURVE",
"50 200 CURVE SMOOTH",
"50 172 OFFCURVE",
"72 150 OFFCURVE",
"100 150 CURVE SMOOTH"
);
},
{
closed = 1;
nodes = (
"428 150 OFFCURVE",
"450 172 OFFCURVE",
"450 200 CURVE SMOOTH",
"450 228 OFFCURVE",
"428 250 OFFCURVE",
"400 250 CURVE SMOOTH",
"372 250 OFFCURVE",
"350 228 OFFCURVE",
"350 200 CURVE SMOOTH",
"350 172 OFFCURVE",
"372 150 OFFCURVE",
"400 150 CURVE SMOOTH"
);
},
{
closed = 1;
nodes = (
"228 300 OFFCURVE",
"250 322 OFFCURVE",
"250 350 CURVE SMOOTH",
"250 378 OFFCURVE",
"228 400 OFFCURVE",
"200 400 CURVE SMOOTH",
"172 400 OFFCURVE",
"150 378 OFFCURVE",
"150 350 CURVE SMOOTH",
"150 322 OFFCURVE",
"172 300 OFFCURVE",
"200 300 CURVE SMOOTH"
);
},
{
closed = 1;
nodes = (
"328 300 OFFCURVE",
"350 322 OFFCURVE",
"350 350 CURVE SMOOTH",
"350 378 OFFCURVE",
"328 400 OFFCURVE",
"300 400 CURVE SMOOTH",
"272 400 OFFCURVE",
"250 378 OFFCURVE",
"250 350 CURVE SMOOTH",
"250 322 OFFCURVE",
"272 300 OFFCURVE",
"300 300 CURVE SMOOTH"
);
},
{
closed = 1;
nodes = (
"428 300 OFFCURVE",
"450 322 OFFCURVE",
"450 350 CURVE SMOOTH",
"450 378 OFFCURVE",
"428 400 OFFCURVE",
"400 400 CURVE SMOOTH",
"372 400 OFFCURVE",
"350 378 OFFCURVE",
"350 350 CURVE SMOOTH",
"350 322 OFFCURVE",
"372 300 OFFCURVE",
"400 300 CURVE SMOOTH"
);
},
{
closed = 1;
nodes = (
"328 450 OFFCURVE",
"350 472 OFFCURVE",
"350 500 CURVE SMOOTH",
"350 528 OFFCURVE",
"328 550 OFFCURVE",
"300 550 CURVE SMOOTH",
"272 550 OFFCURVE",
"250 528 OFFCURVE",
"250 500 CURVE SMOOTH",
"250 472 OFFCURVE",
"272 450 OFFCURVE",
"300 450 CURVE SMOOTH"
);
},
{
closed = 1;
nodes = (
"228 600 OFFCURVE",
"250 622 OFFCURVE",
"250 650 CURVE SMOOTH",
"250 678 OFFCURVE",
"228 700 OFFCURVE",
"200 700 CURVE SMOOTH",
"172 700 OFFCURVE",
"150 678 OFFCURVE",
"150 650 CURVE SMOOTH",
"150 622 OFFCURVE",
"172 600 OFFCURVE",
"200 600 CURVE SMOOTH"
);
},
{
closed = 1;
nodes = (
"428 600 OFFCURVE",
"450 622 OFFCURVE",
"450 650 CURVE SMOOTH",
"450 678 OFFCURVE",
"428 700 OFFCURVE",
"400 700 CURVE SMOOTH",
"372 700 OFFCURVE",
"350 678 OFFCURVE",
"350 650 CURVE SMOOTH",
"350 622 OFFCURVE",
"372 600 OFFCURVE",
"400 600 CURVE SMOOTH"
);
}
);
width = 500;
}
);
unicode = 00F0;
},
{
glyphname = e;
lastChange = "2024-10-07 15:15:03 +0000";
layers = (
{
anchors = (
{
name = bottom;
position = "{300, 0}";
},
{
name = ogonek;
position = "{450, 0}";
},
{
name = top;
position = "{300, 550}";
}
);
layerId = "CAAE6B47-272D-418B-B8E9-730CC53AA9A0";
paths = (
{
closed = 1;
nodes = (
"228 0 OFFCURVE",
"250 22 OFFCURVE",
"250 50 CURVE SMOOTH",
"250 78 OFFCURVE",
"228 100 OFFCURVE",
"200 100 CURVE SMOOTH",
"172 100 OFFCURVE",
"150 78 OFFCURVE",
"150 50 CURVE SMOOTH",
"150 22 OFFCURVE",
"172 0 OFFCURVE",
"200 0 CURVE SMOOTH"
);
},
{
closed = 1;
nodes = (
"328 0 OFFCURVE",
"350 22 OFFCURVE",
"350 50 CURVE SMOOTH",
"350 78 OFFCURVE",
"328 100 OFFCURVE",
"300 100 CURVE SMOOTH",
"272 100 OFFCURVE",
"250 78 OFFCURVE",
"250 50 CURVE SMOOTH",
"250 22 OFFCURVE",
"272 0 OFFCURVE",
"300 0 CURVE SMOOTH"
);
},
{
closed = 1;
nodes = (
"428 0 OFFCURVE",
"450 22 OFFCURVE",
"450 50 CURVE SMOOTH",
"450 78 OFFCURVE",
"428 100 OFFCURVE",
"400 100 CURVE SMOOTH",
"372 100 OFFCURVE",
"350 78 OFFCURVE",
"350 50 CURVE SMOOTH",
"350 22 OFFCURVE",
"372 0 OFFCURVE",
"400 0 CURVE SMOOTH"
);
},
{
closed = 1;
nodes = (
"128 150 OFFCURVE",
"150 172 OFFCURVE",
"150 200 CURVE SMOOTH",
"150 228 OFFCURVE",
"128 250 OFFCURVE",
"100 250 CURVE SMOOTH",
"72 250 OFFCURVE",
"50 228 OFFCURVE",
"50 200 CURVE SMOOTH",
"50 172 OFFCURVE",
"72 150 OFFCURVE",
"100 150 CURVE SMOOTH"
);
},
{
closed = 1;
nodes = (
"228 300 OFFCURVE",
"250 322 OFFCURVE",
"250 350 CURVE SMOOTH",
"250 378 OFFCURVE",
"228 400 OFFCURVE",
"200 400 CURVE SMOOTH",
"172 400 OFFCURVE",
"150 378 OFFCURVE",
"150 350 CURVE SMOOTH",
"150 322 OFFCURVE",
"172 300 OFFCURVE",
"200 300 CURVE SMOOTH"
);
},
{
closed = 1;
nodes = (
"328 300 OFFCURVE",
"350 322 OFFCURVE",
"350 350 CURVE SMOOTH",
"350 378 OFFCURVE",
"328 400 OFFCURVE",
"300 400 CURVE SMOOTH",
"272 400 OFFCURVE",
"250 378 OFFCURVE",
"250 350 CURVE SMOOTH",
"250 322 OFFCURVE",
"272 300 OFFCURVE",
"300 300 CURVE SMOOTH"
);
},
{
closed = 1;
nodes = (
"128 300 OFFCURVE",
"150 322 OFFCURVE",
"150 350 CURVE SMOOTH",
"150 378 OFFCURVE",
"128 400 OFFCURVE",
"100 400 CURVE SMOOTH",
"72 400 OFFCURVE",
"50 378 OFFCURVE",
"50 350 CURVE SMOOTH",
"50 322 OFFCURVE",
"72 300 OFFCURVE",
"100 300 CURVE SMOOTH"
);
},
{
closed = 1;
nodes = (
"428 300 OFFCURVE",
"450 322 OFFCURVE",
"450 350 CURVE SMOOTH",
"450 378 OFFCURVE",
"428 400 OFFCURVE",
"400 400 CURVE SMOOTH",
"372 400 OFFCURVE",
"350 378 OFFCURVE",
"350 350 CURVE SMOOTH",
"350 322 OFFCURVE",
"372 300 OFFCURVE",
"400 300 CURVE SMOOTH"
);
},
{
closed = 1;
nodes = (
"228 450 OFFCURVE",
"250 472 OFFCURVE",
"250 500 CURVE SMOOTH",
"250 528 OFFCURVE",
"228 550 OFFCURVE",
"200 550 CURVE SMOOTH",
"172 550 OFFCURVE",
"150 528 OFFCURVE",
"150 500 CURVE SMOOTH",
"150 472 OFFCURVE",
"172 450 OFFCURVE",
"200 450 CURVE SMOOTH"
);
},
{
closed = 1;
nodes = (
"328 450 OFFCURVE",
"350 472 OFFCURVE",
"350 500 CURVE SMOOTH",
"350 528 OFFCURVE",
"328 550 OFFCURVE",
"300 550 CURVE SMOOTH",
"272 550 OFFCURVE",
"250 528 OFFCURVE",
"250 500 CURVE SMOOTH",
"250 472 OFFCURVE",
"272 450 OFFCURVE",
"300 450 CURVE SMOOTH"
);
}
);
width = 500;
}
);
unicode = 0065;
},
{
glyphname = f;
lastChange = "2024-09-28 14:13:17 +0000";
layers = (
{
layerId = "CAAE6B47-272D-418B-B8E9-730CC53AA9A0";
paths = (
{
closed = 1;
nodes = (
"228 0 OFFCURVE",
"250 22 OFFCURVE",
"250 50 CURVE SMOOTH",
"250 78 OFFCURVE",
"228 100 OFFCURVE",
"200 100 CURVE SMOOTH",
"172 100 OFFCURVE",
"150 78 OFFCURVE",
"150 50 CURVE SMOOTH",
"150 22 OFFCURVE",
"172 0 OFFCURVE",
"200 0 CURVE SMOOTH"
);
},
{
closed = 1;
nodes = (
"228 150 OFFCURVE",
"250 172 OFFCURVE",
"250 200 CURVE SMOOTH",
"250 228 OFFCURVE",
"228 250 OFFCURVE",
"200 250 CURVE SMOOTH",
"172 250 OFFCURVE",
"150 228 OFFCURVE",
"150 200 CURVE SMOOTH",
"150 172 OFFCURVE",
"172 150 OFFCURVE",
"200 150 CURVE SMOOTH"
);
},
{
closed = 1;
nodes = (
"228 300 OFFCURVE",
"250 322 OFFCURVE",
"250 350 CURVE SMOOTH",
"250 378 OFFCURVE",
"228 400 OFFCURVE",
"200 400 CURVE SMOOTH",
"172 400 OFFCURVE",
"150 378 OFFCURVE",
"150 350 CURVE SMOOTH",
"150 322 OFFCURVE",
"172 300 OFFCURVE",
"200 300 CURVE SMOOTH"
);
},
{
closed = 1;
nodes = (
"128 450 OFFCURVE",
"150 472 OFFCURVE",
"150 500 CURVE SMOOTH",
"150 528 OFFCURVE",
"128 550 OFFCURVE",
"100 550 CURVE SMOOTH",
"72 550 OFFCURVE",
"50 528 OFFCURVE",
"50 500 CURVE SMOOTH",
"50 472 OFFCURVE",
"72 450 OFFCURVE",
"100 450 CURVE SMOOTH"
);
},
{
closed = 1;
nodes = (
"228 450 OFFCURVE",
"250 472 OFFCURVE",
"250 500 CURVE SMOOTH",
"250 528 OFFCURVE",
"228 550 OFFCURVE",
"200 550 CURVE SMOOTH",
"172 550 OFFCURVE",
"150 528 OFFCURVE",
"150 500 CURVE SMOOTH",
"150 472 OFFCURVE",
"172 450 OFFCURVE",
"200 450 CURVE SMOOTH"
);
},
{
closed = 1;
nodes = (
"328 450 OFFCURVE",
"350 472 OFFCURVE",
"350 500 CURVE SMOOTH",
"350 528 OFFCURVE",
"328 550 OFFCURVE",
"300 550 CURVE SMOOTH",
"272 550 OFFCURVE",
"250 528 OFFCURVE",
"250 500 CURVE SMOOTH",
"250 472 OFFCURVE",
"272 450 OFFCURVE",
"300 450 CURVE SMOOTH"
);
},
{
closed = 1;
nodes = (
"228 600 OFFCURVE",
"250 622 OFFCURVE",
"250 650 CURVE SMOOTH",
"250 678 OFFCURVE",
"228 700 OFFCURVE",
"200 700 CURVE SMOOTH",
"172 700 OFFCURVE",
"150 678 OFFCURVE",
"150 650 CURVE SMOOTH",
"150 622 OFFCURVE",
"172 600 OFFCURVE",
"200 600 CURVE SMOOTH"
);
},
{
closed = 1;
nodes = (
"328 600 OFFCURVE",
"350 622 OFFCURVE",
"350 650 CURVE SMOOTH",
"350 678 OFFCURVE",
"328 700 OFFCURVE",
"300 700 CURVE SMOOTH",
"272 700 OFFCURVE",
"250 678 OFFCURVE",
"250 650 CURVE SMOOTH",
"250 622 OFFCURVE",
"272 600 OFFCURVE",
"300 600 CURVE SMOOTH"
);
},
{
closed = 1;
nodes = (
"428 600 OFFCURVE",
"450 622 OFFCURVE",
"450 650 CURVE SMOOTH",
"450 678 OFFCURVE",
"428 700 OFFCURVE",
"400 700 CURVE SMOOTH",
"372 700 OFFCURVE",
"350 678 OFFCURVE",
"350 650 CURVE SMOOTH",
"350 622 OFFCURVE",
"372 600 OFFCURVE",
"400 600 CURVE SMOOTH"
);
}
);
width = 500;
}
);
unicode = 0066;
},
{
glyphname = g;
lastChange = "2024-09-28 14:14:02 +0000";
layers = (
{
anchors = (
{
name = bottom;
position = "{300, 0}";
},
{
name = top;
position = "{300, 550}";
}
);
layerId = "CAAE6B47-272D-418B-B8E9-730CC53AA9A0";
paths = (
{
closed = 1;
nodes = (
"128 -150 OFFCURVE",
"150 -128 OFFCURVE",
"150 -100 CURVE SMOOTH",
"150 -72 OFFCURVE",
"128 -50 OFFCURVE",
"100 -50 CURVE SMOOTH",
"72 -50 OFFCURVE",
"50 -72 OFFCURVE",
"50 -100 CURVE SMOOTH",
"50 -128 OFFCURVE",
"72 -150 OFFCURVE",
"100 -150 CURVE SMOOTH"
);
},
{
closed = 1;
nodes = (
"228 -150 OFFCURVE",
"250 -128 OFFCURVE",
"250 -100 CURVE SMOOTH",
"250 -72 OFFCURVE",
"228 -50 OFFCURVE",
"200 -50 CURVE SMOOTH",
"172 -50 OFFCURVE",
"150 -72 OFFCURVE",
"150 -100 CURVE SMOOTH",
"150 -128 OFFCURVE",
"172 -150 OFFCURVE",
"200 -150 CURVE SMOOTH"
);
},
{
closed = 1;
nodes = (
"328 -150 OFFCURVE",
"350 -128 OFFCURVE",
"350 -100 CURVE SMOOTH",
"350 -72 OFFCURVE",
"328 -50 OFFCURVE",
"300 -50 CURVE SMOOTH",
"272 -50 OFFCURVE",
"250 -72 OFFCURVE",
"250 -100 CURVE SMOOTH",
"250 -128 OFFCURVE",
"272 -150 OFFCURVE",
"300 -150 CURVE SMOOTH"
);
},
{
closed = 1;
nodes = (
"228 0 OFFCURVE",
"250 22 OFFCURVE",
"250 50 CURVE SMOOTH",
"250 78 OFFCURVE",
"228 100 OFFCURVE",
"200 100 CURVE SMOOTH",
"172 100 OFFCURVE",
"150 78 OFFCURVE",
"150 50 CURVE SMOOTH",
"150 22 OFFCURVE",
"172 0 OFFCURVE",
"200 0 CURVE SMOOTH"
);
},
{
closed = 1;
nodes = (
"328 0 OFFCURVE",
"350 22 OFFCURVE",
"350 50 CURVE SMOOTH",
"350 78 OFFCURVE",
"328 100 OFFCURVE",
"300 100 CURVE SMOOTH",
"272 100 OFFCURVE",
"250 78 OFFCURVE",
"250 50 CURVE SMOOTH",
"250 22 OFFCURVE",
"272 0 OFFCURVE",
"300 0 CURVE SMOOTH"
);
},
{
closed = 1;
nodes = (
"428 0 OFFCURVE",
"450 22 OFFCURVE",
"450 50 CURVE SMOOTH",
"450 78 OFFCURVE",
"428 100 OFFCURVE",
"400 100 CURVE SMOOTH",
"372 100 OFFCURVE",
"350 78 OFFCURVE",
"350 50 CURVE SMOOTH",
"350 22 OFFCURVE",
"372 0 OFFCURVE",
"400 0 CURVE SMOOTH"
);
},
{
closed = 1;
nodes = (
"128 150 OFFCURVE",
"150 172 OFFCURVE",
"150 200 CURVE SMOOTH",
"150 228 OFFCURVE",
"128 250 OFFCURVE",
"100 250 CURVE SMOOTH",
"72 250 OFFCURVE",
"50 228 OFFCURVE",
"50 200 CURVE SMOOTH",
"50 172 OFFCURVE",
"72 150 OFFCURVE",
"100 150 CURVE SMOOTH"
);
},
{
closed = 1;
nodes = (
"428 150 OFFCURVE",
"450 172 OFFCURVE",
"450 200 CURVE SMOOTH",
"450 228 OFFCURVE",
"428 250 OFFCURVE",
"400 250 CURVE SMOOTH",
"372 250 OFFCURVE",
"350 228 OFFCURVE",
"350 200 CURVE SMOOTH",
"350 172 OFFCURVE",
"372 150 OFFCURVE",
"400 150 CURVE SMOOTH"
);
},
{
closed = 1;
nodes = (
"128 300 OFFCURVE",
"150 322 OFFCURVE",
"150 350 CURVE SMOOTH",
"150 378 OFFCURVE",
"128 400 OFFCURVE",
"100 400 CURVE SMOOTH",
"72 400 OFFCURVE",
"50 378 OFFCURVE",
"50 350 CURVE SMOOTH",
"50 322 OFFCURVE",
"72 300 OFFCURVE",
"100 300 CURVE SMOOTH"
);
},
{
closed = 1;
nodes = (
"428 300 OFFCURVE",
"450 322 OFFCURVE",
"450 350 CURVE SMOOTH",
"450 378 OFFCURVE",
"428 400 OFFCURVE",
"400 400 CURVE SMOOTH",
"372 400 OFFCURVE",
"350 378 OFFCURVE",
"350 350 CURVE SMOOTH",
"350 322 OFFCURVE",
"372 300 OFFCURVE",
"400 300 CURVE SMOOTH"
);
},
{
closed = 1;
nodes = (
"228 450 OFFCURVE",
"250 472 OFFCURVE",
"250 500 CURVE SMOOTH",
"250 528 OFFCURVE",
"228 550 OFFCURVE",
"200 550 CURVE SMOOTH",
"172 550 OFFCURVE",
"150 528 OFFCURVE",
"150 500 CURVE SMOOTH",
"150 472 OFFCURVE",
"172 450 OFFCURVE",
"200 450 CURVE SMOOTH"
);
},
{
closed = 1;
nodes = (
"328 450 OFFCURVE",
"350 472 OFFCURVE",
"350 500 CURVE SMOOTH",
"350 528 OFFCURVE",
"328 550 OFFCURVE",
"300 550 CURVE SMOOTH",
"272 550 OFFCURVE",
"250 528 OFFCURVE",
"250 500 CURVE SMOOTH",
"250 472 OFFCURVE",
"272 450 OFFCURVE",
"300 450 CURVE SMOOTH"
);
},
{
closed = 1;
nodes = (
"428 450 OFFCURVE",
"450 472 OFFCURVE",
"450 500 CURVE SMOOTH",
"450 528 OFFCURVE",
"428 550 OFFCURVE",
"400 550 CURVE SMOOTH",
"372 550 OFFCURVE",
"350 528 OFFCURVE",
"350 500 CURVE SMOOTH",
"350 472 OFFCURVE",
"372 450 OFFCURVE",
"400 450 CURVE SMOOTH"
);
}
);
width = 500;
}
);
unicode = 0067;
},
{
glyphname = h;
lastChange = "2024-09-28 14:14:57 +0000";
layers = (
{
anchors = (
{
name = bottom;
position = "{300, 0}";
},
{
name = center;
position = "{300, 350}";
},
{
name = top;
position = "{300, 550}";
}
);
layerId = "CAAE6B47-272D-418B-B8E9-730CC53AA9A0";
paths = (
{
closed = 1;
nodes = (
"128 0 OFFCURVE",
"150 22 OFFCURVE",
"150 50 CURVE SMOOTH",
"150 78 OFFCURVE",
"128 100 OFFCURVE",
"100 100 CURVE SMOOTH",
"72 100 OFFCURVE",
"50 78 OFFCURVE",
"50 50 CURVE SMOOTH",
"50 22 OFFCURVE",
"72 0 OFFCURVE",
"100 0 CURVE SMOOTH"
);
},
{
closed = 1;
nodes = (
"428 0 OFFCURVE",
"450 22 OFFCURVE",
"450 50 CURVE SMOOTH",
"450 78 OFFCURVE",
"428 100 OFFCURVE",
"400 100 CURVE SMOOTH",
"372 100 OFFCURVE",
"350 78 OFFCURVE",
"350 50 CURVE SMOOTH",
"350 22 OFFCURVE",
"372 0 OFFCURVE",
"400 0 CURVE SMOOTH"
);
},
{
closed = 1;
nodes = (
"128 150 OFFCURVE",
"150 172 OFFCURVE",
"150 200 CURVE SMOOTH",
"150 228 OFFCURVE",
"128 250 OFFCURVE",
"100 250 CURVE SMOOTH",
"72 250 OFFCURVE",
"50 228 OFFCURVE",
"50 200 CURVE SMOOTH",
"50 172 OFFCURVE",
"72 150 OFFCURVE",
"100 150 CURVE SMOOTH"
);
},
{
closed = 1;
nodes = (
"428 150 OFFCURVE",
"450 172 OFFCURVE",
"450 200 CURVE SMOOTH",
"450 228 OFFCURVE",
"428 250 OFFCURVE",
"400 250 CURVE SMOOTH",
"372 250 OFFCURVE",
"350 228 OFFCURVE",
"350 200 CURVE SMOOTH",
"350 172 OFFCURVE",
"372 150 OFFCURVE",
"400 150 CURVE SMOOTH"
);
},
{
closed = 1;
nodes = (
"128 300 OFFCURVE",
"150 322 OFFCURVE",
"150 350 CURVE SMOOTH",
"150 378 OFFCURVE",
"128 400 OFFCURVE",
"100 400 CURVE SMOOTH",
"72 400 OFFCURVE",
"50 378 OFFCURVE",
"50 350 CURVE SMOOTH",
"50 322 OFFCURVE",
"72 300 OFFCURVE",
"100 300 CURVE SMOOTH"
);
},
{
closed = 1;
nodes = (
"428 300 OFFCURVE",
"450 322 OFFCURVE",
"450 350 CURVE SMOOTH",
"450 378 OFFCURVE",
"428 400 OFFCURVE",
"400 400 CURVE SMOOTH",
"372 400 OFFCURVE",
"350 378 OFFCURVE",
"350 350 CURVE SMOOTH",
"350 322 OFFCURVE",
"372 300 OFFCURVE",
"400 300 CURVE SMOOTH"
);
},
{
closed = 1;
nodes = (
"128 450 OFFCURVE",
"150 472 OFFCURVE",
"150 500 CURVE SMOOTH",
"150 528 OFFCURVE",
"128 550 OFFCURVE",
"100 550 CURVE SMOOTH",
"72 550 OFFCURVE",
"50 528 OFFCURVE",
"50 500 CURVE SMOOTH",
"50 472 OFFCURVE",
"72 450 OFFCURVE",
"100 450 CURVE SMOOTH"
);
},
{
closed = 1;
nodes = (
"228 450 OFFCURVE",
"250 472 OFFCURVE",
"250 500 CURVE SMOOTH",
"250 528 OFFCURVE",
"228 550 OFFCURVE",
"200 550 CURVE SMOOTH",
"172 550 OFFCURVE",
"150 528 OFFCURVE",
"150 500 CURVE SMOOTH",
"150 472 OFFCURVE",
"172 450 OFFCURVE",
"200 450 CURVE SMOOTH"
);
},
{
closed = 1;
nodes = (
"328 450 OFFCURVE",
"350 472 OFFCURVE",
"350 500 CURVE SMOOTH",
"350 528 OFFCURVE",
"328 550 OFFCURVE",
"300 550 CURVE SMOOTH",
"272 550 OFFCURVE",
"250 528 OFFCURVE",
"250 500 CURVE SMOOTH",
"250 472 OFFCURVE",
"272 450 OFFCURVE",
"300 450 CURVE SMOOTH"
);
},
{
closed = 1;
nodes = (
"128 600 OFFCURVE",
"150 622 OFFCURVE",
"150 650 CURVE SMOOTH",
"150 678 OFFCURVE",
"128 700 OFFCURVE",
"100 700 CURVE SMOOTH",
"72 700 OFFCURVE",
"50 678 OFFCURVE",
"50 650 CURVE SMOOTH",
"50 622 OFFCURVE",
"72 600 OFFCURVE",
"100 600 CURVE SMOOTH"
);
}
);
width = 500;
}
);
unicode = 0068;
},
{
glyphname = i;
lastChange = "2024-09-28 14:15:17 +0000";
layers = (
{
anchors = (
{
name = bottom;
position = "{200, 0}";
}
);
layerId = "CAAE6B47-272D-418B-B8E9-730CC53AA9A0";
paths = (
{
closed = 1;
nodes = (
"128 0 OFFCURVE",
"150 22 OFFCURVE",
"150 50 CURVE SMOOTH",
"150 78 OFFCURVE",
"128 100 OFFCURVE",
"100 100 CURVE SMOOTH",
"72 100 OFFCURVE",
"50 78 OFFCURVE",
"50 50 CURVE SMOOTH",
"50 22 OFFCURVE",
"72 0 OFFCURVE",
"100 0 CURVE SMOOTH"
);
},
{
closed = 1;
nodes = (
"228 0 OFFCURVE",
"250 22 OFFCURVE",
"250 50 CURVE SMOOTH",
"250 78 OFFCURVE",
"228 100 OFFCURVE",
"200 100 CURVE SMOOTH",
"172 100 OFFCURVE",
"150 78 OFFCURVE",
"150 50 CURVE SMOOTH",
"150 22 OFFCURVE",
"172 0 OFFCURVE",
"200 0 CURVE SMOOTH"
);
},
{
closed = 1;
nodes = (
"328 0 OFFCURVE",
"350 22 OFFCURVE",
"350 50 CURVE SMOOTH",
"350 78 OFFCURVE",
"328 100 OFFCURVE",
"300 100 CURVE SMOOTH",
"272 100 OFFCURVE",
"250 78 OFFCURVE",
"250 50 CURVE SMOOTH",
"250 22 OFFCURVE",
"272 0 OFFCURVE",
"300 0 CURVE SMOOTH"
);
},
{
closed = 1;
nodes = (
"228 150 OFFCURVE",
"250 172 OFFCURVE",
"250 200 CURVE SMOOTH",
"250 228 OFFCURVE",
"228 250 OFFCURVE",
"200 250 CURVE SMOOTH",
"172 250 OFFCURVE",
"150 228 OFFCURVE",
"150 200 CURVE SMOOTH",
"150 172 OFFCURVE",
"172 150 OFFCURVE",
"200 150 CURVE SMOOTH"
);
},
{
closed = 1;
nodes = (
"228 300 OFFCURVE",
"250 322 OFFCURVE",
"250 350 CURVE SMOOTH",
"250 378 OFFCURVE",
"228 400 OFFCURVE",
"200 400 CURVE SMOOTH",
"172 400 OFFCURVE",
"150 378 OFFCURVE",
"150 350 CURVE SMOOTH",
"150 322 OFFCURVE",
"172 300 OFFCURVE",
"200 300 CURVE SMOOTH"
);
},
{
closed = 1;
nodes = (
"128 450 OFFCURVE",
"150 472 OFFCURVE",
"150 500 CURVE SMOOTH",
"150 528 OFFCURVE",
"128 550 OFFCURVE",
"100 550 CURVE SMOOTH",
"72 550 OFFCURVE",
"50 528 OFFCURVE",
"50 500 CURVE SMOOTH",
"50 472 OFFCURVE",
"72 450 OFFCURVE",
"100 450 CURVE SMOOTH"
);
},
{
closed = 1;
nodes = (
"228 450 OFFCURVE",
"250 472 OFFCURVE",
"250 500 CURVE SMOOTH",
"250 528 OFFCURVE",
"228 550 OFFCURVE",
"200 550 CURVE SMOOTH",
"172 550 OFFCURVE",
"150 528 OFFCURVE",
"150 500 CURVE SMOOTH",
"150 472 OFFCURVE",
"172 450 OFFCURVE",
"200 450 CURVE SMOOTH"
);
},
{
closed = 1;
nodes = (
"228 600 OFFCURVE",
"250 622 OFFCURVE",
"250 650 CURVE SMOOTH",
"250 678 OFFCURVE",
"228 700 OFFCURVE",
"200 700 CURVE SMOOTH",
"172 700 OFFCURVE",
"150 678 OFFCURVE",
"150 650 CURVE SMOOTH",
"150 622 OFFCURVE",
"172 600 OFFCURVE",
"200 600 CURVE SMOOTH"
);
}
);
width = 400;
}
);
unicode = 0069;
},
{
glyphname = idotless;
lastChange = "2024-09-28 14:30:40 +0000";
layers = (
{
anchors = (
{
name = bottom;
position = "{200, 0}";
},
{
name = ogonek;
position = "{350, 0}";
},
{
name = top;
position = "{200, 550}";
}
);
layerId = "CAAE6B47-272D-418B-B8E9-730CC53AA9A0";
paths = (
{
closed = 1;
nodes = (
"128 0 OFFCURVE",
"150 22 OFFCURVE",
"150 50 CURVE SMOOTH",
"150 78 OFFCURVE",
"128 100 OFFCURVE",
"100 100 CURVE SMOOTH",
"72 100 OFFCURVE",
"50 78 OFFCURVE",
"50 50 CURVE SMOOTH",
"50 22 OFFCURVE",
"72 0 OFFCURVE",
"100 0 CURVE SMOOTH"
);
},
{
closed = 1;
nodes = (
"228 0 OFFCURVE",
"250 22 OFFCURVE",
"250 50 CURVE SMOOTH",
"250 78 OFFCURVE",
"228 100 OFFCURVE",
"200 100 CURVE SMOOTH",
"172 100 OFFCURVE",
"150 78 OFFCURVE",
"150 50 CURVE SMOOTH",
"150 22 OFFCURVE",
"172 0 OFFCURVE",
"200 0 CURVE SMOOTH"
);
},
{
closed = 1;
nodes = (
"328 0 OFFCURVE",
"350 22 OFFCURVE",
"350 50 CURVE SMOOTH",
"350 78 OFFCURVE",
"328 100 OFFCURVE",
"300 100 CURVE SMOOTH",
"272 100 OFFCURVE",
"250 78 OFFCURVE",
"250 50 CURVE SMOOTH",
"250 22 OFFCURVE",
"272 0 OFFCURVE",
"300 0 CURVE SMOOTH"
);
},
{
closed = 1;
nodes = (
"228 150 OFFCURVE",
"250 172 OFFCURVE",
"250 200 CURVE SMOOTH",
"250 228 OFFCURVE",
"228 250 OFFCURVE",
"200 250 CURVE SMOOTH",
"172 250 OFFCURVE",
"150 228 OFFCURVE",
"150 200 CURVE SMOOTH",
"150 172 OFFCURVE",
"172 150 OFFCURVE",
"200 150 CURVE SMOOTH"
);
},
{
closed = 1;
nodes = (
"228 300 OFFCURVE",
"250 322 OFFCURVE",
"250 350 CURVE SMOOTH",
"250 378 OFFCURVE",
"228 400 OFFCURVE",
"200 400 CURVE SMOOTH",
"172 400 OFFCURVE",
"150 378 OFFCURVE",
"150 350 CURVE SMOOTH",
"150 322 OFFCURVE",
"172 300 OFFCURVE",
"200 300 CURVE SMOOTH"
);
},
{
closed = 1;
nodes = (
"128 450 OFFCURVE",
"150 472 OFFCURVE",
"150 500 CURVE SMOOTH",
"150 528 OFFCURVE",
"128 550 OFFCURVE",
"100 550 CURVE SMOOTH",
"72 550 OFFCURVE",
"50 528 OFFCURVE",
"50 500 CURVE SMOOTH",
"50 472 OFFCURVE",
"72 450 OFFCURVE",
"100 450 CURVE SMOOTH"
);
},
{
closed = 1;
nodes = (
"228 450 OFFCURVE",
"250 472 OFFCURVE",
"250 500 CURVE SMOOTH",
"250 528 OFFCURVE",
"228 550 OFFCURVE",
"200 550 CURVE SMOOTH",
"172 550 OFFCURVE",
"150 528 OFFCURVE",
"150 500 CURVE SMOOTH",
"150 472 OFFCURVE",
"172 450 OFFCURVE",
"200 450 CURVE SMOOTH"
);
}
);
width = 400;
}
);
unicode = 0131;
},
{
glyphname = j;
lastChange = "2024-09-28 14:16:19 +0000";
layers = (
{
layerId = "CAAE6B47-272D-418B-B8E9-730CC53AA9A0";
paths = (
{
closed = 1;
nodes = (
"328 0 OFFCURVE",
"350 22 OFFCURVE",
"350 50 CURVE SMOOTH",
"350 78 OFFCURVE",
"328 100 OFFCURVE",
"300 100 CURVE SMOOTH",
"272 100 OFFCURVE",
"250 78 OFFCURVE",
"250 50 CURVE SMOOTH",
"250 22 OFFCURVE",
"272 0 OFFCURVE",
"300 0 CURVE SMOOTH"
);
},
{
closed = 1;
nodes = (
"328 150 OFFCURVE",
"350 172 OFFCURVE",
"350 200 CURVE SMOOTH",
"350 228 OFFCURVE",
"328 250 OFFCURVE",
"300 250 CURVE SMOOTH",
"272 250 OFFCURVE",
"250 228 OFFCURVE",
"250 200 CURVE SMOOTH",
"250 172 OFFCURVE",
"272 150 OFFCURVE",
"300 150 CURVE SMOOTH"
);
},
{
closed = 1;
nodes = (
"328 300 OFFCURVE",
"350 322 OFFCURVE",
"350 350 CURVE SMOOTH",
"350 378 OFFCURVE",
"328 400 OFFCURVE",
"300 400 CURVE SMOOTH",
"272 400 OFFCURVE",
"250 378 OFFCURVE",
"250 350 CURVE SMOOTH",
"250 322 OFFCURVE",
"272 300 OFFCURVE",
"300 300 CURVE SMOOTH"
);
},
{
closed = 1;
nodes = (
"228 450 OFFCURVE",
"250 472 OFFCURVE",
"250 500 CURVE SMOOTH",
"250 528 OFFCURVE",
"228 550 OFFCURVE",
"200 550 CURVE SMOOTH",
"172 550 OFFCURVE",
"150 528 OFFCURVE",
"150 500 CURVE SMOOTH",
"150 472 OFFCURVE",
"172 450 OFFCURVE",
"200 450 CURVE SMOOTH"
);
},
{
closed = 1;
nodes = (
"328 450 OFFCURVE",
"350 472 OFFCURVE",
"350 500 CURVE SMOOTH",
"350 528 OFFCURVE",
"328 550 OFFCURVE",
"300 550 CURVE SMOOTH",
"272 550 OFFCURVE",
"250 528 OFFCURVE",
"250 500 CURVE SMOOTH",
"250 472 OFFCURVE",
"272 450 OFFCURVE",
"300 450 CURVE SMOOTH"
);
},
{
closed = 1;
nodes = (
"328 600 OFFCURVE",
"350 622 OFFCURVE",
"350 650 CURVE SMOOTH",
"350 678 OFFCURVE",
"328 700 OFFCURVE",
"300 700 CURVE SMOOTH",
"272 700 OFFCURVE",
"250 678 OFFCURVE",
"250 650 CURVE SMOOTH",
"250 622 OFFCURVE",
"272 600 OFFCURVE",
"300 600 CURVE SMOOTH"
);
},
{
closed = 1;
nodes = (
"128 -150 OFFCURVE",
"150 -128 OFFCURVE",
"150 -100 CURVE SMOOTH",
"150 -72 OFFCURVE",
"128 -50 OFFCURVE",
"100 -50 CURVE SMOOTH",
"72 -50 OFFCURVE",
"50 -72 OFFCURVE",
"50 -100 CURVE SMOOTH",
"50 -128 OFFCURVE",
"72 -150 OFFCURVE",
"100 -150 CURVE SMOOTH"
);
},
{
closed = 1;
nodes = (
"228 -150 OFFCURVE",
"250 -128 OFFCURVE",
"250 -100 CURVE SMOOTH",
"250 -72 OFFCURVE",
"228 -50 OFFCURVE",
"200 -50 CURVE SMOOTH",
"172 -50 OFFCURVE",
"150 -72 OFFCURVE",
"150 -100 CURVE SMOOTH",
"150 -128 OFFCURVE",
"172 -150 OFFCURVE",
"200 -150 CURVE SMOOTH"
);
}
);
width = 400;
}
);
unicode = 006A;
},
{
glyphname = jdotless;
lastChange = "2024-11-07 08:58:33 +0000";
layers = (
{
layerId = "CAAE6B47-272D-418B-B8E9-730CC53AA9A0";
paths = (
{
closed = 1;
nodes = (
"328 0 OFFCURVE",
"350 22 OFFCURVE",
"350 50 CURVE SMOOTH",
"350 78 OFFCURVE",
"328 100 OFFCURVE",
"300 100 CURVE SMOOTH",
"272 100 OFFCURVE",
"250 78 OFFCURVE",
"250 50 CURVE SMOOTH",
"250 22 OFFCURVE",
"272 0 OFFCURVE",
"300 0 CURVE SMOOTH"
);
},
{
closed = 1;
nodes = (
"328 150 OFFCURVE",
"350 172 OFFCURVE",
"350 200 CURVE SMOOTH",
"350 228 OFFCURVE",
"328 250 OFFCURVE",
"300 250 CURVE SMOOTH",
"272 250 OFFCURVE",
"250 228 OFFCURVE",
"250 200 CURVE SMOOTH",
"250 172 OFFCURVE",
"272 150 OFFCURVE",
"300 150 CURVE SMOOTH"
);
},
{
closed = 1;
nodes = (
"328 300 OFFCURVE",
"350 322 OFFCURVE",
"350 350 CURVE SMOOTH",
"350 378 OFFCURVE",
"328 400 OFFCURVE",
"300 400 CURVE SMOOTH",
"272 400 OFFCURVE",
"250 378 OFFCURVE",
"250 350 CURVE SMOOTH",
"250 322 OFFCURVE",
"272 300 OFFCURVE",
"300 300 CURVE SMOOTH"
);
},
{
closed = 1;
nodes = (
"228 450 OFFCURVE",
"250 472 OFFCURVE",
"250 500 CURVE SMOOTH",
"250 528 OFFCURVE",
"228 550 OFFCURVE",
"200 550 CURVE SMOOTH",
"172 550 OFFCURVE",
"150 528 OFFCURVE",
"150 500 CURVE SMOOTH",
"150 472 OFFCURVE",
"172 450 OFFCURVE",
"200 450 CURVE SMOOTH"
);
},
{
closed = 1;
nodes = (
"328 450 OFFCURVE",
"350 472 OFFCURVE",
"350 500 CURVE SMOOTH",
"350 528 OFFCURVE",
"328 550 OFFCURVE",
"300 550 CURVE SMOOTH",
"272 550 OFFCURVE",
"250 528 OFFCURVE",
"250 500 CURVE SMOOTH",
"250 472 OFFCURVE",
"272 450 OFFCURVE",
"300 450 CURVE SMOOTH"
);
},
{
closed = 1;
nodes = (
"128 -150 OFFCURVE",
"150 -128 OFFCURVE",
"150 -100 CURVE SMOOTH",
"150 -72 OFFCURVE",
"128 -50 OFFCURVE",
"100 -50 CURVE SMOOTH",
"72 -50 OFFCURVE",
"50 -72 OFFCURVE",
"50 -100 CURVE SMOOTH",
"50 -128 OFFCURVE",
"72 -150 OFFCURVE",
"100 -150 CURVE SMOOTH"
);
},
{
closed = 1;
nodes = (
"228 -150 OFFCURVE",
"250 -128 OFFCURVE",
"250 -100 CURVE SMOOTH",
"250 -72 OFFCURVE",
"228 -50 OFFCURVE",
"200 -50 CURVE SMOOTH",
"172 -50 OFFCURVE",
"150 -72 OFFCURVE",
"150 -100 CURVE SMOOTH",
"150 -128 OFFCURVE",
"172 -150 OFFCURVE",
"200 -150 CURVE SMOOTH"
);
}
);
width = 400;
}
);
unicode = 0237;
},
{
glyphname = k;
lastChange = "2024-10-07 15:14:56 +0000";
layers = (
{
anchors = (
{
name = bottom;
position = "{300, 0}";
},
{
name = top;
position = "{300, 550}";
}
);
layerId = "CAAE6B47-272D-418B-B8E9-730CC53AA9A0";
paths = (
{
closed = 1;
nodes = (
"128 0 OFFCURVE",
"150 22 OFFCURVE",
"150 50 CURVE SMOOTH",
"150 78 OFFCURVE",
"128 100 OFFCURVE",
"100 100 CURVE SMOOTH",
"72 100 OFFCURVE",
"50 78 OFFCURVE",
"50 50 CURVE SMOOTH",
"50 22 OFFCURVE",
"72 0 OFFCURVE",
"100 0 CURVE SMOOTH"
);
},
{
closed = 1;
nodes = (
"428 0 OFFCURVE",
"450 22 OFFCURVE",
"450 50 CURVE SMOOTH",
"450 78 OFFCURVE",
"428 100 OFFCURVE",
"400 100 CURVE SMOOTH",
"372 100 OFFCURVE",
"350 78 OFFCURVE",
"350 50 CURVE SMOOTH",
"350 22 OFFCURVE",
"372 0 OFFCURVE",
"400 0 CURVE SMOOTH"
);
},
{
closed = 1;
nodes = (
"128 150 OFFCURVE",
"150 172 OFFCURVE",
"150 200 CURVE SMOOTH",
"150 228 OFFCURVE",
"128 250 OFFCURVE",
"100 250 CURVE SMOOTH",
"72 250 OFFCURVE",
"50 228 OFFCURVE",
"50 200 CURVE SMOOTH",
"50 172 OFFCURVE",
"72 150 OFFCURVE",
"100 150 CURVE SMOOTH"
);
},
{
closed = 1;
nodes = (
"228 150 OFFCURVE",
"250 172 OFFCURVE",
"250 200 CURVE SMOOTH",
"250 228 OFFCURVE",
"228 250 OFFCURVE",
"200 250 CURVE SMOOTH",
"172 250 OFFCURVE",
"150 228 OFFCURVE",
"150 200 CURVE SMOOTH",
"150 172 OFFCURVE",
"172 150 OFFCURVE",
"200 150 CURVE SMOOTH"
);
},
{
closed = 1;
nodes = (
"328 150 OFFCURVE",
"350 172 OFFCURVE",
"350 200 CURVE SMOOTH",
"350 228 OFFCURVE",
"328 250 OFFCURVE",
"300 250 CURVE SMOOTH",
"272 250 OFFCURVE",
"250 228 OFFCURVE",
"250 200 CURVE SMOOTH",
"250 172 OFFCURVE",
"272 150 OFFCURVE",
"300 150 CURVE SMOOTH"
);
},
{
closed = 1;
nodes = (
"128 300 OFFCURVE",
"150 322 OFFCURVE",
"150 350 CURVE SMOOTH",
"150 378 OFFCURVE",
"128 400 OFFCURVE",
"100 400 CURVE SMOOTH",
"72 400 OFFCURVE",
"50 378 OFFCURVE",
"50 350 CURVE SMOOTH",
"50 322 OFFCURVE",
"72 300 OFFCURVE",
"100 300 CURVE SMOOTH"
);
},
{
closed = 1;
nodes = (
"328 300 OFFCURVE",
"350 322 OFFCURVE",
"350 350 CURVE SMOOTH",
"350 378 OFFCURVE",
"328 400 OFFCURVE",
"300 400 CURVE SMOOTH",
"272 400 OFFCURVE",
"250 378 OFFCURVE",
"250 350 CURVE SMOOTH",
"250 322 OFFCURVE",
"272 300 OFFCURVE",
"300 300 CURVE SMOOTH"
);
},
{
closed = 1;
nodes = (
"128 450 OFFCURVE",
"150 472 OFFCURVE",
"150 500 CURVE SMOOTH",
"150 528 OFFCURVE",
"128 550 OFFCURVE",
"100 550 CURVE SMOOTH",
"72 550 OFFCURVE",
"50 528 OFFCURVE",
"50 500 CURVE SMOOTH",
"50 472 OFFCURVE",
"72 450 OFFCURVE",
"100 450 CURVE SMOOTH"
);
},
{
closed = 1;
nodes = (
"428 450 OFFCURVE",
"450 472 OFFCURVE",
"450 500 CURVE SMOOTH",
"450 528 OFFCURVE",
"428 550 OFFCURVE",
"400 550 CURVE SMOOTH",
"372 550 OFFCURVE",
"350 528 OFFCURVE",
"350 500 CURVE SMOOTH",
"350 472 OFFCURVE",
"372 450 OFFCURVE",
"400 450 CURVE SMOOTH"
);
},
{
closed = 1;
nodes = (
"128 600 OFFCURVE",
"150 622 OFFCURVE",
"150 650 CURVE SMOOTH",
"150 678 OFFCURVE",
"128 700 OFFCURVE",
"100 700 CURVE SMOOTH",
"72 700 OFFCURVE",
"50 678 OFFCURVE",
"50 650 CURVE SMOOTH",
"50 622 OFFCURVE",
"72 600 OFFCURVE",
"100 600 CURVE SMOOTH"
);
}
);
width = 500;
}
);
unicode = 006B;
},
{
glyphname = l;
lastChange = "2024-09-28 14:17:30 +0000";
layers = (
{
anchors = (
{
name = bottom;
position = "{200, 0}";
},
{
name = center;
position = "{200, 350}";
},
{
name = top;
position = "{200, 550}";
},
{
name = topright;
position = "{350, 550}";
}
);
layerId = "CAAE6B47-272D-418B-B8E9-730CC53AA9A0";
paths = (
{
closed = 1;
nodes = (
"328 0 OFFCURVE",
"350 22 OFFCURVE",
"350 50 CURVE SMOOTH",
"350 78 OFFCURVE",
"328 100 OFFCURVE",
"300 100 CURVE SMOOTH",
"272 100 OFFCURVE",
"250 78 OFFCURVE",
"250 50 CURVE SMOOTH",
"250 22 OFFCURVE",
"272 0 OFFCURVE",
"300 0 CURVE SMOOTH"
);
},
{
closed = 1;
nodes = (
"228 150 OFFCURVE",
"250 172 OFFCURVE",
"250 200 CURVE SMOOTH",
"250 228 OFFCURVE",
"228 250 OFFCURVE",
"200 250 CURVE SMOOTH",
"172 250 OFFCURVE",
"150 228 OFFCURVE",
"150 200 CURVE SMOOTH",
"150 172 OFFCURVE",
"172 150 OFFCURVE",
"200 150 CURVE SMOOTH"
);
},
{
closed = 1;
nodes = (
"228 300 OFFCURVE",
"250 322 OFFCURVE",
"250 350 CURVE SMOOTH",
"250 378 OFFCURVE",
"228 400 OFFCURVE",
"200 400 CURVE SMOOTH",
"172 400 OFFCURVE",
"150 378 OFFCURVE",
"150 350 CURVE SMOOTH",
"150 322 OFFCURVE",
"172 300 OFFCURVE",
"200 300 CURVE SMOOTH"
);
},
{
closed = 1;
nodes = (
"228 450 OFFCURVE",
"250 472 OFFCURVE",
"250 500 CURVE SMOOTH",
"250 528 OFFCURVE",
"228 550 OFFCURVE",
"200 550 CURVE SMOOTH",
"172 550 OFFCURVE",
"150 528 OFFCURVE",
"150 500 CURVE SMOOTH",
"150 472 OFFCURVE",
"172 450 OFFCURVE",
"200 450 CURVE SMOOTH"
);
},
{
closed = 1;
nodes = (
"128 600 OFFCURVE",
"150 622 OFFCURVE",
"150 650 CURVE SMOOTH",
"150 678 OFFCURVE",
"128 700 OFFCURVE",
"100 700 CURVE SMOOTH",
"72 700 OFFCURVE",
"50 678 OFFCURVE",
"50 650 CURVE SMOOTH",
"50 622 OFFCURVE",
"72 600 OFFCURVE",
"100 600 CURVE SMOOTH"
);
},
{
closed = 1;
nodes = (
"228 600 OFFCURVE",
"250 622 OFFCURVE",
"250 650 CURVE SMOOTH",
"250 678 OFFCURVE",
"228 700 OFFCURVE",
"200 700 CURVE SMOOTH",
"172 700 OFFCURVE",
"150 678 OFFCURVE",
"150 650 CURVE SMOOTH",
"150 622 OFFCURVE",
"172 600 OFFCURVE",
"200 600 CURVE SMOOTH"
);
}
);
width = 400;
}
);
unicode = 006C;
},
{
glyphname = lslash;
lastChange = "2024-09-28 15:02:57 +0000";
layers = (
{
anchors = (
{
name = _center;
position = "{200, 350}";
}
);
components = (
{
name = l;
}
);
layerId = "CAAE6B47-272D-418B-B8E9-730CC53AA9A0";
paths = (
{
closed = 1;
nodes = (
"128 300 OFFCURVE",
"150 322 OFFCURVE",
"150 350 CURVE SMOOTH",
"150 378 OFFCURVE",
"128 400 OFFCURVE",
"100 400 CURVE SMOOTH",
"72 400 OFFCURVE",
"50 378 OFFCURVE",
"50 350 CURVE SMOOTH",
"50 322 OFFCURVE",
"72 300 OFFCURVE",
"100 300 CURVE SMOOTH"
);
},
{
closed = 1;
nodes = (
"228 300 OFFCURVE",
"250 322 OFFCURVE",
"250 350 CURVE SMOOTH",
"250 378 OFFCURVE",
"228 400 OFFCURVE",
"200 400 CURVE SMOOTH",
"172 400 OFFCURVE",
"150 378 OFFCURVE",
"150 350 CURVE SMOOTH",
"150 322 OFFCURVE",
"172 300 OFFCURVE",
"200 300 CURVE SMOOTH"
);
},
{
closed = 1;
nodes = (
"328 450 OFFCURVE",
"350 472 OFFCURVE",
"350 500 CURVE SMOOTH",
"350 528 OFFCURVE",
"328 550 OFFCURVE",
"300 550 CURVE SMOOTH",
"272 550 OFFCURVE",
"250 528 OFFCURVE",
"250 500 CURVE SMOOTH",
"250 472 OFFCURVE",
"272 450 OFFCURVE",
"300 450 CURVE SMOOTH"
);
}
);
width = 400;
}
);
unicode = 0142;
},
{
glyphname = m;
lastChange = "2024-09-28 14:17:43 +0000";
layers = (
{
layerId = "CAAE6B47-272D-418B-B8E9-730CC53AA9A0";
paths = (
{
closed = 1;
nodes = (
"128 0 OFFCURVE",
"150 22 OFFCURVE",
"150 50 CURVE SMOOTH",
"150 78 OFFCURVE",
"128 100 OFFCURVE",
"100 100 CURVE SMOOTH",
"72 100 OFFCURVE",
"50 78 OFFCURVE",
"50 50 CURVE SMOOTH",
"50 22 OFFCURVE",
"72 0 OFFCURVE",
"100 0 CURVE SMOOTH"
);
},
{
closed = 1;
nodes = (
"328 0 OFFCURVE",
"350 22 OFFCURVE",
"350 50 CURVE SMOOTH",
"350 78 OFFCURVE",
"328 100 OFFCURVE",
"300 100 CURVE SMOOTH",
"272 100 OFFCURVE",
"250 78 OFFCURVE",
"250 50 CURVE SMOOTH",
"250 22 OFFCURVE",
"272 0 OFFCURVE",
"300 0 CURVE SMOOTH"
);
},
{
closed = 1;
nodes = (
"528 0 OFFCURVE",
"550 22 OFFCURVE",
"550 50 CURVE SMOOTH",
"550 78 OFFCURVE",
"528 100 OFFCURVE",
"500 100 CURVE SMOOTH",
"472 100 OFFCURVE",
"450 78 OFFCURVE",
"450 50 CURVE SMOOTH",
"450 22 OFFCURVE",
"472 0 OFFCURVE",
"500 0 CURVE SMOOTH"
);
},
{
closed = 1;
nodes = (
"128 150 OFFCURVE",
"150 172 OFFCURVE",
"150 200 CURVE SMOOTH",
"150 228 OFFCURVE",
"128 250 OFFCURVE",
"100 250 CURVE SMOOTH",
"72 250 OFFCURVE",
"50 228 OFFCURVE",
"50 200 CURVE SMOOTH",
"50 172 OFFCURVE",
"72 150 OFFCURVE",
"100 150 CURVE SMOOTH"
);
},
{
closed = 1;
nodes = (
"328 150 OFFCURVE",
"350 172 OFFCURVE",
"350 200 CURVE SMOOTH",
"350 228 OFFCURVE",
"328 250 OFFCURVE",
"300 250 CURVE SMOOTH",
"272 250 OFFCURVE",
"250 228 OFFCURVE",
"250 200 CURVE SMOOTH",
"250 172 OFFCURVE",
"272 150 OFFCURVE",
"300 150 CURVE SMOOTH"
);
},
{
closed = 1;
nodes = (
"528 150 OFFCURVE",
"550 172 OFFCURVE",
"550 200 CURVE SMOOTH",
"550 228 OFFCURVE",
"528 250 OFFCURVE",
"500 250 CURVE SMOOTH",
"472 250 OFFCURVE",
"450 228 OFFCURVE",
"450 200 CURVE SMOOTH",
"450 172 OFFCURVE",
"472 150 OFFCURVE",
"500 150 CURVE SMOOTH"
);
},
{
closed = 1;
nodes = (
"128 300 OFFCURVE",
"150 322 OFFCURVE",
"150 350 CURVE SMOOTH",
"150 378 OFFCURVE",
"128 400 OFFCURVE",
"100 400 CURVE SMOOTH",
"72 400 OFFCURVE",
"50 378 OFFCURVE",
"50 350 CURVE SMOOTH",
"50 322 OFFCURVE",
"72 300 OFFCURVE",
"100 300 CURVE SMOOTH"
);
},
{
closed = 1;
nodes = (
"328 300 OFFCURVE",
"350 322 OFFCURVE",
"350 350 CURVE SMOOTH",
"350 378 OFFCURVE",
"328 400 OFFCURVE",
"300 400 CURVE SMOOTH",
"272 400 OFFCURVE",
"250 378 OFFCURVE",
"250 350 CURVE SMOOTH",
"250 322 OFFCURVE",
"272 300 OFFCURVE",
"300 300 CURVE SMOOTH"
);
},
{
closed = 1;
nodes = (
"528 300 OFFCURVE",
"550 322 OFFCURVE",
"550 350 CURVE SMOOTH",
"550 378 OFFCURVE",
"528 400 OFFCURVE",
"500 400 CURVE SMOOTH",
"472 400 OFFCURVE",
"450 378 OFFCURVE",
"450 350 CURVE SMOOTH",
"450 322 OFFCURVE",
"472 300 OFFCURVE",
"500 300 CURVE SMOOTH"
);
},
{
closed = 1;
nodes = (
"128 450 OFFCURVE",
"150 472 OFFCURVE",
"150 500 CURVE SMOOTH",
"150 528 OFFCURVE",
"128 550 OFFCURVE",
"100 550 CURVE SMOOTH",
"72 550 OFFCURVE",
"50 528 OFFCURVE",
"50 500 CURVE SMOOTH",
"50 472 OFFCURVE",
"72 450 OFFCURVE",
"100 450 CURVE SMOOTH"
);
},
{
closed = 1;
nodes = (
"228 450 OFFCURVE",
"250 472 OFFCURVE",
"250 500 CURVE SMOOTH",
"250 528 OFFCURVE",
"228 550 OFFCURVE",
"200 550 CURVE SMOOTH",
"172 550 OFFCURVE",
"150 528 OFFCURVE",
"150 500 CURVE SMOOTH",
"150 472 OFFCURVE",
"172 450 OFFCURVE",
"200 450 CURVE SMOOTH"
);
},
{
closed = 1;
nodes = (
"328 450 OFFCURVE",
"350 472 OFFCURVE",
"350 500 CURVE SMOOTH",
"350 528 OFFCURVE",
"328 550 OFFCURVE",
"300 550 CURVE SMOOTH",
"272 550 OFFCURVE",
"250 528 OFFCURVE",
"250 500 CURVE SMOOTH",
"250 472 OFFCURVE",
"272 450 OFFCURVE",
"300 450 CURVE SMOOTH"
);
},
{
closed = 1;
nodes = (
"428 450 OFFCURVE",
"450 472 OFFCURVE",
"450 500 CURVE SMOOTH",
"450 528 OFFCURVE",
"428 550 OFFCURVE",
"400 550 CURVE SMOOTH",
"372 550 OFFCURVE",
"350 528 OFFCURVE",
"350 500 CURVE SMOOTH",
"350 472 OFFCURVE",
"372 450 OFFCURVE",
"400 450 CURVE SMOOTH"
);
}
);
width = 600;
}
);
unicode = 006D;
},
{
glyphname = n;
lastChange = "2024-09-28 14:18:05 +0000";
layers = (
{
anchors = (
{
name = bottom;
position = "{300, 0}";
},
{
name = top;
position = "{300, 550}";
}
);
layerId = "CAAE6B47-272D-418B-B8E9-730CC53AA9A0";
paths = (
{
closed = 1;
nodes = (
"128 0 OFFCURVE",
"150 22 OFFCURVE",
"150 50 CURVE SMOOTH",
"150 78 OFFCURVE",
"128 100 OFFCURVE",
"100 100 CURVE SMOOTH",
"72 100 OFFCURVE",
"50 78 OFFCURVE",
"50 50 CURVE SMOOTH",
"50 22 OFFCURVE",
"72 0 OFFCURVE",
"100 0 CURVE SMOOTH"
);
},
{
closed = 1;
nodes = (
"428 0 OFFCURVE",
"450 22 OFFCURVE",
"450 50 CURVE SMOOTH",
"450 78 OFFCURVE",
"428 100 OFFCURVE",
"400 100 CURVE SMOOTH",
"372 100 OFFCURVE",
"350 78 OFFCURVE",
"350 50 CURVE SMOOTH",
"350 22 OFFCURVE",
"372 0 OFFCURVE",
"400 0 CURVE SMOOTH"
);
},
{
closed = 1;
nodes = (
"128 150 OFFCURVE",
"150 172 OFFCURVE",
"150 200 CURVE SMOOTH",
"150 228 OFFCURVE",
"128 250 OFFCURVE",
"100 250 CURVE SMOOTH",
"72 250 OFFCURVE",
"50 228 OFFCURVE",
"50 200 CURVE SMOOTH",
"50 172 OFFCURVE",
"72 150 OFFCURVE",
"100 150 CURVE SMOOTH"
);
},
{
closed = 1;
nodes = (
"428 150 OFFCURVE",
"450 172 OFFCURVE",
"450 200 CURVE SMOOTH",
"450 228 OFFCURVE",
"428 250 OFFCURVE",
"400 250 CURVE SMOOTH",
"372 250 OFFCURVE",
"350 228 OFFCURVE",
"350 200 CURVE SMOOTH",
"350 172 OFFCURVE",
"372 150 OFFCURVE",
"400 150 CURVE SMOOTH"
);
},
{
closed = 1;
nodes = (
"128 300 OFFCURVE",
"150 322 OFFCURVE",
"150 350 CURVE SMOOTH",
"150 378 OFFCURVE",
"128 400 OFFCURVE",
"100 400 CURVE SMOOTH",
"72 400 OFFCURVE",
"50 378 OFFCURVE",
"50 350 CURVE SMOOTH",
"50 322 OFFCURVE",
"72 300 OFFCURVE",
"100 300 CURVE SMOOTH"
);
},
{
closed = 1;
nodes = (
"428 300 OFFCURVE",
"450 322 OFFCURVE",
"450 350 CURVE SMOOTH",
"450 378 OFFCURVE",
"428 400 OFFCURVE",
"400 400 CURVE SMOOTH",
"372 400 OFFCURVE",
"350 378 OFFCURVE",
"350 350 CURVE SMOOTH",
"350 322 OFFCURVE",
"372 300 OFFCURVE",
"400 300 CURVE SMOOTH"
);
},
{
closed = 1;
nodes = (
"128 450 OFFCURVE",
"150 472 OFFCURVE",
"150 500 CURVE SMOOTH",
"150 528 OFFCURVE",
"128 550 OFFCURVE",
"100 550 CURVE SMOOTH",
"72 550 OFFCURVE",
"50 528 OFFCURVE",
"50 500 CURVE SMOOTH",
"50 472 OFFCURVE",
"72 450 OFFCURVE",
"100 450 CURVE SMOOTH"
);
},
{
closed = 1;
nodes = (
"228 450 OFFCURVE",
"250 472 OFFCURVE",
"250 500 CURVE SMOOTH",
"250 528 OFFCURVE",
"228 550 OFFCURVE",
"200 550 CURVE SMOOTH",
"172 550 OFFCURVE",
"150 528 OFFCURVE",
"150 500 CURVE SMOOTH",
"150 472 OFFCURVE",
"172 450 OFFCURVE",
"200 450 CURVE SMOOTH"
);
},
{
closed = 1;
nodes = (
"328 450 OFFCURVE",
"350 472 OFFCURVE",
"350 500 CURVE SMOOTH",
"350 528 OFFCURVE",
"328 550 OFFCURVE",
"300 550 CURVE SMOOTH",
"272 550 OFFCURVE",
"250 528 OFFCURVE",
"250 500 CURVE SMOOTH",
"250 472 OFFCURVE",
"272 450 OFFCURVE",
"300 450 CURVE SMOOTH"
);
}
);
width = 500;
}
);
unicode = 006E;
},
{
glyphname = eng;
lastChange = "2024-09-28 15:03:33 +0000";
layers = (
{
layerId = "CAAE6B47-272D-418B-B8E9-730CC53AA9A0";
paths = (
{
closed = 1;
nodes = (
"128 0 OFFCURVE",
"150 22 OFFCURVE",
"150 50 CURVE SMOOTH",
"150 78 OFFCURVE",
"128 100 OFFCURVE",
"100 100 CURVE SMOOTH",
"72 100 OFFCURVE",
"50 78 OFFCURVE",
"50 50 CURVE SMOOTH",
"50 22 OFFCURVE",
"72 0 OFFCURVE",
"100 0 CURVE SMOOTH"
);
},
{
closed = 1;
nodes = (
"428 0 OFFCURVE",
"450 22 OFFCURVE",
"450 50 CURVE SMOOTH",
"450 78 OFFCURVE",
"428 100 OFFCURVE",
"400 100 CURVE SMOOTH",
"372 100 OFFCURVE",
"350 78 OFFCURVE",
"350 50 CURVE SMOOTH",
"350 22 OFFCURVE",
"372 0 OFFCURVE",
"400 0 CURVE SMOOTH"
);
},
{
closed = 1;
nodes = (
"128 150 OFFCURVE",
"150 172 OFFCURVE",
"150 200 CURVE SMOOTH",
"150 228 OFFCURVE",
"128 250 OFFCURVE",
"100 250 CURVE SMOOTH",
"72 250 OFFCURVE",
"50 228 OFFCURVE",
"50 200 CURVE SMOOTH",
"50 172 OFFCURVE",
"72 150 OFFCURVE",
"100 150 CURVE SMOOTH"
);
},
{
closed = 1;
nodes = (
"428 150 OFFCURVE",
"450 172 OFFCURVE",
"450 200 CURVE SMOOTH",
"450 228 OFFCURVE",
"428 250 OFFCURVE",
"400 250 CURVE SMOOTH",
"372 250 OFFCURVE",
"350 228 OFFCURVE",
"350 200 CURVE SMOOTH",
"350 172 OFFCURVE",
"372 150 OFFCURVE",
"400 150 CURVE SMOOTH"
);
},
{
closed = 1;
nodes = (
"128 300 OFFCURVE",
"150 322 OFFCURVE",
"150 350 CURVE SMOOTH",
"150 378 OFFCURVE",
"128 400 OFFCURVE",
"100 400 CURVE SMOOTH",
"72 400 OFFCURVE",
"50 378 OFFCURVE",
"50 350 CURVE SMOOTH",
"50 322 OFFCURVE",
"72 300 OFFCURVE",
"100 300 CURVE SMOOTH"
);
},
{
closed = 1;
nodes = (
"428 300 OFFCURVE",
"450 322 OFFCURVE",
"450 350 CURVE SMOOTH",
"450 378 OFFCURVE",
"428 400 OFFCURVE",
"400 400 CURVE SMOOTH",
"372 400 OFFCURVE",
"350 378 OFFCURVE",
"350 350 CURVE SMOOTH",
"350 322 OFFCURVE",
"372 300 OFFCURVE",
"400 300 CURVE SMOOTH"
);
},
{
closed = 1;
nodes = (
"128 450 OFFCURVE",
"150 472 OFFCURVE",
"150 500 CURVE SMOOTH",
"150 528 OFFCURVE",
"128 550 OFFCURVE",
"100 550 CURVE SMOOTH",
"72 550 OFFCURVE",
"50 528 OFFCURVE",
"50 500 CURVE SMOOTH",
"50 472 OFFCURVE",
"72 450 OFFCURVE",
"100 450 CURVE SMOOTH"
);
},
{
closed = 1;
nodes = (
"228 450 OFFCURVE",
"250 472 OFFCURVE",
"250 500 CURVE SMOOTH",
"250 528 OFFCURVE",
"228 550 OFFCURVE",
"200 550 CURVE SMOOTH",
"172 550 OFFCURVE",
"150 528 OFFCURVE",
"150 500 CURVE SMOOTH",
"150 472 OFFCURVE",
"172 450 OFFCURVE",
"200 450 CURVE SMOOTH"
);
},
{
closed = 1;
nodes = (
"328 450 OFFCURVE",
"350 472 OFFCURVE",
"350 500 CURVE SMOOTH",
"350 528 OFFCURVE",
"328 550 OFFCURVE",
"300 550 CURVE SMOOTH",
"272 550 OFFCURVE",
"250 528 OFFCURVE",
"250 500 CURVE SMOOTH",
"250 472 OFFCURVE",
"272 450 OFFCURVE",
"300 450 CURVE SMOOTH"
);
},
{
closed = 1;
nodes = (
"328 -300 OFFCURVE",
"350 -278 OFFCURVE",
"350 -250 CURVE SMOOTH",
"350 -222 OFFCURVE",
"328 -200 OFFCURVE",
"300 -200 CURVE SMOOTH",
"272 -200 OFFCURVE",
"250 -222 OFFCURVE",
"250 -250 CURVE SMOOTH",
"250 -278 OFFCURVE",
"272 -300 OFFCURVE",
"300 -300 CURVE SMOOTH"
);
},
{
closed = 1;
nodes = (
"428 -150 OFFCURVE",
"450 -128 OFFCURVE",
"450 -100 CURVE SMOOTH",
"450 -72 OFFCURVE",
"428 -50 OFFCURVE",
"400 -50 CURVE SMOOTH",
"372 -50 OFFCURVE",
"350 -72 OFFCURVE",
"350 -100 CURVE SMOOTH",
"350 -128 OFFCURVE",
"372 -150 OFFCURVE",
"400 -150 CURVE SMOOTH"
);
}
);
width = 500;
}
);
unicode = 014B;
},
{
glyphname = o;
lastChange = "2024-09-28 14:18:53 +0000";
layers = (
{
anchors = (
{
name = bottom;
position = "{300, 0}";
},
{
name = center;
position = "{300, 350}";
},
{
name = ogonek;
position = "{450, 0}";
},
{
name = top;
position = "{300, 550}";
},
{
name = topright;
position = "{450, 550}";
}
);
layerId = "CAAE6B47-272D-418B-B8E9-730CC53AA9A0";
paths = (
{
closed = 1;
nodes = (
"228 0 OFFCURVE",
"250 22 OFFCURVE",
"250 50 CURVE SMOOTH",
"250 78 OFFCURVE",
"228 100 OFFCURVE",
"200 100 CURVE SMOOTH",
"172 100 OFFCURVE",
"150 78 OFFCURVE",
"150 50 CURVE SMOOTH",
"150 22 OFFCURVE",
"172 0 OFFCURVE",
"200 0 CURVE SMOOTH"
);
},
{
closed = 1;
nodes = (
"328 0 OFFCURVE",
"350 22 OFFCURVE",
"350 50 CURVE SMOOTH",
"350 78 OFFCURVE",
"328 100 OFFCURVE",
"300 100 CURVE SMOOTH",
"272 100 OFFCURVE",
"250 78 OFFCURVE",
"250 50 CURVE SMOOTH",
"250 22 OFFCURVE",
"272 0 OFFCURVE",
"300 0 CURVE SMOOTH"
);
},
{
closed = 1;
nodes = (
"128 150 OFFCURVE",
"150 172 OFFCURVE",
"150 200 CURVE SMOOTH",
"150 228 OFFCURVE",
"128 250 OFFCURVE",
"100 250 CURVE SMOOTH",
"72 250 OFFCURVE",
"50 228 OFFCURVE",
"50 200 CURVE SMOOTH",
"50 172 OFFCURVE",
"72 150 OFFCURVE",
"100 150 CURVE SMOOTH"
);
},
{
closed = 1;
nodes = (
"428 150 OFFCURVE",
"450 172 OFFCURVE",
"450 200 CURVE SMOOTH",
"450 228 OFFCURVE",
"428 250 OFFCURVE",
"400 250 CURVE SMOOTH",
"372 250 OFFCURVE",
"350 228 OFFCURVE",
"350 200 CURVE SMOOTH",
"350 172 OFFCURVE",
"372 150 OFFCURVE",
"400 150 CURVE SMOOTH"
);
},
{
closed = 1;
nodes = (
"128 300 OFFCURVE",
"150 322 OFFCURVE",
"150 350 CURVE SMOOTH",
"150 378 OFFCURVE",
"128 400 OFFCURVE",
"100 400 CURVE SMOOTH",
"72 400 OFFCURVE",
"50 378 OFFCURVE",
"50 350 CURVE SMOOTH",
"50 322 OFFCURVE",
"72 300 OFFCURVE",
"100 300 CURVE SMOOTH"
);
},
{
closed = 1;
nodes = (
"428 300 OFFCURVE",
"450 322 OFFCURVE",
"450 350 CURVE SMOOTH",
"450 378 OFFCURVE",
"428 400 OFFCURVE",
"400 400 CURVE SMOOTH",
"372 400 OFFCURVE",
"350 378 OFFCURVE",
"350 350 CURVE SMOOTH",
"350 322 OFFCURVE",
"372 300 OFFCURVE",
"400 300 CURVE SMOOTH"
);
},
{
closed = 1;
nodes = (
"228 450 OFFCURVE",
"250 472 OFFCURVE",
"250 500 CURVE SMOOTH",
"250 528 OFFCURVE",
"228 550 OFFCURVE",
"200 550 CURVE SMOOTH",
"172 550 OFFCURVE",
"150 528 OFFCURVE",
"150 500 CURVE SMOOTH",
"150 472 OFFCURVE",
"172 450 OFFCURVE",
"200 450 CURVE SMOOTH"
);
},
{
closed = 1;
nodes = (
"328 450 OFFCURVE",
"350 472 OFFCURVE",
"350 500 CURVE SMOOTH",
"350 528 OFFCURVE",
"328 550 OFFCURVE",
"300 550 CURVE SMOOTH",
"272 550 OFFCURVE",
"250 528 OFFCURVE",
"250 500 CURVE SMOOTH",
"250 472 OFFCURVE",
"272 450 OFFCURVE",
"300 450 CURVE SMOOTH"
);
}
);
width = 500;
}
);
unicode = 006F;
},
{
glyphname = oslash;
lastChange = "2024-10-07 08:07:04 +0000";
layers = (
{
anchors = (
{
name = _center;
position = "{300, 350}";
}
);
components = (
{
name = o;
}
);
layerId = "CAAE6B47-272D-418B-B8E9-730CC53AA9A0";
paths = (
{
closed = 1;
nodes = (
"128 0 OFFCURVE",
"150 22 OFFCURVE",
"150 50 CURVE SMOOTH",
"150 78 OFFCURVE",
"128 100 OFFCURVE",
"100 100 CURVE SMOOTH",
"72 100 OFFCURVE",
"50 78 OFFCURVE",
"50 50 CURVE SMOOTH",
"50 22 OFFCURVE",
"72 0 OFFCURVE",
"100 0 CURVE SMOOTH"
);
},
{
closed = 1;
nodes = (
"228 150 OFFCURVE",
"250 172 OFFCURVE",
"250 200 CURVE SMOOTH",
"250 228 OFFCURVE",
"228 250 OFFCURVE",
"200 250 CURVE SMOOTH",
"172 250 OFFCURVE",
"150 228 OFFCURVE",
"150 200 CURVE SMOOTH",
"150 172 OFFCURVE",
"172 150 OFFCURVE",
"200 150 CURVE SMOOTH"
);
},
{
closed = 1;
nodes = (
"328 300 OFFCURVE",
"350 322 OFFCURVE",
"350 350 CURVE SMOOTH",
"350 378 OFFCURVE",
"328 400 OFFCURVE",
"300 400 CURVE SMOOTH",
"272 400 OFFCURVE",
"250 378 OFFCURVE",
"250 350 CURVE SMOOTH",
"250 322 OFFCURVE",
"272 300 OFFCURVE",
"300 300 CURVE SMOOTH"
);
},
{
closed = 1;
nodes = (
"428 450 OFFCURVE",
"450 472 OFFCURVE",
"450 500 CURVE SMOOTH",
"450 528 OFFCURVE",
"428 550 OFFCURVE",
"400 550 CURVE SMOOTH",
"372 550 OFFCURVE",
"350 528 OFFCURVE",
"350 500 CURVE SMOOTH",
"350 472 OFFCURVE",
"372 450 OFFCURVE",
"400 450 CURVE SMOOTH"
);
}
);
width = 500;
}
);
unicode = 00F8;
},
{
glyphname = oe;
lastChange = "2024-10-07 15:15:21 +0000";
layers = (
{
layerId = "CAAE6B47-272D-418B-B8E9-730CC53AA9A0";
paths = (
{
closed = 1;
nodes = (
"428 0 OFFCURVE",
"450 22 OFFCURVE",
"450 50 CURVE SMOOTH",
"450 78 OFFCURVE",
"428 100 OFFCURVE",
"400 100 CURVE SMOOTH",
"372 100 OFFCURVE",
"350 78 OFFCURVE",
"350 50 CURVE SMOOTH",
"350 22 OFFCURVE",
"372 0 OFFCURVE",
"400 0 CURVE SMOOTH"
);
},
{
closed = 1;
nodes = (
"528 0 OFFCURVE",
"550 22 OFFCURVE",
"550 50 CURVE SMOOTH",
"550 78 OFFCURVE",
"528 100 OFFCURVE",
"500 100 CURVE SMOOTH",
"472 100 OFFCURVE",
"450 78 OFFCURVE",
"450 50 CURVE SMOOTH",
"450 22 OFFCURVE",
"472 0 OFFCURVE",
"500 0 CURVE SMOOTH"
);
},
{
closed = 1;
nodes = (
"128 150 OFFCURVE",
"150 172 OFFCURVE",
"150 200 CURVE SMOOTH",
"150 228 OFFCURVE",
"128 250 OFFCURVE",
"100 250 CURVE SMOOTH",
"72 250 OFFCURVE",
"50 228 OFFCURVE",
"50 200 CURVE SMOOTH",
"50 172 OFFCURVE",
"72 150 OFFCURVE",
"100 150 CURVE SMOOTH"
);
},
{
closed = 1;
nodes = (
"328 150 OFFCURVE",
"350 172 OFFCURVE",
"350 200 CURVE SMOOTH",
"350 228 OFFCURVE",
"328 250 OFFCURVE",
"300 250 CURVE SMOOTH",
"272 250 OFFCURVE",
"250 228 OFFCURVE",
"250 200 CURVE SMOOTH",
"250 172 OFFCURVE",
"272 150 OFFCURVE",
"300 150 CURVE SMOOTH"
);
},
{
closed = 1;
nodes = (
"428 300 OFFCURVE",
"450 322 OFFCURVE",
"450 350 CURVE SMOOTH",
"450 378 OFFCURVE",
"428 400 OFFCURVE",
"400 400 CURVE SMOOTH",
"372 400 OFFCURVE",
"350 378 OFFCURVE",
"350 350 CURVE SMOOTH",
"350 322 OFFCURVE",
"372 300 OFFCURVE",
"400 300 CURVE SMOOTH"
);
},
{
closed = 1;
nodes = (
"128 300 OFFCURVE",
"150 322 OFFCURVE",
"150 350 CURVE SMOOTH",
"150 378 OFFCURVE",
"128 400 OFFCURVE",
"100 400 CURVE SMOOTH",
"72 400 OFFCURVE",
"50 378 OFFCURVE",
"50 350 CURVE SMOOTH",
"50 322 OFFCURVE",
"72 300 OFFCURVE",
"100 300 CURVE SMOOTH"
);
},
{
closed = 1;
nodes = (
"328 300 OFFCURVE",
"350 322 OFFCURVE",
"350 350 CURVE SMOOTH",
"350 378 OFFCURVE",
"328 400 OFFCURVE",
"300 400 CURVE SMOOTH",
"272 400 OFFCURVE",
"250 378 OFFCURVE",
"250 350 CURVE SMOOTH",
"250 322 OFFCURVE",
"272 300 OFFCURVE",
"300 300 CURVE SMOOTH"
);
},
{
closed = 1;
nodes = (
"428 450 OFFCURVE",
"450 472 OFFCURVE",
"450 500 CURVE SMOOTH",
"450 528 OFFCURVE",
"428 550 OFFCURVE",
"400 550 CURVE SMOOTH",
"372 550 OFFCURVE",
"350 528 OFFCURVE",
"350 500 CURVE SMOOTH",
"350 472 OFFCURVE",
"372 450 OFFCURVE",
"400 450 CURVE SMOOTH"
);
},
{
closed = 1;
nodes = (
"228 0 OFFCURVE",
"250 22 OFFCURVE",
"250 50 CURVE SMOOTH",
"250 78 OFFCURVE",
"228 100 OFFCURVE",
"200 100 CURVE SMOOTH",
"172 100 OFFCURVE",
"150 78 OFFCURVE",
"150 50 CURVE SMOOTH",
"150 22 OFFCURVE",
"172 0 OFFCURVE",
"200 0 CURVE SMOOTH"
);
},
{
closed = 1;
nodes = (
"228 450 OFFCURVE",
"250 472 OFFCURVE",
"250 500 CURVE SMOOTH",
"250 528 OFFCURVE",
"228 550 OFFCURVE",
"200 550 CURVE SMOOTH",
"172 550 OFFCURVE",
"150 528 OFFCURVE",
"150 500 CURVE SMOOTH",
"150 472 OFFCURVE",
"172 450 OFFCURVE",
"200 450 CURVE SMOOTH"
);
},
{
closed = 1;
nodes = (
"528 300 OFFCURVE",
"550 322 OFFCURVE",
"550 350 CURVE SMOOTH",
"550 378 OFFCURVE",
"528 400 OFFCURVE",
"500 400 CURVE SMOOTH",
"472 400 OFFCURVE",
"450 378 OFFCURVE",
"450 350 CURVE SMOOTH",
"450 322 OFFCURVE",
"472 300 OFFCURVE",
"500 300 CURVE SMOOTH"
);
}
);
width = 600;
}
);
unicode = 0153;
},
{
glyphname = p;
lastChange = "2024-09-28 14:19:34 +0000";
layers = (
{
layerId = "CAAE6B47-272D-418B-B8E9-730CC53AA9A0";
paths = (
{
closed = 1;
nodes = (
"128 -150 OFFCURVE",
"150 -128 OFFCURVE",
"150 -100 CURVE SMOOTH",
"150 -72 OFFCURVE",
"128 -50 OFFCURVE",
"100 -50 CURVE SMOOTH",
"72 -50 OFFCURVE",
"50 -72 OFFCURVE",
"50 -100 CURVE SMOOTH",
"50 -128 OFFCURVE",
"72 -150 OFFCURVE",
"100 -150 CURVE SMOOTH"
);
},
{
closed = 1;
nodes = (
"128 0 OFFCURVE",
"150 22 OFFCURVE",
"150 50 CURVE SMOOTH",
"150 78 OFFCURVE",
"128 100 OFFCURVE",
"100 100 CURVE SMOOTH",
"72 100 OFFCURVE",
"50 78 OFFCURVE",
"50 50 CURVE SMOOTH",
"50 22 OFFCURVE",
"72 0 OFFCURVE",
"100 0 CURVE SMOOTH"
);
},
{
closed = 1;
nodes = (
"228 0 OFFCURVE",
"250 22 OFFCURVE",
"250 50 CURVE SMOOTH",
"250 78 OFFCURVE",
"228 100 OFFCURVE",
"200 100 CURVE SMOOTH",
"172 100 OFFCURVE",
"150 78 OFFCURVE",
"150 50 CURVE SMOOTH",
"150 22 OFFCURVE",
"172 0 OFFCURVE",
"200 0 CURVE SMOOTH"
);
},
{
closed = 1;
nodes = (
"328 0 OFFCURVE",
"350 22 OFFCURVE",
"350 50 CURVE SMOOTH",
"350 78 OFFCURVE",
"328 100 OFFCURVE",
"300 100 CURVE SMOOTH",
"272 100 OFFCURVE",
"250 78 OFFCURVE",
"250 50 CURVE SMOOTH",
"250 22 OFFCURVE",
"272 0 OFFCURVE",
"300 0 CURVE SMOOTH"
);
},
{
closed = 1;
nodes = (
"128 150 OFFCURVE",
"150 172 OFFCURVE",
"150 200 CURVE SMOOTH",
"150 228 OFFCURVE",
"128 250 OFFCURVE",
"100 250 CURVE SMOOTH",
"72 250 OFFCURVE",
"50 228 OFFCURVE",
"50 200 CURVE SMOOTH",
"50 172 OFFCURVE",
"72 150 OFFCURVE",
"100 150 CURVE SMOOTH"
);
},
{
closed = 1;
nodes = (
"428 150 OFFCURVE",
"450 172 OFFCURVE",
"450 200 CURVE SMOOTH",
"450 228 OFFCURVE",
"428 250 OFFCURVE",
"400 250 CURVE SMOOTH",
"372 250 OFFCURVE",
"350 228 OFFCURVE",
"350 200 CURVE SMOOTH",
"350 172 OFFCURVE",
"372 150 OFFCURVE",
"400 150 CURVE SMOOTH"
);
},
{
closed = 1;
nodes = (
"128 300 OFFCURVE",
"150 322 OFFCURVE",
"150 350 CURVE SMOOTH",
"150 378 OFFCURVE",
"128 400 OFFCURVE",
"100 400 CURVE SMOOTH",
"72 400 OFFCURVE",
"50 378 OFFCURVE",
"50 350 CURVE SMOOTH",
"50 322 OFFCURVE",
"72 300 OFFCURVE",
"100 300 CURVE SMOOTH"
);
},
{
closed = 1;
nodes = (
"428 300 OFFCURVE",
"450 322 OFFCURVE",
"450 350 CURVE SMOOTH",
"450 378 OFFCURVE",
"428 400 OFFCURVE",
"400 400 CURVE SMOOTH",
"372 400 OFFCURVE",
"350 378 OFFCURVE",
"350 350 CURVE SMOOTH",
"350 322 OFFCURVE",
"372 300 OFFCURVE",
"400 300 CURVE SMOOTH"
);
},
{
closed = 1;
nodes = (
"128 450 OFFCURVE",
"150 472 OFFCURVE",
"150 500 CURVE SMOOTH",
"150 528 OFFCURVE",
"128 550 OFFCURVE",
"100 550 CURVE SMOOTH",
"72 550 OFFCURVE",
"50 528 OFFCURVE",
"50 500 CURVE SMOOTH",
"50 472 OFFCURVE",
"72 450 OFFCURVE",
"100 450 CURVE SMOOTH"
);
},
{
closed = 1;
nodes = (
"228 450 OFFCURVE",
"250 472 OFFCURVE",
"250 500 CURVE SMOOTH",
"250 528 OFFCURVE",
"228 550 OFFCURVE",
"200 550 CURVE SMOOTH",
"172 550 OFFCURVE",
"150 528 OFFCURVE",
"150 500 CURVE SMOOTH",
"150 472 OFFCURVE",
"172 450 OFFCURVE",
"200 450 CURVE SMOOTH"
);
},
{
closed = 1;
nodes = (
"328 450 OFFCURVE",
"350 472 OFFCURVE",
"350 500 CURVE SMOOTH",
"350 528 OFFCURVE",
"328 550 OFFCURVE",
"300 550 CURVE SMOOTH",
"272 550 OFFCURVE",
"250 528 OFFCURVE",
"250 500 CURVE SMOOTH",
"250 472 OFFCURVE",
"272 450 OFFCURVE",
"300 450 CURVE SMOOTH"
);
}
);
width = 500;
}
);
unicode = 0070;
},
{
glyphname = thorn;
lastChange = "2024-09-28 14:46:08 +0000";
layers = (
{
layerId = "CAAE6B47-272D-418B-B8E9-730CC53AA9A0";
paths = (
{
closed = 1;
nodes = (
"128 0 OFFCURVE",
"150 22 OFFCURVE",
"150 50 CURVE SMOOTH",
"150 78 OFFCURVE",
"128 100 OFFCURVE",
"100 100 CURVE SMOOTH",
"72 100 OFFCURVE",
"50 78 OFFCURVE",
"50 50 CURVE SMOOTH",
"50 22 OFFCURVE",
"72 0 OFFCURVE",
"100 0 CURVE SMOOTH"
);
},
{
closed = 1;
nodes = (
"228 0 OFFCURVE",
"250 22 OFFCURVE",
"250 50 CURVE SMOOTH",
"250 78 OFFCURVE",
"228 100 OFFCURVE",
"200 100 CURVE SMOOTH",
"172 100 OFFCURVE",
"150 78 OFFCURVE",
"150 50 CURVE SMOOTH",
"150 22 OFFCURVE",
"172 0 OFFCURVE",
"200 0 CURVE SMOOTH"
);
},
{
closed = 1;
nodes = (
"328 0 OFFCURVE",
"350 22 OFFCURVE",
"350 50 CURVE SMOOTH",
"350 78 OFFCURVE",
"328 100 OFFCURVE",
"300 100 CURVE SMOOTH",
"272 100 OFFCURVE",
"250 78 OFFCURVE",
"250 50 CURVE SMOOTH",
"250 22 OFFCURVE",
"272 0 OFFCURVE",
"300 0 CURVE SMOOTH"
);
},
{
closed = 1;
nodes = (
"128 150 OFFCURVE",
"150 172 OFFCURVE",
"150 200 CURVE SMOOTH",
"150 228 OFFCURVE",
"128 250 OFFCURVE",
"100 250 CURVE SMOOTH",
"72 250 OFFCURVE",
"50 228 OFFCURVE",
"50 200 CURVE SMOOTH",
"50 172 OFFCURVE",
"72 150 OFFCURVE",
"100 150 CURVE SMOOTH"
);
},
{
closed = 1;
nodes = (
"428 150 OFFCURVE",
"450 172 OFFCURVE",
"450 200 CURVE SMOOTH",
"450 228 OFFCURVE",
"428 250 OFFCURVE",
"400 250 CURVE SMOOTH",
"372 250 OFFCURVE",
"350 228 OFFCURVE",
"350 200 CURVE SMOOTH",
"350 172 OFFCURVE",
"372 150 OFFCURVE",
"400 150 CURVE SMOOTH"
);
},
{
closed = 1;
nodes = (
"128 300 OFFCURVE",
"150 322 OFFCURVE",
"150 350 CURVE SMOOTH",
"150 378 OFFCURVE",
"128 400 OFFCURVE",
"100 400 CURVE SMOOTH",
"72 400 OFFCURVE",
"50 378 OFFCURVE",
"50 350 CURVE SMOOTH",
"50 322 OFFCURVE",
"72 300 OFFCURVE",
"100 300 CURVE SMOOTH"
);
},
{
closed = 1;
nodes = (
"428 300 OFFCURVE",
"450 322 OFFCURVE",
"450 350 CURVE SMOOTH",
"450 378 OFFCURVE",
"428 400 OFFCURVE",
"400 400 CURVE SMOOTH",
"372 400 OFFCURVE",
"350 378 OFFCURVE",
"350 350 CURVE SMOOTH",
"350 322 OFFCURVE",
"372 300 OFFCURVE",
"400 300 CURVE SMOOTH"
);
},
{
closed = 1;
nodes = (
"128 450 OFFCURVE",
"150 472 OFFCURVE",
"150 500 CURVE SMOOTH",
"150 528 OFFCURVE",
"128 550 OFFCURVE",
"100 550 CURVE SMOOTH",
"72 550 OFFCURVE",
"50 528 OFFCURVE",
"50 500 CURVE SMOOTH",
"50 472 OFFCURVE",
"72 450 OFFCURVE",
"100 450 CURVE SMOOTH"
);
},
{
closed = 1;
nodes = (
"228 450 OFFCURVE",
"250 472 OFFCURVE",
"250 500 CURVE SMOOTH",
"250 528 OFFCURVE",
"228 550 OFFCURVE",
"200 550 CURVE SMOOTH",
"172 550 OFFCURVE",
"150 528 OFFCURVE",
"150 500 CURVE SMOOTH",
"150 472 OFFCURVE",
"172 450 OFFCURVE",
"200 450 CURVE SMOOTH"
);
},
{
closed = 1;
nodes = (
"328 450 OFFCURVE",
"350 472 OFFCURVE",
"350 500 CURVE SMOOTH",
"350 528 OFFCURVE",
"328 550 OFFCURVE",
"300 550 CURVE SMOOTH",
"272 550 OFFCURVE",
"250 528 OFFCURVE",
"250 500 CURVE SMOOTH",
"250 472 OFFCURVE",
"272 450 OFFCURVE",
"300 450 CURVE SMOOTH"
);
},
{
closed = 1;
nodes = (
"128 600 OFFCURVE",
"150 622 OFFCURVE",
"150 650 CURVE SMOOTH",
"150 678 OFFCURVE",
"128 700 OFFCURVE",
"100 700 CURVE SMOOTH",
"72 700 OFFCURVE",
"50 678 OFFCURVE",
"50 650 CURVE SMOOTH",
"50 622 OFFCURVE",
"72 600 OFFCURVE",
"100 600 CURVE SMOOTH"
);
},
{
closed = 1;
nodes = (
"128 -150 OFFCURVE",
"150 -128 OFFCURVE",
"150 -100 CURVE SMOOTH",
"150 -72 OFFCURVE",
"128 -50 OFFCURVE",
"100 -50 CURVE SMOOTH",
"72 -50 OFFCURVE",
"50 -72 OFFCURVE",
"50 -100 CURVE SMOOTH",
"50 -128 OFFCURVE",
"72 -150 OFFCURVE",
"100 -150 CURVE SMOOTH"
);
}
);
width = 500;
}
);
unicode = 00FE;
},
